<?xml version="1.0" encoding="utf-8"?>
<!-- Generator: Adobe Illustrator 16.0.0, SVG Export Plug-In . SVG Version: 6.00 Build 0)  -->
<!DOCTYPE svg PUBLIC "-//W3C//DTD SVG 1.1//EN" "http://www.w3.org/Graphics/SVG/1.1/DTD/svg11.dtd">
<svg version="1.1" id="Layer_1" xmlns="http://www.w3.org/2000/svg" xmlns:xlink="http://www.w3.org/1999/xlink" x="0px" y="0px"
	 width="595.279px" height="568.472px" viewBox="0 156.548 595.279 568.472" enable-background="new 0 156.548 595.279 568.472"
	 xml:space="preserve">
<g id="freepik--background-simple--inject-179">
	<path fill="#E0E0E0" d="M480.76,218.359c-31.74-26.002-78.685-33.646-115.413-15.358c-40.086,19.966-65.719,66.897-109.781,74.875
		c-22.406,4.06-45.241-3.107-67.957-3.679c-56.456-1.417-110.377,43.658-119.057,99.471
		c-8.679,55.814,29.217,115.044,83.471,130.712l248.565,2.107c37.562-16.502,54.516-36.254,81.279-67.363
		c26.764-31.109,44.658-70.635,45.896-111.65C529.001,286.459,512.489,244.361,480.76,218.359z"/>
</g>
<g id="freepik--Carpet--inject-179">
	<path fill="#E0E0E0" d="M548.027,557.585c-6.74,0.414-13.499,0.414-20.239,0C534.528,557.171,541.286,557.171,548.027,557.585z"/>
	<path fill="#E0E0E0" d="M549.42,551.908c-3.961,0.307-7.935,0.41-11.906,0.309c-3.971,0.102-7.945-0.002-11.905-0.309
		c3.96-0.314,7.935-0.418,11.905-0.311C541.486,551.49,545.459,551.591,549.42,551.908z"/>
	<path fill="#E0E0E0" d="M541.705,545.359c-6.399,0.412-12.817,0.412-19.216,0C528.888,544.947,535.306,544.947,541.705,545.359z"/>
	<path fill="#E0E0E0" d="M544.265,534.953c0,0.18-5.715,0.311-12.775,0.311c-7.06,0-12.774-0.131-12.774-0.311
		c0-0.178,5.727-0.309,12.774-0.309C538.538,534.644,544.265,534.787,544.265,534.953z"/>
	<path fill="#E0E0E0" d="M544.086,529.5c0,0.168-5.667,0.311-12.668,0.311c-7,0-12.68-0.143-12.68-0.311
		c0-0.166,5.68-0.309,12.68-0.309C538.419,529.191,544.086,529.287,544.086,529.5z"/>
	<path fill="#E0E0E0" d="M542.086,522.726c0,0.178-6.024,0.311-13.466,0.311c-7.44,0-13.465-0.133-13.465-0.311
		s6.024-0.309,13.465-0.309C536.062,522.417,542.086,522.56,542.086,522.726z"/>
	<path fill="#E0E0E0" d="M537.133,513.63c0,0.166-5.536,0.309-12.37,0.309s-12.382-0.143-12.382-0.309
		c4.119-0.314,8.252-0.418,12.382-0.311C528.889,513.212,533.018,513.316,537.133,513.63z"/>
	<path fill="#E0E0E0" d="M550.038,564.873c-4.119,0.313-8.252,0.416-12.382,0.309c-4.13,0.107-8.262,0.004-12.382-0.309
		c0-0.168,5.549-0.311,12.382-0.311C544.49,564.562,550.038,564.705,550.038,564.873z"/>
	<path fill="#E0E0E0" d="M551.789,575.539c-4.053,0.307-8.117,0.41-12.18,0.311c-4.063,0.1-8.128-0.004-12.18-0.311
		c4.052-0.307,8.117-0.408,12.18-0.309C543.672,575.13,547.737,575.232,551.789,575.539z"/>
	<path fill="#E0E0E0" d="M553.778,581.779c-3.961,0.314-7.935,0.418-11.906,0.309c-3.971,0.107-7.945,0.004-11.905-0.309
		c3.96-0.309,7.935-0.412,11.905-0.311C545.843,581.367,549.817,581.47,553.778,581.779z"/>
	<path fill="#E0E0E0" d="M559.718,587.767c0,0.166-5.953,0.309-13.18,0.309s-13.167-0.143-13.167-0.309
		c0-0.168,5.893-0.311,13.167-0.311S559.718,587.625,559.718,587.767z"/>
	<path fill="#E0E0E0" d="M560.754,597.386c-3.92,0.322-7.855,0.43-11.787,0.322c-3.932,0.107-7.866,0-11.786-0.322
		c3.921-0.307,7.854-0.41,11.786-0.311C552.899,596.976,556.833,597.08,560.754,597.386z"/>
	<path fill="#E0E0E0" d="M562.695,602.435c-3.896,0.643-7.822,1.082-11.763,1.32c-3.922,0.445-7.864,0.68-11.811,0.703
		c3.891-0.654,7.813-1.107,11.751-1.357C554.798,602.667,558.744,602.445,562.695,602.435z"/>
	<path fill="#E0E0E0" d="M564.671,609.708c0,0.166-5.953,0.393-13.168,0.5s-13.18,0-13.18-0.119s5.894-0.404,13.168-0.5
		S564.658,609.542,564.671,609.708z"/>
	<path fill="#E0E0E0" d="M565.052,618.828c-3.941,0.66-7.916,1.105-11.906,1.334c-3.954,0.438-7.927,0.676-11.905,0.715
		c3.943-0.646,7.917-1.092,11.905-1.334C557.1,619.105,561.073,618.867,565.052,618.828z"/>
	<path fill="#E0E0E0" d="M563.873,627.376c-1.06,0.336-2.147,0.574-3.25,0.715c-2.013,0.369-4.763,0.881-7.858,1.512
		s-5.821,1.189-7.821,1.689c-1.068,0.299-2.16,0.506-3.263,0.619c1.014-0.455,2.07-0.807,3.155-1.047
		c1.977-0.559,4.762-1.191,7.81-1.869s5.882-1.084,7.917-1.346C561.656,627.455,562.764,627.363,563.873,627.376z"/>
	<path fill="#E0E0E0" d="M567.897,637.306c-1.111,0.164-2.233,0.244-3.357,0.238c-2.071,0.107-4.917,0.262-8.06,0.547
		c-3.144,0.285-5.953,0.654-8.036,0.941c-1.104,0.205-2.223,0.328-3.346,0.369c1.059-0.387,2.156-0.654,3.274-0.799
		c2.035-0.393,4.881-0.834,8.048-1.131s6.036-0.381,8.107-0.357C565.655,637.058,566.784,637.123,567.897,637.306z"/>
	<path fill="#E0E0E0" d="M571.79,646.021c-1.161,0.088-2.327,0.088-3.488,0c-2.155,0-5.119-0.084-8.405,0
		c-3.286,0.082-6.238,0.332-8.334,0.512c-1.156,0.16-2.321,0.236-3.488,0.227c1.121-0.338,2.274-0.559,3.44-0.656
		c2.792-0.377,5.602-0.611,8.417-0.701c2.814-0.098,5.633-0.047,8.441,0.154C569.526,645.591,570.671,645.746,571.79,646.021z"/>
	<path fill="#E0E0E0" d="M572.588,653.64c-1.271,0.051-2.544,0.016-3.81-0.107c-2.382-0.119-5.584-0.25-9.168-0.262
		c-3.583-0.012-6.821,0.084-9.167,0.178c-1.267,0.117-2.54,0.143-3.81,0.072c1.243-0.285,2.511-0.457,3.786-0.512
		c2.381-0.203,5.595-0.369,9.19-0.357s6.857,0.215,9.203,0.441C570.086,653.154,571.351,653.337,572.588,653.64z"/>
	<path fill="#E0E0E0" d="M574.373,660.652c0,0.168-5.619,0.477-12.572,0.691c-6.952,0.215-12.572,0.238-12.584,0.07
		c4.177-0.445,8.373-0.676,12.572-0.689C565.981,660.488,570.181,660.462,574.373,660.652z"/>
	<path fill="#E0E0E0" d="M575.159,666.605c0,0.168-5.702,0.561-12.763,0.881c-7.06,0.322-12.774,0.418-12.786,0.25
		c-0.013-0.166,5.702-0.559,12.763-0.869C569.433,666.558,575.159,666.439,575.159,666.605z"/>
	<path fill="#E0E0E0" d="M580.113,676.689c-1.435,0.104-2.874,0.123-4.31,0.061c-2.667,0-6.334,0-10.382,0.297
		s-7.691,0.68-10.334,1.023c-1.418,0.252-2.849,0.42-4.286,0.5c0.358-0.152,0.734-0.26,1.119-0.32
		c0.726-0.168,1.785-0.381,3.107-0.607c3.429-0.582,6.886-0.98,10.357-1.191c3.473-0.217,6.953-0.258,10.43-0.119
		c1.333,0.061,2.381,0.131,3.154,0.203C579.355,676.542,579.739,676.595,580.113,676.689z"/>
	<path fill="#E0E0E0" d="M581.493,683.392c0,0.166-6.144,0.607-13.739,0.988s-13.774,0.535-13.786,0.369
		c-0.013-0.166,6.143-0.619,13.751-0.988C575.326,683.392,581.493,683.214,581.493,683.392z"/>
	<path fill="#E0E0E0" d="M116.675,519.642c-1.173,0.271-2.369,0.428-3.572,0.465c-2.25,0.178-5.381,0.322-8.833,0.285
		c-3.453-0.035-6.572-0.238-8.822-0.463c-1.205-0.063-2.401-0.242-3.572-0.537c1.22-0.051,2.441-0.016,3.655,0.107
		c2.25,0.107,5.357,0.238,8.798,0.273c3.441,0.037,6.549,0,8.799-0.107C114.308,519.582,115.493,519.574,116.675,519.642z"/>
	<path fill="#E0E0E0" d="M121.949,513.261c0,0.178-6.465,0.453-14.454,0.607c-7.988,0.154-14.477,0.166-14.477,0
		s6.465-0.441,14.465-0.607C115.485,513.095,121.949,513.095,121.949,513.261z"/>
	<path fill="#E0E0E0" d="M110.127,526.738c-1.332,0.252-2.682,0.395-4.036,0.43c-2.513,0.166-5.953,0.285-9.799,0.262
		c-3.845-0.023-7.298-0.227-9.798-0.43c-1.357-0.045-2.708-0.213-4.036-0.5c1.352-0.09,2.708-0.09,4.06,0
		c2.5,0.096,5.953,0.215,9.774,0.25c3.822,0.037,7.274,0,9.774-0.082C107.42,526.595,108.777,526.619,110.127,526.738z"/>
	<path fill="#E0E0E0" d="M111.912,536.74c0,0.166-7.44,0.154-16.668,0c-9.227-0.156-16.667-0.465-16.596-0.645
		c0.071-0.178,7.44-0.154,16.668,0C104.543,536.251,111.912,536.56,111.912,536.74z"/>
	<path fill="#E0E0E0" d="M104.591,542.097c-0.388,0.115-0.787,0.184-1.19,0.201c-0.738,0.107-1.811,0.203-3.144,0.311
		c-2.667,0.201-6.357,0.357-10.441,0.285c-4.083-0.07-7.774-0.357-10.429-0.654c-1.322-0.154-2.382-0.299-3.132-0.418
		c-0.406-0.029-0.806-0.113-1.19-0.25c1.444-0.01,2.887,0.066,4.322,0.227c2.654,0.191,6.333,0.406,10.394,0.477
		c4.06,0.072,7.738,0,10.405-0.107C101.651,542.048,103.122,542.023,104.591,542.097z"/>
	<path fill="#E0E0E0" d="M104.578,549.132c-1.464-0.152-2.919-0.387-4.357-0.701c-2.679-0.453-6.404-1-10.536-1.334
		c-4.131-0.334-7.894-0.381-10.62-0.346c-2.726,0.035-4.404,0.107-4.404,0c0.385-0.125,0.786-0.193,1.19-0.203
		c0.762-0.094,1.869-0.178,3.227-0.25c3.571-0.168,7.15-0.113,10.715,0.168c3.553,0.281,7.084,0.791,10.572,1.523
		c1.333,0.285,2.381,0.547,3.154,0.75C103.888,548.826,104.243,548.958,104.578,549.132z"/>
	<path fill="#E0E0E0" d="M100.328,557.859c-0.482-0.004-0.963-0.072-1.429-0.201l-3.833-0.738c-3.238-0.631-7.715-1.477-12.68-2.273
		c-4.965-0.799-9.524-1.395-12.763-1.811l-3.869-0.5c-0.481-0.027-0.957-0.111-1.417-0.25c0.479-0.057,0.962-0.057,1.44,0
		c0.917,0,2.25,0.154,3.893,0.297c3.298,0.311,7.834,0.846,12.811,1.645c4.977,0.797,9.453,1.713,12.68,2.451
		c1.607,0.369,2.905,0.691,3.798,0.941C99.43,557.517,99.889,557.666,100.328,557.859z"/>
	<path fill="#E0E0E0" d="M96.292,565.931c0,0.168-6.655,0.131-14.857-0.082c-8.203-0.215-14.835-0.525-14.835-0.703
		c0-0.18,6.655-0.131,14.858,0.084C89.661,565.443,96.292,565.765,96.292,565.931z"/>
	<path fill="#E0E0E0" d="M87.233,574.707c0,0.166-6.703,0.273-14.966,0.238c-8.263-0.037-14.965-0.203-14.965-0.369
		c0-0.168,6.702-0.287,14.965-0.25C80.53,574.361,87.233,574.527,87.233,574.707z"/>
	<path fill="#E0E0E0" d="M84.208,584.541c-1.407-0.031-2.811-0.15-4.202-0.357c-2.584-0.273-6.155-0.619-10.12-0.881
		s-7.536-0.369-10.144-0.441c-1.403,0.027-2.808-0.037-4.203-0.189c0.363-0.107,0.741-0.156,1.119-0.143
		c0.738,0,1.786-0.084,3.096-0.107c2.596,0,6.203,0,10.18,0.262s7.548,0.678,10.132,1.059c1.285,0.191,2.381,0.369,3.035,0.512
		C83.482,584.296,83.855,584.392,84.208,584.541z"/>
	<path fill="#E0E0E0" d="M80.434,591.314c-0.389,0.096-0.789,0.139-1.19,0.131c-0.75,0-1.833,0.072-3.167,0.084
		c-2.679,0-6.381,0-10.465-0.357c-4.083-0.357-7.75-0.75-10.394-1.191c-1.321-0.213-2.381-0.393-3.119-0.547
		c-0.39-0.043-0.771-0.145-1.131-0.297c1.443,0.043,2.883,0.178,4.31,0.404c2.655,0.309,6.322,0.689,10.382,0.988
		c4.06,0.297,7.751,0.453,10.417,0.535C77.533,591.058,78.989,591.142,80.434,591.314z"/>
	<path fill="#E0E0E0" d="M73.148,599.314c-1.164,0-2.326-0.092-3.477-0.273c-2.131-0.227-5.071-0.523-8.333-0.762
		c-3.263-0.238-6.228-0.346-8.334-0.428c-1.159,0.027-2.318-0.045-3.465-0.215c1.147-0.193,2.313-0.27,3.477-0.227
		c2.143,0,5.119,0,8.405,0.25s6.227,0.607,8.334,0.941C70.906,598.726,72.043,598.966,73.148,599.314z"/>
	<path fill="#E0E0E0" d="M71.874,609.935c-1.365-0.178-2.718-0.443-4.048-0.799c-2.477-0.547-5.953-1.273-9.728-1.988
		c-3.773-0.713-7.298-1.189-9.81-1.619c-1.371-0.143-2.73-0.373-4.072-0.689c0.371-0.053,0.748-0.053,1.119,0
		c0.715,0,1.738,0.131,3.013,0.262c2.536,0.262,6.024,0.738,9.857,1.441c3.834,0.701,7.263,1.512,9.728,2.166
		c1.19,0.334,2.226,0.619,2.904,0.834C71.199,609.625,71.548,609.757,71.874,609.935z"/>
	<path fill="#E0E0E0" d="M60.064,616.519c-1.13-0.074-2.253-0.236-3.357-0.488c-2.06-0.369-4.905-0.834-8.06-1.262
		c-3.155-0.43-6.024-0.703-8.108-0.906c-1.131-0.045-2.258-0.176-3.369-0.393c1.132-0.119,2.273-0.119,3.405,0
		c2.096,0.072,4.977,0.299,8.155,0.715s6.024,0.977,8.06,1.441C57.908,615.81,59.006,616.109,60.064,616.519z"/>
	<path fill="#E0E0E0" d="M58.052,622.447c-1.361-0.043-2.718-0.178-4.061-0.404c-2.5-0.297-5.952-0.703-9.762-1.072
		c-3.811-0.367-7.274-0.617-9.787-0.797c-1.361-0.029-2.718-0.162-4.06-0.393c1.379-0.117,2.764-0.121,4.144-0.012
		c2.512,0.07,5.952,0.25,9.821,0.619c3.87,0.369,7.287,0.846,9.763,1.262C55.445,621.804,56.763,622.072,58.052,622.447z"/>
	<path fill="#E0E0E0" d="M55.039,629.699c-1.28,0.086-2.564,0.086-3.845,0c-2.382,0-5.632-0.096-9.239,0
		c-3.607,0.094-6.882,0.178-9.251,0.285c-1.273,0.123-2.555,0.15-3.833,0.084c1.253-0.283,2.527-0.459,3.81-0.525
		c2.381-0.213,5.644-0.416,9.263-0.463c3.619-0.049,6.905,0.07,9.274,0.225C52.501,629.322,53.781,629.453,55.039,629.699z"/>
	<path fill="#E0E0E0" d="M55.789,637.626c-1.109,0.031-2.22-0.025-3.321-0.166c-2.048-0.143-4.881-0.273-8.013-0.227
		c-3.131,0.049-5.952,0.262-7.988,0.465c-1.1,0.166-2.21,0.258-3.322,0.273c1.06-0.363,2.159-0.6,3.274-0.703
		c2.661-0.4,5.346-0.619,8.036-0.654c2.688-0.043,5.378,0.092,8.049,0.404C53.619,637.091,54.723,637.294,55.789,637.626z"/>
	<path fill="#E0E0E0" d="M46.23,646.902c-1.088-0.129-2.166-0.332-3.227-0.607c-1.977-0.416-4.763-0.916-7.774-1.285
		s-5.846-0.525-7.857-0.596c-1.094,0.018-2.188-0.039-3.274-0.166c1.076-0.223,2.176-0.314,3.274-0.275
		c5.304-0.078,10.594,0.559,15.727,1.895C44.179,646.085,45.231,646.433,46.23,646.902z"/>
	<path fill="#E0E0E0" d="M39.194,657.533c0,0.168-5.644,0.191-12.585,0c-6.94-0.189-12.584-0.416-12.572-0.582
		c0.013-0.168,5.632-0.191,12.585,0C33.573,657.14,39.194,657.367,39.194,657.533z"/>
	<path fill="#E0E0E0" d="M33.157,663.666c-2.041,0.039-4.079-0.133-6.084-0.514c-2.018-0.176-4.012-0.555-5.953-1.131
		c2.036-0.039,4.071,0.133,6.072,0.512C29.212,662.716,31.21,663.095,33.157,663.666z"/>
	<path fill="#E0E0E0" d="M35.919,675.642c-1.17-0.082-2.332-0.254-3.477-0.512c-2.119-0.369-5.06-0.869-8.334-1.322
		c-3.273-0.453-6.227-0.773-8.334-0.988c-1.169-0.059-2.331-0.209-3.477-0.451c1.168-0.117,2.345-0.117,3.513,0
		c2.167,0.105,5.155,0.367,8.429,0.82c3.274,0.453,6.215,1.012,8.334,1.5C33.718,674.892,34.839,675.212,35.919,675.642z"/>
	<polygon fill="#EBEBEB" points="117.961,509.392 20.37,687.06 560.408,687.322 516.715,511.689 	"/>
	<polygon fill="#FAFAFA" points="36.098,658.425 553.217,658.425 545.824,628.746 49.17,634.615 	"/>
	<polygon fill="#FAFAFA" points="66.017,603.863 539.645,603.863 532.335,574.503 79.089,580.064 	"/>
	<polygon fill="#FAFAFA" points="95.995,549.312 526.073,549.312 518.692,519.642 109.068,525.511 	"/>
</g>
<g id="freepik--Books--inject-179">
	<polygon fill="#283648" points="409.505,645.925 409.505,662.177 498.011,662.177 520.477,640.722 517.119,640.722 
		495.999,660.664 495.999,645.925 517.119,628.103 434.994,628.103 	"/>
	<polygon fill="#EBEBEB" points="495.999,644.068 495.999,660.664 517.119,640.722 517.119,628.103 	"/>
	<polygon fill="#F2B400" points="394.599,645.925 394.599,627.792 435.328,610.292 517.119,610.292 479.879,628.103 480.2,642.746 
		515.346,624.269 515.346,626.496 480.2,645.925 	"/>
	<polygon fill="#EBEBEB" points="514.548,611.519 514.548,624.697 480.2,642.746 479.879,628.103 	"/>
	<path fill="#263238" d="M475.974,629.292c0,0.168-17.966,0.311-40.11,0.311c-22.144,0-40.109-0.143-40.109-0.311
		c0-0.166,17.953-0.32,40.109-0.32C458.021,628.972,475.974,629.08,475.974,629.292z"/>
	<path fill="#263238" d="M427.161,624.435l6.643-0.154c4.167-0.107,9.966-0.262,16.883-0.357l0.262,0.357
		c0.025-0.1-0.007-0.205-0.083-0.273c-0.051-0.018-0.104-0.018-0.155,0l0,0h0.096l0.226-0.119l0.465-0.25l0.952-0.547l1.94-1.191
		l4-2.535l8.524-5.537l0.119-0.084l0.167,0.572h-21.073h0.131c-5.631,3.084-10.357,5.584-13.727,7.393l-5.382,2.883l5.061-2.906
		c3.273-1.881,8.036-4.631,13.786-7.846h0.06h0.071h21.073h1.048l-0.869,0.572l-0.131,0.07c-2.929,1.715-5.786,3.537-8.524,5.287
		l-4.024,2.535l-1.94,1.191l-0.977,0.547l-0.488,0.262l-0.262,0.131h-0.154h-0.131c-0.069,0.027-0.146,0.027-0.215,0
		c-0.099-0.08-0.141-0.211-0.107-0.332l0.263,0.357c-7.084,0-13.097,0-17.156,0L427.161,624.435z"/>
</g>
<g id="freepik--Character--inject-179">
	<path fill="#F2B400" d="M306.891,557.943l-34.622,41.777c-2.702,3.262-2.366,8.072,0.763,10.93l45.491,41.49
		c0,0,6.643-0.904-13.882-35.109l32.287-34.109L306.891,557.943z"/>
	<g>
		<path fill="#F2B400" d="M306.891,557.943l-34.622,41.777c-2.702,3.262-2.366,8.072,0.763,10.93l45.491,41.49
			c0,0,6.643-0.904-13.882-35.109l32.287-34.109L306.891,557.943z"/>
	</g>
	<path fill="#FAFAFA" d="M305.093,640.091c2.154-3.227,5.989-4.904,9.822-4.297c-1.811,0.221-3.588,0.652-5.298,1.285
		C307.999,637.908,306.481,638.917,305.093,640.091z"/>
	<path fill="#FAFAFA" d="M282.698,619.685c0.991-1.195,1.883-2.469,2.667-3.809c3.78-6.756,2.242-15.242-3.667-20.24
		c-1.203-0.982-2.485-1.861-3.834-2.631c0.418,0.082,0.82,0.23,1.191,0.439c1.049,0.496,2.033,1.119,2.929,1.857
		c6.281,5.012,7.884,13.898,3.75,20.787c-0.581,1.002-1.28,1.93-2.084,2.762C283.374,619.173,283.054,619.455,282.698,619.685z"/>
	<path fill="#FAFAFA" d="M288.794,582.861c0.425,0.203,0.824,0.455,1.19,0.75c0.727,0.512,1.75,1.275,3.024,2.227
		c2.523,1.93,5.952,4.656,9.631,7.799s6.894,6.119,9.18,8.334c1.19,1.096,2.06,2,2.679,2.631c0.34,0.314,0.646,0.66,0.917,1.035
		c-0.397-0.236-0.762-0.525-1.084-0.857l-2.81-2.488c-2.381-2.119-5.619-5.023-9.286-8.166s-7.048-5.953-9.524-7.93l-2.905-2.381
		C289.432,583.539,289.092,583.218,288.794,582.861z"/>
	<path fill="#F2B400" d="M342.964,475.21c3.144,11.561,56.552,37.324,56.552,37.324l11.811-29.098l-35.717-24.514
		c0.702-2.809-2.44-6.654-2.44-6.654s-6.203-49.218-9.524-66.35c-2.679-13.906-19.252-22.454-28.646-26.252v-0.203l-3.81-1.25
		c-1.643-0.571-2.643-0.857-2.643-0.857l0,0l-19.752-6.441l-40.598,1.19l-20.049,5.286c-2.453,0-26.275,7.405-34.157,25.954
		c-3.917,9.227-3.465,62.826-7.144,88.102c-1.071,7.43-0.19,15.918,3.965,22.18c4.369,6.572,5.202,10.025,12.905,11.727
		l14.822,4.633c0.144,3.297,0.238,5.451,0.238,5.451s42.479,31.086,72.053,21.764s55.135-32.275,55.135-32.275l-28.156-24.336
		l-0.44-13.334l2.047-15.084C340.893,463.603,342.179,472.341,342.964,475.21z"/>
	<path fill="#263238" d="M284.544,507c0,0,0-0.072,0-0.227s0-0.393,0-0.654c0-0.619,0.071-1.477,0.131-2.584
		c0.131-2.299,0.321-5.619,0.571-9.834l0.083,0.154l-39.884-22.203l-0.154-0.084v-0.191c0.179-7.846,0.369-16.381,0.571-25.238
		c0.215-11.633,0.477-22.705,0.381-32.777c0.011-4.776-0.28-9.547-0.869-14.287c-0.5-4.093-1.558-8.099-3.143-11.905
		c-1.395-3.113-3.356-5.939-5.786-8.334c-1.825-1.819-3.947-3.313-6.274-4.417c-1.485-0.67-3.044-1.166-4.644-1.477l-1.262-0.167
		l-0.429-0.083h0.429l1.274,0.119c1.64,0.253,3.24,0.718,4.762,1.381c2.38,1.078,4.556,2.561,6.429,4.381
		c2.488,2.408,4.507,5.258,5.953,8.405c1.636,3.851,2.729,7.909,3.25,12.06c0.612,4.738,0.923,9.51,0.929,14.287
		c0.131,10.096-0.119,21.168-0.333,32.799c-0.202,8.859-0.405,17.395-0.596,25.252l-0.154-0.273l39.669,22.467h0.096v0.107
		c-0.31,4.213-0.56,7.523-0.727,9.822c-0.095,1.094-0.167,1.951-0.226,2.57l-0.06,0.654L284.544,507z"/>
	<path fill="#263238" d="M333.535,394.431c0.223,0.193,0.43,0.404,0.619,0.631c0.587,0.608,1.136,1.252,1.643,1.929
		c1.903,2.473,3.446,5.202,4.584,8.107c1.691,4.309,2.747,8.841,3.131,13.454c0.465,5.639,0.313,11.313-0.452,16.918
		c-0.798,5.953-1.952,11.549-2.952,16.668c-1.001,5.119-1.846,9.691-2.382,13.572c-0.535,3.881-0.738,7.047-0.798,9.238
		c0,1.096,0,1.953,0,2.523c0.021,0.295,0.021,0.588,0,0.881c-0.055-0.289-0.078-0.584-0.071-0.881c0-0.57-0.083-1.428-0.06-2.523
		c0.023-3.107,0.227-6.213,0.607-9.299c0.44-3.904,1.19-8.523,2.215-13.619c1.023-5.096,2.095-10.715,2.893-16.668
		c0.763-5.563,0.93-11.189,0.5-16.787c-0.354-4.566-1.353-9.059-2.964-13.346c-1.098-2.885-2.566-5.615-4.37-8.12
		C334.309,395.372,333.488,394.479,333.535,394.431z"/>
	<path fill="#263238" d="M375.812,459.972c0,0.107-0.94,0-2.381,0.227c-3.804,0.609-7.114,2.938-8.977,6.309
		c-0.69,1.287-0.917,2.191-1.024,2.168c0.021-0.832,0.237-1.648,0.631-2.381c0.846-1.811,2.156-3.363,3.799-4.502
		c1.63-1.154,3.535-1.859,5.523-2.047C374.199,459.626,375.031,459.705,375.812,459.972z"/>
	<path fill="#263238" d="M356.061,467.199c-0.055-0.311-0.055-0.629,0-0.941c0.109-0.85,0.306-1.688,0.583-2.5
		c1.83-5.545,6.647-9.574,12.43-10.393c0.848-0.123,1.704-0.166,2.56-0.131c0.315-0.008,0.63,0.041,0.929,0.143
		c0,0.107-1.333,0-3.417,0.428c-5.517,1.029-10.097,4.861-12.084,10.107C356.323,465.888,356.18,467.21,356.061,467.199z"/>
	<path fill="#263238" d="M333.202,482.009c-0.266,0.49-0.568,0.961-0.905,1.404c-0.875,1.24-1.817,2.434-2.821,3.572
		c-1.483,1.715-3.073,3.334-4.763,4.846c-2.062,1.852-4.25,3.559-6.548,5.107c-2.309,1.531-4.719,2.904-7.215,4.107
		c-2.04,0.975-4.14,1.816-6.286,2.523c-1.441,0.479-2.908,0.877-4.394,1.191c-0.538,0.145-1.088,0.244-1.643,0.297
		c0.508-0.232,1.038-0.412,1.583-0.535c1.036-0.287,2.513-0.762,4.311-1.406c2.104-0.768,4.166-1.645,6.179-2.631
		c2.464-1.219,4.85-2.592,7.144-4.107c4.141-2.779,7.934-6.045,11.298-9.727c1.286-1.416,2.286-2.607,2.953-3.453
		C332.425,482.767,332.795,482.369,333.202,482.009z"/>
	<path fill="#FAFAFA" d="M350.834,454.281c-0.31-1.102-0.478-2.238-0.5-3.381c-0.182-2.758-0.042-5.525,0.417-8.25
		c0.443-2.725,1.206-5.385,2.273-7.93c0.387-1.076,0.911-2.096,1.56-3.037c-0.34,1.084-0.737,2.15-1.19,3.191
		c-1.868,5.123-2.768,10.549-2.655,16.002C350.838,452.007,350.869,453.144,350.834,454.281z"/>
	<path fill="#FAFAFA" d="M354.215,428.207c0.149,2.018-0.118,4.045-0.785,5.953C353.294,432.144,353.561,430.121,354.215,428.207z"
		/>
	<path fill="#FAFAFA" d="M355.882,428.97c0.167,0.059-0.095,1.189-0.75,2.381c-0.655,1.189-1.417,2.059-1.548,1.951
		c-0.131-0.105,0.381-1.059,1-2.238C355.203,429.886,355.728,428.91,355.882,428.97z"/>
	<path fill="#FAFAFA" d="M357.323,430.398c0.119,0.119-0.643,0.988-1.69,1.93c-1.048,0.939-1.988,1.607-2.107,1.475
		c-0.119-0.131,0.644-1,1.69-1.939C356.263,430.921,357.168,430.267,357.323,430.398z"/>
	<path fill="#FAFAFA" d="M358.12,432.433c0.06,0.156-0.846,0.619-2.024,1.025c-1.178,0.404-2.19,0.607-2.238,0.439
		c-0.047-0.166,0.846-0.619,2.036-1.023S358.073,432.267,358.12,432.433z"/>
	<path fill="#FAFAFA" d="M357.906,439.994c-1.604,0.539-3.104,1.346-4.441,2.381c-1.208,1.189-2.199,2.578-2.929,4.107
		c-0.071,0,0-0.619,0.321-1.523c0.495-1.17,1.248-2.211,2.203-3.047c0.944-0.848,2.073-1.465,3.298-1.799
		C356.853,439.927,357.389,439.886,357.906,439.994z"/>
	<path fill="#FAFAFA" d="M359.68,437.517c0.107,0.143-0.583,0.822-1.404,1.656c-0.822,0.832-1.501,1.512-1.632,1.416
		s0.321-0.988,1.19-1.857S359.549,437.386,359.68,437.517z"/>
	<path fill="#FAFAFA" d="M360.895,438.97c0,0.178-0.905,0.357-1.941,0.762c-1.035,0.404-1.845,0.893-1.952,0.762
		s0.571-0.881,1.727-1.332C359.882,438.708,360.895,438.804,360.895,438.97z"/>
	<path fill="#FAFAFA" d="M361.109,441.398c0,0.168-0.905,0-1.917-0.262s-1.785-0.678-1.738-0.844c0.048-0.168,0.905,0,1.917,0.262
		S361.168,441.185,361.109,441.398z"/>
	<path fill="#FAFAFA" d="M358.894,442.613c-0.143,0.096-0.654-0.451-1.19-1.189c-0.535-0.738-0.773-1.465-0.631-1.561
		s0.655,0.465,1.19,1.191C358.799,441.781,359.037,442.517,358.894,442.613z"/>
	<path fill="#FAFAFA" d="M285.556,469.294c1.091,0.348,2.131,0.836,3.096,1.451c2.396,1.371,4.624,3.012,6.644,4.895
		c2.019,1.885,3.816,3.992,5.356,6.285c0.682,0.922,1.241,1.926,1.667,2.988c-0.724-0.875-1.399-1.789-2.023-2.738
		c-3.261-4.383-7.296-8.131-11.905-11.061C287.41,470.564,286.464,469.957,285.556,469.294z"/>
	<path fill="#FAFAFA" d="M305.366,486.498c-0.935-0.41-1.777-1.006-2.477-1.75c-1.262-1.096-2.19-2.084-2.071-2.215
		s1.19,0.654,2.477,1.75S305.474,486.425,305.366,486.498z"/>
	<path fill="#FAFAFA" d="M303.807,487.462c-0.143,0.094-0.917-0.727-1.571-1.941c-0.655-1.215-0.929-2.322-0.774-2.381
		c0.155-0.061,0.679,0.904,1.322,2.084C303.426,486.402,303.949,487.355,303.807,487.462z"/>
	<path fill="#FAFAFA" d="M301.83,487.867c-0.178,0-0.476-1.084-0.679-2.477c-0.227-0.84-0.251-1.721-0.071-2.572
		C301.73,484.417,301.988,486.148,301.83,487.867z"/>
	<path fill="#FAFAFA" d="M299.688,487.414c-0.167,0,0-1.059,0.262-2.262s0.702-2.154,0.869-2.107c0.167,0.049,0,1.049-0.262,2.262
		C300.295,486.521,299.855,487.462,299.688,487.414z"/>
	<path fill="#FAFAFA" d="M293.521,483.056c1.076-3.279,0.58-6.873-1.346-9.738c0,0,0.536,0.322,1.084,1.119
		c1.434,2.133,1.803,4.809,1,7.25C293.949,482.605,293.58,483.093,293.521,483.056z"/>
	<path fill="#FAFAFA" d="M294.58,485.89c-0.167,0-0.357-0.928-0.596-2.072c-0.237-1.143-0.44-2.094-0.273-2.154
		c0.167-0.059,0.643,0.822,0.881,2.023C294.83,484.89,294.747,485.89,294.58,485.89z"/>
	<path fill="#FAFAFA" d="M292.711,486.105c-0.154-0.084,0.202-0.953,0.429-2.049s0.273-2.023,0.452-2.035s0.417,0.965,0.155,2.166
		C293.485,485.39,292.878,486.201,292.711,486.105z"/>
	<path fill="#FAFAFA" d="M290.556,484.949c-0.106-0.131,0.465-0.785,1.274-1.463c0.81-0.68,1.56-1.107,1.679-0.977
		s-0.465,0.785-1.274,1.453C291.425,484.628,290.675,485.082,290.556,484.949z"/>
	<path fill="#FAFAFA" d="M290.771,482.425c0-0.166,0.738-0.297,1.654-0.285c0.917,0.012,1.644,0.166,1.632,0.334
		c-0.013,0.166-0.738,0.297-1.644,0.285C291.509,482.748,290.771,482.593,290.771,482.425z"/>
	<path fill="#FAFAFA" d="M317.498,451.447c0.171,1.125,0.278,2.258,0.321,3.395c0.254,2.705,0.752,5.383,1.488,8
		c0.752,2.617,1.732,5.162,2.929,7.607c0.558,0.984,1.062,1.998,1.513,3.035c-0.756-0.855-1.393-1.809-1.894-2.832
		c-2.677-4.854-4.208-10.252-4.477-15.787C317.275,453.724,317.315,452.576,317.498,451.447z"/>
	<path fill="#FAFAFA" d="M323.832,476.902c-0.534-0.873-0.883-1.846-1.023-2.857c-0.346-0.961-0.491-1.982-0.429-3
		c0.525,0.875,0.873,1.846,1.023,2.857C323.747,474.863,323.894,475.882,323.832,476.902z"/>
	<path fill="#FAFAFA" d="M325.332,475.972c-0.154,0.084-0.762-0.82-1.523-1.928c-0.763-1.107-1.369-2-1.191-2.119
		c0.179-0.119,0.977,0.631,1.751,1.773C325.142,474.841,325.488,475.902,325.332,475.972z"/>
	<path fill="#FAFAFA" d="M326.607,474.402c-0.096,0.143-1.107-0.406-2.251-1.191c-1.143-0.785-2-1.596-1.904-1.738
		c0.095-0.143,1.119,0.418,2.262,1.191S326.701,474.259,326.607,474.402z"/>
	<path fill="#FAFAFA" d="M327.178,472.294c0,0.166-1.06,0.082-2.274-0.191c-1.214-0.273-2.179-0.631-2.131-0.797
		c0.048-0.168,1.048-0.084,2.262,0.189C326.249,471.771,327.213,472.14,327.178,472.294z"/>
	<path fill="#FAFAFA" d="M326.118,464.818c-0.51,0.148-1.051,0.148-1.56,0c-1.253-0.197-2.443-0.684-3.477-1.418
		c-1.043-0.725-1.906-1.676-2.524-2.785c-0.452-0.857-0.56-1.453-0.488-1.477c1.659,3.031,4.634,5.115,8.049,5.643V464.818z"/>
	<path fill="#FAFAFA" d="M328.154,467.056c-0.083,0.143-1.012-0.227-1.964-1c-0.952-0.775-1.524-1.596-1.405-1.703
		s0.881,0.488,1.786,1.191C327.476,466.246,328.238,466.9,328.154,467.056z"/>
	<path fill="#FAFAFA" d="M329.201,465.484c0,0.166-0.988,0.369-2.179,0s-1.964-0.988-1.857-1.131
		c0.107-0.143,0.929,0.25,2.013,0.535C328.261,465.175,329.19,465.306,329.201,465.484z"/>
	<path fill="#FAFAFA" d="M329.142,463.042c0.071,0.156-0.666,0.619-1.631,1.037c-0.964,0.416-1.81,0.631-1.881,0.477
		c-0.071-0.156,0.667-0.633,1.643-1.049C328.249,463.091,329.082,462.888,329.142,463.042z"/>
	<path fill="#FAFAFA" d="M326.809,462.08c0.154,0.082,0,0.797-0.453,1.619c-0.452,0.82-0.856,1.416-1,1.332
		c-0.143-0.082,0-0.797,0.441-1.607C326.238,462.615,326.654,462.007,326.809,462.08z"/>
	<path fill="#FAFAFA" d="M315.26,469.615c0.806-1.449,1.49-2.963,2.048-4.523c0.356-1.617,0.575-3.264,0.655-4.918
		c0.536,1.656,0.516,3.441-0.06,5.084C317.517,466.958,316.589,468.488,315.26,469.615z"/>
	<path fill="#FAFAFA" d="M316.915,473.568c-0.167,0-0.596-0.953-0.834-2.273c-0.228-0.777-0.228-1.604,0-2.381
		c0.167,0,0.382,1.035,0.607,2.32C316.915,472.521,317.081,473.521,316.915,473.568z"/>
	<path fill="#FAFAFA" d="M313.533,472.949c-0.143-0.096,0.298-1,0.857-2.084c0.56-1.082,1.071-1.965,1.19-1.904
		c0.119,0.059-0.083,1.072-0.666,2.191C314.331,472.271,313.677,473.044,313.533,472.949z"/>
	<path fill="#FAFAFA" d="M311.403,469.853c0-0.178,0.881-0.32,1.917-0.631c1.036-0.309,1.881-0.643,1.965-0.488
		c0.083,0.154-0.655,0.762-1.786,1.084C312.367,470.138,311.391,470.019,311.403,469.853z"/>
	<path fill="#FAFAFA" d="M312.593,466.949c0.131-0.131,0.75,0.346,1.619,0.631s1.644,0.334,1.667,0.512s-0.833,0.441-1.869,0.084
		S312.462,467.044,312.593,466.949z"/>
	<path fill="#FAFAFA" d="M301.819,466.007c-0.393-1.066-0.722-2.156-0.988-3.262c-0.797-2.602-1.825-5.129-3.071-7.549
		c-1.255-2.408-2.725-4.701-4.393-6.846c-0.747-0.857-1.447-1.756-2.096-2.689c0.894,0.688,1.694,1.486,2.381,2.381
		c3.608,4.211,6.196,9.197,7.56,14.572C301.563,463.714,301.767,464.855,301.819,466.007z"/>
	<path fill="#FAFAFA" d="M290.569,442.304c1.236,1.611,2.121,3.465,2.595,5.439c-0.694-0.744-1.229-1.623-1.571-2.582
		C291.061,444.289,290.712,443.316,290.569,442.304z"/>
	<path fill="#FAFAFA" d="M289.223,443.566c0.143-0.107,0.917,0.666,1.881,1.596c0.965,0.928,1.75,1.678,1.644,1.82
		c-0.107,0.145-1.084-0.416-2.072-1.381C289.687,444.638,289.092,443.65,289.223,443.566z"/>
	<path fill="#FAFAFA" d="M288.294,445.339c0.865,0.053,1.706,0.311,2.452,0.75c1.286,0.572,2.274,1.191,2.215,1.322
		c-0.869-0.053-1.713-0.311-2.465-0.75C289.211,446.089,288.223,445.494,288.294,445.339z"/>
	<path fill="#FAFAFA" d="M288.115,447.531c0-0.18,1.012-0.299,2.263-0.273c1.25,0.023,2.25,0.178,2.25,0.344
		c0,0.168-1.013,0.299-2.263,0.275C289.115,447.851,288.115,447.697,288.115,447.531z"/>
	<path fill="#FAFAFA" d="M290.699,454.638c0.459-0.262,0.984-0.385,1.512-0.357c2.568-0.1,5.044,0.975,6.727,2.916
		c0.619,0.75,0.845,1.311,0.773,1.346c-1.167-1.225-2.536-2.238-4.048-3C294.075,454.951,292.395,454.644,290.699,454.638z"/>
	<path fill="#FAFAFA" d="M288.246,452.853c0-0.168,1.048,0,2.132,0.582c1.083,0.584,1.81,1.191,1.714,1.393
		c-0.095,0.203-0.952-0.309-2-0.844C289.044,453.447,288.199,453.019,288.246,452.853z"/>
	<path fill="#FAFAFA" d="M287.544,454.603c0-0.168,0.893-0.572,2.119-0.488c1.227,0.082,2.119,0.582,2.048,0.725
		c-0.071,0.145-0.965,0-2.084-0.105C288.508,454.626,287.592,454.769,287.544,454.603z"/>
	<path fill="#FAFAFA" d="M288.115,456.984c-0.095-0.143,0.536-0.75,1.394-1.346c0.856-0.596,1.654-0.977,1.75-0.834
		c0.095,0.143-0.524,0.738-1.394,1.334S288.187,457.115,288.115,456.984z"/>
	<path fill="#FAFAFA" d="M290.569,457.447c-0.167,0-0.107-0.785,0.119-1.666c0.226-0.881,0.547-1.559,0.714-1.512
		s0.119,0.785-0.119,1.666S290.735,457.496,290.569,457.447z"/>
	<path fill="#FAFAFA" d="M300.378,447.769c-0.511,1.574-0.881,3.191-1.107,4.834c-0.024,1.652,0.091,3.305,0.346,4.939
		C298.045,454.394,298.338,450.636,300.378,447.769z"/>
	<path fill="#FAFAFA" d="M297.961,444.208c0.143-0.07,0.774,0.822,1.262,2.072c0.393,0.729,0.563,1.557,0.488,2.381
		c-0.166,0-0.583-0.941-1.06-2.154C298.176,445.292,297.807,444.292,297.961,444.208z"/>
	<path fill="#FAFAFA" d="M301.39,444.15c0.167,0.059-0.083,1.035-0.429,2.213c-0.345,1.18-0.643,2.133-0.81,2.107
		c-0.166-0.023-0.131-1.059,0.215-2.273C300.711,444.982,301.211,444.078,301.39,444.15z"/>
	<path fill="#FAFAFA" d="M304.105,446.757c0,0.166-0.798,0.486-1.762,1c-0.965,0.512-1.703,1-1.822,0.869s0.488-0.883,1.536-1.418
		S304.081,446.589,304.105,446.757z"/>
	<path fill="#FAFAFA" d="M303.509,449.839c-0.095,0.143-0.798-0.189-1.714-0.297c-0.917-0.107-1.667,0-1.727-0.166
		c-0.06-0.168,0.727-0.596,1.81-0.453C302.962,449.066,303.593,449.72,303.509,449.839z"/>
	<path fill="#FAFAFA" d="M304.283,530.298c-0.394-1.063-0.724-2.148-0.988-3.25c-0.795-2.604-1.823-5.131-3.071-7.549
		c-1.253-2.414-2.723-4.711-4.394-6.857c-0.747-0.857-1.446-1.756-2.096-2.691c0.895,0.688,1.694,1.488,2.382,2.381
		c3.621,4.207,6.221,9.195,7.596,14.574C304.051,528.005,304.242,529.146,304.283,530.298z"/>
	<path fill="#FAFAFA" d="M293.032,506.593c0.693,0.75,1.231,1.627,1.584,2.584c0.524,0.875,0.869,1.848,1.012,2.857
		c-0.694-0.744-1.229-1.623-1.571-2.584C293.525,508.578,293.177,507.607,293.032,506.593z"/>
	<path fill="#FAFAFA" d="M291.688,507.857c0.143-0.119,0.916,0.654,1.881,1.582c0.964,0.93,1.75,1.68,1.643,1.822
		s-1.083-0.416-2.071-1.381S291.556,507.939,291.688,507.857z"/>
	<path fill="#FAFAFA" d="M290.759,509.63c0.865,0.061,1.704,0.322,2.452,0.762c1.286,0.572,2.274,1.189,2.215,1.309
		c-0.869-0.053-1.714-0.309-2.465-0.75C291.688,510.38,290.688,509.796,290.759,509.63z"/>
	<path fill="#FAFAFA" d="M290.628,511.82c0-0.178,1.012-0.297,2.262-0.273s2.25,0.18,2.25,0.357s-1.012,0.285-2.262,0.262
		S290.615,511.988,290.628,511.82z"/>
	<path fill="#FAFAFA" d="M293.163,518.927c0.462-0.252,0.986-0.371,1.513-0.344c1.267-0.063,2.531,0.174,3.69,0.689
		c1.168,0.502,2.207,1.264,3.036,2.227c0.618,0.738,0.845,1.299,0.773,1.334c-1.175-1.217-2.543-2.23-4.048-3
		C296.536,519.255,294.858,518.949,293.163,518.927z"/>
	<path fill="#FAFAFA" d="M290.711,517.142c0-0.166,1.048,0,2.131,0.584c1.084,0.584,1.81,1.262,1.715,1.393
		c-0.096,0.131-0.953-0.309-2-0.846C291.509,517.738,290.663,517.308,290.711,517.142z"/>
	<path fill="#FAFAFA" d="M290.009,518.892c0-0.154,0.893-0.559,2.119-0.488c1.226,0.072,2.119,0.584,2.048,0.738
		c-0.072,0.154-0.965-0.059-2.084-0.119C290.973,518.964,290.056,519.06,290.009,518.892z"/>
	<path fill="#FAFAFA" d="M290.496,521.273c-0.095-0.143,0.536-0.75,1.394-1.344c0.857-0.596,1.654-0.977,1.75-0.834
		c0.095,0.143-0.523,0.738-1.393,1.346S290.652,521.417,290.496,521.273z"/>
	<path fill="#FAFAFA" d="M293.032,521.738c-0.166,0-0.107-0.785,0.119-1.666s0.548-1.549,0.715-1.512
		c0.166,0.035,0.119,0.797-0.119,1.666S293.199,521.785,293.032,521.738z"/>
	<path fill="#FAFAFA" d="M302.843,512.058c-1.217,3.111-1.482,6.514-0.763,9.775C300.509,518.685,300.803,514.925,302.843,512.058z"
		/>
	<path fill="#FAFAFA" d="M300.426,508.5c0.143-0.072,0.773,0.82,1.262,2.07c0.393,0.729,0.563,1.557,0.488,2.381
		c-0.167,0-0.583-0.939-1.06-2.154S300.271,508.582,300.426,508.5z"/>
	<path fill="#FAFAFA" d="M303.855,508.439c0.167,0.072-0.083,1.037-0.429,2.215s-0.643,2.143-0.81,2.107s-0.131-1.061,0.214-2.273
		C303.176,509.273,303.699,508.38,303.855,508.439z"/>
	<path fill="#FAFAFA" d="M306.569,511.046c0,0.18-0.797,0.488-1.762,1c-0.964,0.512-1.702,1-1.821,0.869s0.488-0.881,1.536-1.416
		C305.569,510.962,306.545,510.88,306.569,511.046z"/>
	<path fill="#FAFAFA" d="M305.974,514.13c-0.096,0.154-0.798-0.191-1.715-0.297c-0.916-0.107-1.666,0-1.726-0.168
		c-0.06-0.166,0.726-0.596,1.81-0.451C305.426,513.357,306.093,514.011,305.974,514.13z"/>
	<path fill="#FAFAFA" d="M393.766,481.33c-0.504,1.578-0.87,3.195-1.096,4.834c-0.024,1.654,0.087,3.307,0.334,4.941
		c-0.858-1.512-1.193-3.266-0.953-4.988C392.073,484.375,392.676,482.689,393.766,481.33z"/>
	<path fill="#FAFAFA" d="M397.504,480.318c0,0.168-0.81,0.488-1.762,1c-0.953,0.512-1.715,1-1.834,0.869s0.5-0.881,1.548-1.416
		S397.468,480.152,397.504,480.318z"/>
	<path fill="#FAFAFA" d="M396.908,483.402c-0.106,0.154-0.81-0.191-1.714-0.297c-0.905-0.107-1.679,0-1.738-0.168
		c-0.06-0.166,0.738-0.596,1.821-0.451C396.362,482.628,397.016,483.283,396.908,483.402z"/>
	<path fill="#FAFAFA" d="M247.803,494.986c-0.992-0.541-1.954-1.137-2.881-1.785c-2.313-1.438-4.751-2.662-7.286-3.656
		c-2.535-0.98-5.153-1.732-7.822-2.25c-2.06-0.404-3.357-0.547-3.346-0.643c1.144-0.08,2.292-0.012,3.417,0.203
		c5.481,0.785,10.707,2.822,15.275,5.953C246.133,493.416,247.022,494.148,247.803,494.986z"/>
	<path fill="#FAFAFA" d="M223.718,484.593c1.019,0.09,2.005,0.398,2.894,0.904c0.974,0.311,1.877,0.813,2.654,1.477
		c-1.015-0.105-1.998-0.414-2.893-0.906C225.4,485.755,224.497,485.253,223.718,484.593z"/>
	<path fill="#FAFAFA" d="M223.528,486.425c0-0.178,1.131-0.107,2.465,0c1.333,0.107,2.381,0.107,2.44,0.287
		c-0.773,0.357-1.636,0.473-2.477,0.332C225.104,487.085,224.258,486.869,223.528,486.425z"/>
	<path fill="#FAFAFA" d="M224.016,488.378c0-0.166,1-0.643,2.381-1.061c0.793-0.35,1.658-0.51,2.524-0.463
		c0,0.166-1,0.643-2.381,1.059C225.744,488.259,224.881,488.417,224.016,488.378z"/>
	<path fill="#FAFAFA" d="M225.349,490.105c-0.106-0.131,0.572-0.893,1.524-1.691c0.952-0.797,1.821-1.357,1.929-1.189
		c0.107,0.166-0.571,0.893-1.524,1.689C226.325,489.712,225.468,490.236,225.349,490.105z"/>
	<path fill="#FAFAFA" d="M231.945,493.771c0,0,0.227-0.57,0.917-1.262c1.862-1.771,4.432-2.596,6.977-2.238
		c0.953,0.154,1.488,0.43,1.465,0.5C237.888,490.273,234.434,491.38,231.945,493.771z"/>
	<path fill="#FAFAFA" d="M228.933,494.046c-0.071-0.156,0.798-0.668,1.988-0.965c1.19-0.299,2.19-0.25,2.202-0.084
		c0.013,0.166-0.916,0.393-2.06,0.68C229.921,493.962,229.004,494.201,228.933,494.046z"/>
	<path fill="#FAFAFA" d="M229.552,495.832c-0.143-0.084,0.298-1.012,1.273-1.762c0.977-0.75,1.977-0.965,2.024-0.811
		s-0.762,0.607-1.643,1.299C230.325,495.248,229.695,495.951,229.552,495.832z"/>
	<path fill="#FAFAFA" d="M231.529,497.259c-0.167,0-0.096-0.904,0.166-1.928c0.263-1.023,0.596-1.822,0.763-1.773
		c0.166,0.047,0.095,0.904-0.167,1.928S231.695,497.308,231.529,497.259z"/>
	<path fill="#FAFAFA" d="M233.707,495.951c-0.144,0.084-0.607-0.512-1.013-1.334c-0.404-0.82-0.606-1.523-0.452-1.607
		c0.155-0.082,0.607,0.523,1.012,1.334C233.659,495.152,233.862,495.951,233.707,495.951z"/>
	<path fill="#FAFAFA" d="M234.696,482.224c0.667,1.521,1.464,2.982,2.381,4.369c1.09,1.26,2.285,2.428,3.571,3.488
		c-3.246-1.352-5.5-4.363-5.881-7.857H234.696z"/>
	<path fill="#FAFAFA" d="M230.54,481.152c0.06-0.154,1.119,0.107,2.31,0.715s2.024,1.332,1.929,1.477
		c-0.096,0.143-1.048-0.322-2.215-0.918C231.398,481.83,230.469,481.318,230.54,481.152z"/>
	<path fill="#FAFAFA" d="M268.865,460.4c-1.712,0.342-3.488,0.104-5.048-0.678c-1.646-0.57-3.05-1.678-3.988-3.145
		c1.337,0.98,2.755,1.846,4.238,2.584C265.627,459.71,267.233,460.125,268.865,460.4z"/>
	<path fill="#FAFAFA" d="M270.912,464.175c-0.144,0.105-0.869-0.691-1.727-1.668s-1.548-1.797-1.429-1.928s1.012,0.512,1.893,1.523
		C270.531,463.115,271.043,464.08,270.912,464.175z"/>
	<path fill="#FAFAFA" d="M272.543,461.162c0,0.168-1.048,0.215-2.286,0c-1.238-0.213-2.179-0.689-2.131-0.844
		c0.048-0.156,1.048,0,2.25,0.236C271.578,460.792,272.555,460.984,272.543,461.162z"/>
	<path fill="#FAFAFA" d="M271.448,457.542c0.131,0.107-0.369,0.941-1.333,1.619c-0.965,0.68-1.929,0.869-1.977,0.715
		s0.727-0.596,1.619-1.191C270.65,458.091,271.341,457.435,271.448,457.542z"/>
	<path fill="#FAFAFA" d="M268.459,456.662c0.155,0,0.44,0.846,0,1.869s-1.131,1.537-1.19,1.404c-0.06-0.131,0.357-0.75,0.655-1.619
		C268.221,457.447,268.281,456.662,268.459,456.662z"/>
	<path fill="#FAFAFA" d="M333.571,441.482c-1.711,0.328-3.483,0.09-5.048-0.678c-1.64-0.58-3.042-1.686-3.988-3.145
		c1.34,0.975,2.757,1.834,4.238,2.572C330.335,440.781,331.94,441.199,333.571,441.482z"/>
	<path fill="#FAFAFA" d="M335.618,445.257c-0.143,0.094-0.869-0.691-1.726-1.668c-0.857-0.977-1.548-1.797-1.429-1.928
		s1.012,0.512,1.893,1.512S335.738,445.162,335.618,445.257z"/>
	<path fill="#FAFAFA" d="M337.25,442.232c0,0.168-1.048,0.215-2.286,0s-2.179-0.678-2.119-0.846c0.06-0.166,1.035,0,2.238,0.238
		C336.285,441.863,337.262,442.066,337.25,442.232z"/>
	<path fill="#FAFAFA" d="M336.178,438.625c0.131,0.096-0.369,0.941-1.333,1.607c-0.965,0.666-1.929,0.881-1.977,0.715
		s0.727-0.584,1.619-1.191C335.381,439.148,336.047,438.505,336.178,438.625z"/>
	<path fill="#FAFAFA" d="M333.166,437.732c0.154,0,0.44,0.846,0.06,1.869s-1.131,1.547-1.19,1.404s0.357-0.738,0.654-1.607
		C332.988,438.529,332.988,437.755,333.166,437.732z"/>
	<path fill="#808080" d="M245.601,287.603c-2.173-5.1-5.985-9.327-10.834-12.013c-4.931-2.649-10.846-2.716-15.835-0.178
		c-4.762,2.667-7.834,8.536-6.548,13.882c-8.501,4.107-12.441,15.632-8.251,24.085c4.191,8.453,15.752,12.298,24.169,8.024
		c-4.524,5.953-0.667,15.704,6.405,18.12c7.071,2.417,15.322-1.774,18.847-8.334c3.523-6.56,2.881-14.846-0.238-21.632"/>
	<path fill="#F2B400" d="M248.827,291.424c-1.052-2.577-3.38-4.412-6.132-4.833c-2.791-0.321-5.465,1.214-6.596,3.786
		c-0.981,2.658,0.262,5.623,2.846,6.786c-3.756,1.731-5.397,6.18-3.666,9.936c1.192,2.586,3.748,4.273,6.595,4.351
		c-1.905,3.327-0.752,7.567,2.574,9.473c2.448,1.402,5.502,1.182,7.725-0.555c1.859-1.621,3.006-3.91,3.19-6.37
		c0.166-2.435,0.01-4.881-0.465-7.274c-0.556-3.651-1.111-7.306-1.666-10.965c-0.141-1.62-0.606-3.195-1.369-4.631
		c-0.807-1.457-2.421-2.273-4.072-2.06"/>
	<path fill="#808080" d="M337.369,261.41c2.619-4.691,0.987-10.989-2.905-14.704c-3.894-3.714-9.524-5.131-14.918-4.977
		s-10.596,1.714-15.751,3.274c-5.774-7.521-16.552-8.937-24.072-3.162c-2.916,2.239-5.036,5.354-6.049,8.889
		c-5.601-2.214-11.937,0.531-14.151,6.132c-0.809,2.044-0.98,4.285-0.492,6.429l22.787,11.453l20.18,49.206
		c7.776,8.624,21.071,9.311,29.694,1.535c7.121-6.421,8.996-16.846,4.559-25.346c1.631-1.109,3.067-2.481,4.25-4.06
		c4.528-1.945,8.088-5.625,9.882-10.215C353.942,276.137,347.477,263.97,337.369,261.41z"/>
	<path fill="#FFBE9D" d="M309.283,355.024c-0.523-7.655-0.904-12.894-0.893-12.846c0.012,0.047,14.774-3.667,16.334-23.454
		c0.774-9.834-0.976-25.728-2.821-38.682c-1.667-11.667-10.572-25.43-22.156-23.275l-35.717,12.108
		c-3.571,0.655-4.524,3.75-4.167,7.31l-0.167,1.691l6.132,55.825l2.381,24.907c1.121,10.611,10.154,18.612,20.823,18.442l0,0
		c11.387-0.177,20.474-9.552,20.297-20.939C309.323,355.748,309.308,355.385,309.283,355.024z"/>
	<path fill="#263238" d="M316.57,294.96c0.125,1.357-0.859,2.564-2.214,2.714c-1.297,0.221-2.526-0.651-2.748-1.947
		c-0.005-0.033-0.01-0.067-0.015-0.101c-0.112-1.355,0.865-2.559,2.215-2.726c1.296-0.22,2.525,0.652,2.746,1.949
		C316.56,294.886,316.566,294.923,316.57,294.96z"/>
	<path fill="#263238" d="M318.629,290.579c-0.285,0.357-2.298-0.905-4.988-0.679s-4.571,1.727-4.893,1.417
		c-0.322-0.31,0.118-0.75,0.928-1.441c1.104-0.901,2.46-1.442,3.882-1.547c1.4-0.115,2.802,0.218,4,0.953
		C318.439,289.853,318.773,290.424,318.629,290.579z"/>
	<path fill="#263238" d="M291.188,296.52c0.118,1.357-0.861,2.564-2.215,2.727c-1.297,0.22-2.526-0.653-2.746-1.949
		c-0.006-0.037-0.012-0.074-0.016-0.11c-0.126-1.357,0.859-2.564,2.214-2.715c1.297-0.221,2.526,0.651,2.747,1.947
		C291.178,296.453,291.183,296.486,291.188,296.52z"/>
	<path fill="#263238" d="M292.878,292.103c-0.286,0.357-2.298-0.905-5.001-0.679c-2.702,0.227-4.56,1.727-4.881,1.417
		s0.119-0.75,0.929-1.453c1.105-0.897,2.461-1.433,3.881-1.536c1.401-0.115,2.802,0.218,4,0.952
		C292.652,291.376,292.985,291.948,292.878,292.103z"/>
	<path fill="#263238" d="M303.997,310.425c1.384-0.581,2.836-0.981,4.322-1.19c0.679-0.119,1.321-0.31,1.404-0.786
		c0.001-0.718-0.215-1.419-0.619-2.012c-0.785-1.607-1.595-3.31-2.452-5.083c-3.417-7.239-5.953-13.215-5.667-13.347
		c0.285-0.131,3.31,5.62,6.727,12.87l2.381,5.12c0.495,0.795,0.697,1.738,0.571,2.667c-0.16,0.512-0.554,0.918-1.06,1.096
		c-0.382,0.144-0.783,0.232-1.19,0.262C306.965,310.338,305.481,310.475,303.997,310.425z"/>
	<path fill="#EB996E" d="M308.355,342.178c-9.188,0.872-18.437-0.826-26.716-4.905c0,0,7.691,13.275,27.097,9.894L308.355,342.178z"
		/>
	<path fill="#808080" d="M293.819,288.424c-0.274,0.738-2.977,0.369-6.144,0.726c-3.167,0.357-5.75,1.191-6.167,0.548
		c-0.19-0.31,0.262-1,1.298-1.703c2.808-1.758,6.271-2.119,9.382-0.976C293.354,287.495,293.938,288.079,293.819,288.424z"/>
	<path fill="#808080" d="M318.117,285.292c-0.512,0.655-2.762,0.203-5.405,0.381c-2.643,0.178-4.846,0.797-5.405,0.19
		c-0.25-0.286,0-0.929,0.977-1.583c1.292-0.833,2.785-1.302,4.322-1.357c1.521-0.111,3.046,0.198,4.404,0.893
		C317.987,284.376,318.344,284.983,318.117,285.292z"/>
	<path fill="#808080" d="M273.901,257.279c0.536,7.384,6.957,12.936,14.341,12.399c0.83-0.06,1.653-0.198,2.458-0.411
		c2.94-0.774,6.096-2.536,8.798-1.19s3.273,5.56,5.846,7.465c3.679,2.727,8.94-0.5,13.417,0.464
		c3.453,0.738,5.811,3.798,8.263,6.346c2.453,2.548,6.013,4.869,9.311,3.572c-0.333-3.037-1.017-6.025-2.036-8.906
		c-1.029-2.906-3.037-5.363-5.679-6.953c-1.465-0.81-3.131-1.19-4.513-2.179c-2.976-2.048-3.929-5.953-5.952-8.965
		c-2.624-3.946-6.991-6.385-11.728-6.548c-3.881-0.095-7.75,1.357-11.572,0.703c-2.821-0.488-5.381-2.096-8.227-2.381
		c-5.548-0.619-10.322,3.703-13.989,7.905"/>
	<path fill="#808080" d="M291.997,263.72c-2.513-0.512-7.644-1.714-9.12-3.738c-3.215-4.394-8.488-7.144-13.608-6.489
		c-5.432,0.851-9.654,5.18-10.369,10.632c-6.489,0.735-12.06,4.954-14.525,11c-2.495,6.327-1.721,13.476,2.071,19.121
		c0.896,1.468,1.692,2.996,2.382,4.572c-1.393,1.328-2.652,2.787-3.763,4.357c-5.179,8.417,5.334,13.251,5.334,13.251
		c-0.738,5.953,4.763,6.691,8.334,7.144c3.571,0.452,4.298,10.155,7.144,10.144l0.952-29.609c0.394,0.209,0.82,0.346,1.262,0.405
		c6.68,0.976,6.561-11.906,4.763-15.477c2.322-2.218,4.358-4.718,6.06-7.441c1.607-2.81,2.644-10.239,2-13.501
		C283.27,268.042,293.092,263.946,291.997,263.72z"/>
	<path fill="#FFBE9D" d="M267.555,305.771c-0.354-3.137-3.182-5.393-6.318-5.04c-0.852,0.096-1.671,0.382-2.396,0.837
		c-1.882,1.286-3.227,3.703-2.703,8.108c1.394,11.739,12.882,7.917,12.87,7.584S268.174,310.616,267.555,305.771z"/>
	<path fill="#EB996E" d="M264.888,313.235c0,0-0.179,0.167-0.512,0.369c-0.462,0.265-1.01,0.338-1.524,0.203
		c-1.298-0.298-2.571-2.143-2.881-4.25c-0.146-1.004-0.069-2.029,0.226-3c0.138-0.771,0.646-1.426,1.357-1.75
		c0.47-0.181,1.003-0.007,1.274,0.417c0.19,0.31,0.143,0.548,0.214,0.56s0.227-0.227,0.071-0.69
		c-0.099-0.283-0.292-0.522-0.547-0.679c-0.356-0.221-0.788-0.281-1.191-0.167c-0.955,0.311-1.681,1.095-1.916,2.072
		c-0.382,1.072-0.492,2.221-0.322,3.345c0.357,2.381,1.822,4.429,3.572,4.763c0.659,0.112,1.333-0.08,1.833-0.524
		C264.9,313.521,264.936,313.247,264.888,313.235z"/>
	<path fill="#4D4D4D" d="M330.571,297.722c-0.06-0.095,1.131-0.655,2.81-2.238c2.335-2.268,3.964-5.162,4.691-8.334
		c0.519-2.173,0.588-4.43,0.202-6.631c-0.437-2.514-1.553-4.86-3.227-6.786c-3.957-4.452-9.989-6.453-15.822-5.25
		c-0.56,0.107-1.084,0.31-1.619,0.452c-0.536,0.143-1,0.417-1.488,0.607l-0.75,0.297l0.095-0.773
		c0.152-1.37-0.185-2.749-0.952-3.894c-0.772-1.125-1.785-2.064-2.964-2.75c-2.273-1.309-4.908-1.848-7.513-1.536
		c-5.013,0.488-9.43,2.179-13.394,2.131c-3.123,0.13-6.183-0.905-8.584-2.905c-0.61-0.572-1.117-1.245-1.5-1.988
		c-0.135-0.255-0.235-0.528-0.298-0.81c0.541,0.944,1.224,1.799,2.023,2.536c2.389,1.809,5.344,2.708,8.334,2.536
		c2.079-0.107,4.142-0.426,6.155-0.953c2.348-0.618,4.734-1.075,7.144-1.369c1.348-0.142,2.709-0.105,4.048,0.107
		c1.403,0.262,2.753,0.761,3.988,1.476c1.307,0.746,2.427,1.781,3.274,3.024c0.895,1.324,1.287,2.924,1.106,4.513l-0.666-0.477
		c0.512-0.214,1.048-0.452,1.595-0.655c0.548-0.203,1.119-0.369,1.715-0.476c6.158-1.271,12.524,0.866,16.668,5.596
		c1.747,2.058,2.903,4.551,3.346,7.215c0.37,2.304,0.257,4.659-0.334,6.917c-0.793,3.277-2.562,6.237-5.071,8.489
		c-0.674,0.604-1.412,1.131-2.203,1.571C330.88,297.615,330.595,297.758,330.571,297.722z"/>
	<path fill="#4D4D4D" d="M333.357,257.505c-1.068-0.749-2.244-1.332-3.488-1.726c-1.438-0.387-2.943-0.444-4.405-0.167
		c-1.883,0.333-3.603,1.279-4.893,2.691l-0.513,0.56l-0.179-0.738c-1.311-4.658-5.034-8.245-9.738-9.382
		c-3.821-0.952-7.584,0.346-10.715,1.655c-2.803,1.357-5.734,2.43-8.751,3.203c-2.077,0.494-4.244,0.469-6.31-0.072
		c-0.555-0.162-1.09-0.386-1.596-0.667c-0.333-0.203-0.5-0.322-0.488-0.345c0.013-0.024,0.763,0.333,2.167,0.655
		c2.019,0.388,4.099,0.315,6.084-0.214c2.949-0.853,5.814-1.973,8.56-3.346c1.693-0.758,3.456-1.352,5.263-1.774
		c1.982-0.452,4.042-0.452,6.024,0c5.034,1.208,8.996,5.088,10.311,10.096l-0.691-0.167c1.428-1.511,3.324-2.497,5.382-2.797
		c1.555-0.247,3.146-0.121,4.644,0.369c0.954,0.307,1.846,0.782,2.631,1.405C333.19,257.207,333.416,257.481,333.357,257.505z"/>
	<path fill="#EA6872" d="M302.319,316.176c-0.761-0.845-1.852-1.318-2.988-1.298c-1.292,0.112-2.477,0.765-3.262,1.798l0,0
		l-0.119,0.131l0,0c-0.307,0.36-0.483,0.813-0.5,1.286c0.042,1.078,0.617,2.064,1.536,2.631c1.441,0.993,3.355,0.959,4.762-0.083
		C303.06,319.522,303.308,317.589,302.319,316.176z"/>
	<path fill="#263238" d="M295.33,313.926c0.155,0,0.393,0.571,0.977,1.393c0.738,1.063,1.768,1.889,2.964,2.381
		c1.204,0.444,2.511,0.531,3.763,0.25c0.988-0.203,1.571-0.512,1.654-0.369c0.084,0.143-0.381,0.643-1.429,1.083
		c-2.911,1.146-6.214-0.134-7.596-2.941C295.188,314.664,295.259,313.949,295.33,313.926z"/>
	<path fill="#F2B400" d="M266.161,318.664c0.096,0,0.394,0.952-0.44,2.203c-0.496,0.732-1.247,1.254-2.107,1.464
		c-1.999,0.395-3.94-0.907-4.335-2.906c-0.044-0.219-0.066-0.442-0.069-0.666c0.047-0.893,0.415-1.738,1.035-2.381
		c1.071-1.06,2.107-0.952,2.084-0.857c-0.024,0.095-0.834,0.31-1.584,1.286c-0.428,0.553-0.665,1.229-0.679,1.929
		c0.028,0.836,0.425,1.616,1.084,2.131c0.625,0.55,1.464,0.791,2.286,0.655c0.684-0.146,1.305-0.504,1.773-1.024
		C266.019,319.533,266.007,318.652,266.161,318.664z"/>
	<path fill="#4D4D4D" d="M250.089,281.566c-0.188-0.112-0.364-0.244-0.523-0.393c-0.468-0.401-0.905-0.834-1.31-1.298
		c-1.556-1.705-2.649-3.778-3.18-6.024c-0.356-1.567-0.356-3.195,0-4.763c0.404-1.803,1.313-3.455,2.62-4.762
		c1.485-1.467,3.495-2.281,5.583-2.262c2.266-0.038,4.419,0.983,5.822,2.762l-0.536,0.286v-0.131
		c-1.52-3.985-1.404-8.41,0.321-12.31c1.47-3.207,4.438-5.474,7.918-6.048c2.333-0.294,4.686,0.367,6.524,1.833
		c0.482,0.399,0.907,0.864,1.262,1.381c0.125,0.179,0.233,0.371,0.321,0.571c-0.515-0.648-1.098-1.239-1.738-1.762
		c-1.817-1.337-4.087-1.91-6.322-1.595c-3.291,0.628-6.071,2.817-7.452,5.87c-1.635,3.784-1.72,8.059-0.238,11.905v0.119
		l0.595,1.822l-1.19-1.536c-1.29-1.614-3.255-2.542-5.321-2.512c-1.934-0.028-3.798,0.718-5.18,2.071
		c-1.254,1.228-2.131,2.79-2.523,4.5c-0.359,1.492-0.388,3.044-0.083,4.548c0.499,2.188,1.506,4.227,2.94,5.953
		C249.447,280.947,250.125,281.519,250.089,281.566z"/>
	<path fill="#4D4D4D" d="M230.612,320.045c0,0-0.107,0.06-0.31,0.143l-0.964,0.345c-0.834,0.286-2.084,0.726-3.703,1.19
		c-1.955,0.611-3.942,1.112-5.953,1.5c-2.701,0.523-5.464,0.652-8.202,0.381c-3.354-0.345-6.557-1.578-9.275-3.572
		c-3.099-2.382-5.114-5.907-5.595-9.787c-0.536-4.24,0.142-8.546,1.952-12.417c0.906-2.083,2.26-3.94,3.965-5.441
		c1.788-1.534,4.061-2.386,6.417-2.405c1.715-0.029,3.392,0.516,4.762,1.548l-0.416,0.452c-1.49-1.625-2.558-3.592-3.107-5.727
		c-0.51-2.061-0.595-4.203-0.25-6.298c0.61-3.997,2.908-7.54,6.31-9.727c3.06-1.912,6.655-2.784,10.251-2.488
		c3.11,0.241,6.082,1.387,8.548,3.298c1.996,1.574,3.639,3.549,4.822,5.798c0.887,1.688,1.521,3.497,1.881,5.369
		c0.223,1.177,0.326,2.374,0.31,3.572c0,0.381,0,0.69-0.06,0.929c0.016,0.106,0.016,0.215,0,0.321
		c0.018-1.598-0.13-3.194-0.44-4.762c-0.392-1.834-1.046-3.603-1.94-5.25c-1.181-2.187-2.803-4.104-4.763-5.631
		c-2.415-1.831-5.311-2.918-8.334-3.131c-3.479-0.27-6.953,0.59-9.905,2.452c-3.25,2.118-5.441,5.522-6.024,9.358
		c-0.317,2.013-0.228,4.07,0.262,6.048c0.534,2.027,1.547,3.897,2.953,5.453l-0.405,0.464c-1.261-0.94-2.796-1.438-4.369-1.417
		c-2.232,0.02-4.385,0.835-6.072,2.298c-1.632,1.442-2.932,3.222-3.81,5.215c-1.793,3.763-2.49,7.955-2.012,12.096
		c0.44,3.744,2.367,7.154,5.346,9.465c2.643,1.939,5.753,3.144,9.013,3.488c2.694,0.298,5.417,0.202,8.084-0.286
		c2.008-0.356,3.995-0.821,5.952-1.393l3.738-1.107l0.977-0.286C230.361,320.063,230.486,320.042,230.612,320.045z"/>
	<path fill="#4D4D4D" d="M248.506,338.796c-0.434,0.337-0.9,0.628-1.394,0.869c-1.311,0.732-2.676,1.361-4.083,1.881
		c-2.099,0.814-4.334,1.218-6.584,1.191c-2.801-0.06-5.49-1.105-7.596-2.953c-1.071-0.981-1.888-2.207-2.382-3.572
		c-0.452-1.26-0.682-2.59-0.678-3.929c0.021-2.248,0.485-4.469,1.369-6.536c0.573-1.386,1.233-2.734,1.976-4.036
		c0.237-0.493,0.524-0.96,0.857-1.393c-0.164,0.52-0.38,1.022-0.643,1.5c-0.453,0.964-1.19,2.381-1.774,4.083
		c-0.798,2.028-1.202,4.19-1.19,6.37c-0.069,2.68,0.979,5.267,2.894,7.144c2.004,1.744,4.547,2.745,7.202,2.833
		c2.18,0.041,4.347-0.323,6.394-1.071C246.446,339.892,248.447,338.666,248.506,338.796z"/>
	<path fill="#4D4D4D" d="M254.78,346.392c0.54-0.091,1.055-0.294,1.513-0.595c1.175-0.916,1.788-2.377,1.619-3.857
		c-0.067-0.994-0.563-1.911-1.357-2.512c-0.884-0.683-2.117-0.683-3,0c-0.429,0.393-0.678,0.943-0.69,1.524
		c-0.005,0.587,0.304,1.131,0.81,1.429c0.572,0.291,1.225,0.387,1.856,0.274c0.676-0.104,1.322-0.351,1.894-0.726
		c2.217-1.56,3.563-4.077,3.631-6.786c0.054-2.226-0.352-4.438-1.19-6.501c-0.454-1.43-1.138-2.777-2.023-3.988
		c-0.357-0.408-0.875-0.639-1.417-0.631c0,0,0.131-0.083,0.429-0.083c0.45,0.031,0.874,0.226,1.19,0.548
		c0.502,0.458,0.907,1.013,1.19,1.631c0.357,0.679,0.738,1.477,1.107,2.381c0.943,2.099,1.423,4.377,1.404,6.679
		c-0.054,1.375-0.39,2.725-0.988,3.964c-0.629,1.356-1.627,2.507-2.881,3.322c-1.276,0.933-2.957,1.101-4.393,0.44
		c-0.695-0.401-1.116-1.15-1.096-1.953c0.028-0.74,0.35-1.438,0.893-1.94c0.535-0.455,1.229-0.682,1.929-0.631
		c0.637,0.041,1.249,0.264,1.763,0.643c0.901,0.694,1.447,1.755,1.487,2.893c0.154,1.612-0.58,3.181-1.916,4.096
		c-0.358,0.232-0.767,0.375-1.19,0.417C255.161,346.473,254.963,346.46,254.78,346.392z"/>
	<path fill="#4D4D4D" d="M214.23,320.938c-0.17,0.056-0.346,0.088-0.524,0.095c-0.516,0.01-1.03-0.063-1.523-0.214
		c-1.841-0.638-3.277-2.101-3.882-3.953c-0.725-2.818,0.101-5.809,2.167-7.857c3.038-3.16,7.555-4.415,11.787-3.274l-0.369,0.393
		c-1.004-3.105-0.333-6.509,1.773-9c0.892-1.053,2.028-1.871,3.31-2.381c1.118-0.424,2.306-0.634,3.501-0.619
		c1.689,0.013,3.34,0.504,4.762,1.417c0.395,0.237,0.758,0.521,1.084,0.845c0.214,0.214,0.321,0.333,0.31,0.357
		c-0.013,0.024-0.5-0.428-1.513-1.012c-1.434-0.808-3.057-1.219-4.702-1.19c-1.136,0.012-2.259,0.238-3.31,0.667
		c-1.201,0.506-2.261,1.299-3.084,2.31c-1.941,2.355-2.547,5.538-1.607,8.441l0.179,0.547l-0.56-0.143
		c-0.748-0.199-1.514-0.323-2.286-0.369c-3.328-0.206-6.58,1.051-8.905,3.44c-1.966,1.891-2.794,4.676-2.179,7.334
		c0.551,1.757,1.862,3.173,3.572,3.857C212.877,320.83,213.551,320.935,214.23,320.938z"/>
	<path fill="#4D4D4D" d="M212.813,284.709c0.246-0.148,0.516-0.253,0.798-0.309c0.779-0.185,1.585-0.233,2.381-0.143
		c1.212,0.126,2.378,0.534,3.405,1.19c1.332,0.821,2.369,2.042,2.964,3.488l-0.512-0.083c0.977-1.054,2.291-1.732,3.715-1.917
		c2.056-0.263,4.138,0.219,5.869,1.357c1.366,0.924,2.553,2.09,3.5,3.44c0.645,0.891,1.226,1.826,1.738,2.798
		c0.217,0.339,0.381,0.708,0.488,1.096c-0.095,0.059-0.904-1.453-2.571-3.572c-0.964-1.264-2.136-2.354-3.465-3.227
		c-1.633-1.017-3.568-1.438-5.477-1.19c-1.276,0.161-2.458,0.758-3.346,1.69l-0.333,0.357l-0.167-0.452
		c-0.541-1.337-1.476-2.478-2.679-3.274c-0.953-0.65-2.039-1.081-3.179-1.262C214.905,284.552,213.851,284.556,212.813,284.709z"/>
	<path fill="#283648" d="M316.213,563.812c0,0,65.825-59.742,74.362-61.611c8.536-1.869,44.36-6.643,48.11-2.381
		s-0.155,20.752-3.405,28.752s-44.777,44.109-59.313,50.719l-37.241,19.691L316.213,563.812z"/>
	<path fill="#F2B400" d="M319.665,559.466l48.301,24.729c3.762,1.941,5.334,6.496,3.572,10.346l-25.395,56.064
		c0,0-6.453,1.797-1.096-37.742l-43.11-18.607L319.665,559.466z"/>
	<path fill="#283648" d="M334.655,566.777c0,0-71.672-44.17-80.398-50.693c-14.597-11.168-29.633-21.67-36.193-23.051
		c0,0-23.645-14.119-35.24-5.428s-13.453,17.525-13.918,24.93c-0.381,6.156,25.431,53.826,48.266,70.934
		c3.315,2.229,7.093,3.672,11.049,4.227c6.653,1.076,13.478,0,19.478-3.072l8.202-4.082c27.098,10.523,61.909,21.953,61.909,21.953
		L334.655,566.777z"/>
	<path fill="#455A64" d="M267.067,524.38l0.333,0.18l0.953,0.57l3.69,2.264l13.894,8.619l48.813,30.525l0.215,0.143l-0.107,0.227
		l-16.858,35.717l-0.119,0.238l-0.25-0.084l-17.287-5.631l-8.477-2.785l0,0c-16.524-7.061-32.609-12.68-47.026-18.193
		c-7.144-2.762-14.014-5.477-20.24-8.428c-1.547-0.715-3.048-1.5-4.5-2.275c-1.452-0.773-2.857-1.605-4.215-2.381
		c-0.686-0.391-1.35-0.82-1.988-1.285l-1.893-1.322c-0.619-0.439-1.19-0.963-1.75-1.428c-0.58-0.457-1.136-0.941-1.667-1.453
		c-3.748-3.639-7.09-7.674-9.965-12.035c-2.548-3.822-4.477-7.275-5.953-10.121c-1.476-2.846-2.595-5.084-3.333-6.607
		c-0.346-0.762-0.619-1.334-0.81-1.75s-0.263-0.596-0.263-0.596s0.119,0.191,0.31,0.572s0.5,0.977,0.869,1.715
		c0.774,1.512,1.894,3.738,3.441,6.559c1.548,2.822,3.5,6.252,6.06,10.049c2.893,4.313,6.237,8.303,9.977,11.906
		c4.191,3.988,9.822,7.072,15.942,10.023c6.119,2.953,12.965,5.621,20.239,8.334c14.418,5.477,30.514,11.084,47.063,18.145l0,0
		l8.477,2.787l17.239,5.619l-0.381,0.166l16.918-35.717l0.096,0.357l-48.777-30.693l-13.811-8.762l-3.644-2.381l-0.94-0.619
		C267.244,524.501,267.153,524.445,267.067,524.38z"/>
	<path fill="#FAFAFA" d="M354.786,631.58c-1.906-0.543-3.866-0.873-5.845-0.988c-1.981,0.084-3.946,0.393-5.858,0.916
		c1.739-1.121,3.792-1.66,5.858-1.535C351.01,629.88,353.056,630.443,354.786,631.58z"/>
	<path fill="#FAFAFA" d="M368.585,602.91c-0.424,0.029-0.849-0.008-1.262-0.107c-1.144-0.191-2.259-0.523-3.321-0.986
		c-7.444-3.113-11.42-11.27-9.287-19.051c0.285-1.123,0.709-2.207,1.263-3.225c0.18-0.389,0.412-0.748,0.69-1.072
		c-0.621,1.428-1.131,2.9-1.524,4.404c-1.815,7.533,1.978,15.295,9.036,18.49C365.607,601.992,367.079,602.509,368.585,602.91z"/>
	<path fill="#FAFAFA" d="M342.596,571.408c-0.141,0.455-0.337,0.891-0.584,1.299l-1.762,3.439
		c-1.512,2.895-3.572,6.895-5.763,11.359c-2.19,4.463-4.107,8.535-5.488,11.488l-1.596,3.5c-0.172,0.443-0.399,0.863-0.679,1.25
		c0.106-0.463,0.258-0.912,0.453-1.346c0.321-0.857,0.821-2.084,1.464-3.57c1.274-3.002,3.119-7.145,5.322-11.586
		c2.202-4.439,4.333-8.451,5.952-11.297c0.81-1.418,1.465-2.561,1.941-3.346C342.063,572.177,342.31,571.779,342.596,571.408z"/>
	<polygon fill="#283648" points="249.743,477.353 235.957,429.625 298.58,447.958 306.855,448.269 371.395,429.625 366.656,478.925 
		306.855,492.843 298.89,492.843 	"/>
	<path fill="#FAFAFA" d="M239.576,430.683c0,0,1.607-2.678,5.953-2.535c2.277,0.002,4.535,0.43,6.655,1.262l-2.072-3.453
		c10.482,1.754,20.826,4.248,30.955,7.465c14.43,4.834,22.204,10.465,21.93,14.705l-4.381-0.168L239.576,430.683z"/>
	<path fill="#455A64" d="M301.319,490.056c-0.167,0-0.31-9.404-0.31-20.988s0.143-20.99,0.31-20.99s0.31,9.395,0.31,20.99
		S301.486,490.056,301.319,490.056z"/>
	<path fill="#455A64" d="M305.736,482.687c-0.167,0-0.31-7.619-0.31-17.012c0-9.395,0.143-17.014,0.31-17.014
		s0.31,7.619,0.31,17.014C306.045,475.068,305.974,482.687,305.736,482.687z"/>
	<path fill="#FAFAFA" d="M370.729,429.814c-5.767-2.131-12.071-2.318-17.954-0.535l5.369-1.535
		c-13.411-1.209-26.909,1.023-39.217,6.488c-6.227,2.762-12.691,7.25-15.251,13.846l3.179,0.203L370.729,429.814z"/>
	<path fill="#F2B400" d="M310.248,444.351c0,0,5.821-0.582,5.952,6.156c0.107,9.773-0.893,25.68-0.893,25.68l4.369-5.262
		l2.977,2.762c0,0,0.488-9.941,0.821-18.775c0.346-9.143-1.762-13.727-5.821-13.787
		C315.073,441.921,312.589,443.003,310.248,444.351z"/>
	<path fill="#E0E0E0" d="M358.18,429.16c-0.175,0.076-0.359,0.129-0.548,0.154l-1.607,0.346c-1.393,0.299-3.417,0.727-5.952,1.299
		c-4.965,1.189-11.775,2.951-19.168,5.369c-3.691,1.189-7.144,2.439-10.347,3.57c-2.817,0.967-5.57,2.117-8.238,3.441
		c-1.788,0.896-3.453,2.021-4.953,3.346c-1.06,0.941-1.56,1.547-1.607,1.512c-0.047-0.035,0.096-0.166,0.334-0.465
		c0.338-0.424,0.708-0.822,1.107-1.189c1.462-1.416,3.118-2.619,4.917-3.572c2.659-1.381,5.412-2.574,8.238-3.572
		c3.155-1.189,6.655-2.451,10.358-3.666c6.339-2.078,12.785-3.814,19.311-5.203c2.512-0.512,4.548-0.881,5.953-1.096l1.631-0.238
		C357.795,429.152,357.989,429.14,358.18,429.16z"/>
	<path fill="#E0E0E0" d="M299.557,448.328c-1.294-2.221-2.897-4.244-4.762-6.012c-2.086-1.869-4.432-3.426-6.965-4.619
		c-3.117-1.43-6.39-2.492-9.751-3.168c-3.572-0.762-7.036-1.189-10.191-1.713c-3.155-0.525-5.953-0.965-8.334-1.525
		c-1.862-0.42-3.695-0.961-5.488-1.619c-0.631-0.238-1.119-0.439-1.44-0.582c-0.321-0.145-0.488-0.238-0.477-0.264
		c0.678,0.17,1.346,0.377,2,0.619c1.805,0.564,3.637,1.039,5.488,1.418c2.382,0.5,5.18,0.939,8.334,1.381
		c3.155,0.439,6.632,0.916,10.239,1.678c3.409,0.686,6.724,1.781,9.87,3.264c2.566,1.221,4.931,2.826,7.012,4.762
		c1.384,1.318,2.585,2.816,3.571,4.453c0.266,0.447,0.509,0.908,0.727,1.381C299.476,447.953,299.531,448.138,299.557,448.328z"/>
	<path fill="#FFBE9D" d="M283.056,495.867l4.667-6.535c0,0,7.144,1.416,9.144-0.441s14.857-15.787,17.858-15.738
		c1.209-0.029,2.213,0.928,2.242,2.137c0.009,0.33-0.059,0.658-0.195,0.959c-0.737,1.535-12.727,14.654-13.024,15.727
		s-0.727,2.322,1.19,2.012c1.917-0.309,21.05-13.584,21.645-13.584c0.596,0,2.631,1.393,1.31,4.166l-2.19,2.633
		c1.279,1.986,1.446,4.492,0.44,6.631c0,0,2.381,2.154,0,6.785c-2.381,4.633-13.751,12.334-13.751,12.334l-13.013,2.383
		l-20.299-0.584C279.079,514.75,282.948,496.689,283.056,495.867z"/>
	<path fill="#EB996E" d="M325.725,487.437c-0.597,0.875-1.297,1.674-2.083,2.383c-1.821,1.75-3.789,3.344-5.882,4.762
		c-2.091,1.412-4.307,2.633-6.619,3.643c-0.934,0.475-1.927,0.824-2.952,1.035c0.885-0.541,1.808-1.018,2.762-1.428
		c2.231-1.117,4.391-2.375,6.465-3.762c2.07-1.404,4.059-2.926,5.952-4.561C324.095,488.755,324.884,488.062,325.725,487.437z"/>
	<path fill="#EB996E" d="M326.094,494.105c-0.462,0.676-1.023,1.279-1.666,1.785c-1.457,1.322-3.01,2.537-4.644,3.633
		c-1.632,1.094-3.344,2.064-5.119,2.904c-0.714,0.402-1.485,0.695-2.286,0.869c-0.083-0.166,3.286-1.75,7.06-4.299
		C323.213,496.451,325.963,493.974,326.094,494.105z"/>
	<path fill="#495C63" d="M390.575,502.189c-25.954-6.25-45.241,9.119-54.302,18.645c-3.59,3.758-9.031,5.094-13.953,3.428
		c-6.039-1.982-11.938-4.369-17.656-7.143l-59.194-29.502c-10.346-5.156-20.931-10.395-32.384-11.906
		c-19.597-2.57-39.288,6.275-54.17,19.299c-14.882,13.025-25.692,29.859-36.288,46.527l0.5-0.797
		c-21.073,15.406-37.884,23.465-59.243,39.371c-1.435,1.014-2.35,2.607-2.5,4.357c-0.25,4.537,5.12,5.715,9.203,5.811l77.518,1.939
		c6.488,0.156,13.524,0.156,18.728-3.738c5.715-4.273,7.513-12.096,7.465-19.227c-0.083-13.096-4.988-25.729-7.024-38.705
		s-0.452-27.967,9.62-36.408c7.894-6.619,19.334-7.559,29.3-4.988c9.965,2.572,18.811,8.227,27.466,13.775l76.279,48.98
		c2.702,1.736,5.548,3.512,8.75,3.773c3.774,0.32,7.37-1.549,10.561-3.572c6.31-4.035,12.703-10.334,19.501-16.738L390.575,502.189z
		"/>
	<path fill="#263238" d="M351.656,526.906c0,0-0.19,0.143-0.571,0.381l-1.702,1.094c-2.251,1.307-4.604,2.426-7.037,3.346
		c-3.842,1.447-7.836,2.453-11.905,3c-5.413,0.695-10.892,0.721-16.311,0.072c-6.563-0.818-12.999-2.439-19.168-4.822
		c-7.068-2.717-13.892-6.035-20.395-9.916c-6.905-4.037-13.882-8.715-21.072-13.572c-7.191-4.857-14.656-9.895-22.621-14.443
		c-7.965-4.547-16.228-8.332-24.739-9.977c-4.159-0.826-8.426-0.977-12.632-0.439c-4.028,0.541-7.925,1.809-11.501,3.738
		c-7.001,3.785-12.358,9.357-16.811,14.822c-4.453,5.465-7.989,11.107-11.382,16.107c-2.987,4.553-6.239,8.926-9.739,13.098
		c-2.657,3.141-5.634,5.998-8.882,8.523c-2.068,1.578-4.276,2.965-6.596,4.143l-1.845,0.822c-0.417,0.191-0.631,0.262-0.631,0.262
		l0.606-0.32l1.822-0.883c2.281-1.217,4.452-2.631,6.488-4.225c3.211-2.541,6.15-5.406,8.774-8.549
		c3.465-4.176,6.685-8.549,9.644-13.096c3.357-5.002,6.881-10.633,11.346-16.18c4.465-5.549,9.834-11.145,16.93-15.014
		c3.636-1.967,7.597-3.262,11.691-3.822c4.271-0.541,8.6-0.393,12.822,0.441c8.62,1.631,16.942,5.465,24.942,10.035
		c8.001,4.572,15.478,9.621,22.681,14.479c7.202,4.857,14.144,9.523,21.025,13.572c6.454,3.877,13.225,7.203,20.239,9.941
		c6.13,2.383,12.526,4.014,19.049,4.857c5.385,0.66,10.83,0.66,16.215,0c4.063-0.523,8.057-1.494,11.906-2.893
		c2.432-0.887,4.788-1.965,7.048-3.227l1.738-1.037L351.656,526.906z"/>
	<path fill="#263238" d="M371.907,510.107c-0.382,0.52-0.8,1.014-1.25,1.475c-0.492,0.57-1.017,1.111-1.572,1.619
		c-0.643,0.596-1.345,1.322-2.214,2.014c-0.869,0.689-1.786,1.5-2.857,2.25s-2.227,1.523-3.465,2.32
		c-5.461,3.332-11.498,5.609-17.799,6.715c-1.452,0.215-2.834,0.453-4.144,0.537c-1.31,0.082-2.512,0.178-3.571,0.201
		c-1.06,0.025-2.119,0-3,0c-0.753-0.02-1.504-0.078-2.25-0.178c-0.643-0.037-1.28-0.133-1.905-0.285
		c0.642-0.059,1.287-0.059,1.929,0c0.607,0,1.357,0.082,2.238,0.07s1.869,0,2.977,0s2.298-0.107,3.571-0.273
		c1.274-0.166,2.655-0.357,4.084-0.584c3.098-0.609,6.143-1.461,9.107-2.547c2.938-1.137,5.781-2.506,8.501-4.096
		c1.19-0.773,2.381-1.477,3.465-2.25c1.083-0.773,2.012-1.477,2.869-2.168c0.856-0.689,1.606-1.357,2.262-1.939
		c0.654-0.584,1.19-1.096,1.643-1.537C370.949,510.966,371.411,510.517,371.907,510.107z"/>
	<path fill="#FAFAFA" d="M137.331,535.56c0,0.072-0.548,0.166-1.417,0c-2.314-0.404-4.301-1.879-5.357-3.977
		c-0.369-0.797-0.44-1.346-0.369-1.369c0.774,1.322,1.77,2.502,2.94,3.488C134.418,534.548,135.838,535.175,137.331,535.56z"/>
	<path fill="#FAFAFA" d="M166.679,532.976c0,0.084-1.191-0.594-3.061-1.463c-2.463-1.121-5.06-1.922-7.727-2.383
		c-2.674-0.447-5.394-0.561-8.096-0.332c-2.071,0.189-3.346,0.465-3.369,0.357c0.271-0.146,0.565-0.246,0.869-0.299
		c0.805-0.221,1.624-0.385,2.452-0.488c5.51-0.734,11.113,0.229,16.061,2.764c0.747,0.373,1.467,0.799,2.155,1.273
		C166.464,532.738,166.679,532.941,166.679,532.976z"/>
	<path fill="#FAFAFA" d="M160.655,504.439c0,0.084-0.513,0.203-1.357,0.166c-1.11-0.084-2.19-0.406-3.167-0.939
		c-0.979-0.537-1.827-1.281-2.488-2.18c-0.5-0.689-0.667-1.189-0.596-1.189c0.994,1.1,2.132,2.061,3.382,2.857
		C157.772,503.771,159.194,504.203,160.655,504.439z"/>
	<path fill="#FAFAFA" d="M173.525,496.677c-0.865-0.412-1.761-0.754-2.68-1.025c-0.95-0.08-1.906-0.08-2.856,0
		c0.834-0.676,1.948-0.893,2.976-0.582C172.727,495.367,173.667,496.593,173.525,496.677z"/>
	<path fill="#FAFAFA" d="M197.99,487.878c-0.19,0-0.227-1.547-0.905-3.273s-1.679-2.906-1.548-3.037
		C197.479,483.041,198.427,485.48,197.99,487.878z"/>
	<path fill="#FAFAFA" d="M221.361,485.164c-0.06,0-0.356-0.238-0.631-0.846c-0.338-0.795-0.448-1.668-0.321-2.523
		c0.114-0.877,0.479-1.703,1.048-2.381c0.44-0.488,0.81-0.666,0.857-0.607c-0.604,0.928-1.039,1.957-1.286,3.035
		C220.954,482.96,221.067,484.083,221.361,485.164z"/>
	<path fill="#FAFAFA" d="M229.921,500.259c-0.179-0.059,0.333-1.975,0.393-4.393c0.06-2.416-0.333-4.369-0.154-4.416
		c0.642,1.383,0.908,2.91,0.773,4.428C230.991,497.404,230.642,498.916,229.921,500.259z"/>
	<path fill="#FAFAFA" d="M255.233,506.724c-0.809-2.197-0.982-4.578-0.5-6.869c0.271-2.322,1.2-4.52,2.679-6.334
		c-0.914,2.07-1.608,4.229-2.072,6.441C255.074,502.207,255.038,504.472,255.233,506.724z"/>
	<path fill="#FAFAFA" d="M270.388,517.63c0.669,2.484,0.111,5.139-1.5,7.143c-0.154-0.094,0.596-1.547,1-3.5
		C270.293,519.322,270.257,517.654,270.388,517.63z"/>
	<path fill="#FAFAFA" d="M289.699,510.796c0,0.084-0.798,0.619-1.846,1.799c-2.813,3.107-3.611,7.547-2.06,11.441
		c0.583,1.475,1.19,2.273,1.107,2.381c-0.672-0.588-1.188-1.332-1.5-2.168c-1.881-4.021-1.022-8.791,2.143-11.904
		C288.123,511.658,288.864,511.126,289.699,510.796z"/>
	<path fill="#FAFAFA" d="M309.986,551.693c0.403-3.141,0.299-6.324-0.31-9.43c-0.813-3.064-2.119-5.977-3.869-8.619
		c0.727,0.613,1.339,1.352,1.81,2.178c1.25,1.928,2.152,4.061,2.667,6.299c0.512,2.236,0.637,4.543,0.369,6.822
		C310.586,549.89,310.361,550.82,309.986,551.693z"/>
	<path fill="#FAFAFA" d="M340.322,541.906c-0.19-1.609-0.51-3.203-0.952-4.762c-0.636-1.504-1.393-2.953-2.263-4.334
		c1.382,1.018,2.383,2.467,2.846,4.119C340.613,538.503,340.741,540.251,340.322,541.906z"/>
	<path fill="#FAFAFA" d="M327.488,533.871c-0.578-0.004-1.143-0.168-1.632-0.477c-2.524-1.303-4.163-3.854-4.298-6.691
		c-0.076-0.576,0.01-1.162,0.25-1.691c0.11,0.545,0.171,1.1,0.179,1.656c0.193,1.271,0.651,2.488,1.346,3.57
		c0.704,1.098,1.638,2.027,2.738,2.727C326.916,533.548,327.523,533.763,327.488,533.871z"/>
	<path fill="#FAFAFA" d="M346.048,529.287c-0.167,0-0.227-0.715-0.523-1.477c-0.298-0.762-0.703-1.311-0.584-1.441
		s0.81,0.299,1.19,1.191S346.215,529.287,346.048,529.287z"/>
	<path fill="#FAFAFA" d="M362.716,523.583c-0.155,0.07-0.667-0.75-1.5-1.584c-0.834-0.832-1.655-1.357-1.571-1.523
		c0.083-0.166,1.095,0.154,2.012,1.084C362.573,522.488,362.87,523.537,362.716,523.583z"/>
	<path fill="#FAFAFA" d="M353.703,520.953c-1.782-0.758-3.255-2.098-4.179-3.799c-1.099-1.592-1.619-3.512-1.477-5.439
		c0.463,1.779,1.135,3.496,2,5.119C351.097,518.347,352.323,519.732,353.703,520.953z"/>
	<path fill="#FAFAFA" d="M368.49,511.119c-1.442-0.445-2.697-1.354-3.572-2.584c-1.025-1.084-1.677-2.471-1.857-3.953
		c0.179-0.059,0.834,1.762,2.382,3.572C366.99,509.962,368.585,510.962,368.49,511.119z"/>
	<path fill="#FAFAFA" d="M381.574,509.046c-0.143,0.107-1.465-1.607-3.44-3.346c-1.977-1.738-3.834-2.869-3.751-3.035
		c1.568,0.52,2.991,1.4,4.155,2.57C379.837,506.25,380.878,507.554,381.574,509.046z"/>
	<path fill="#FAFAFA" d="M168.941,566.55c-0.662,0.098-1.331,0.143-2,0.131c-0.631,0-1.417,0-2.382,0c-0.964,0-1.952,0-3.095-0.166
		c-1.144-0.166-2.382-0.215-3.727-0.43c-1.346-0.213-2.763-0.486-4.251-0.785c-6.438-1.465-12.593-3.979-18.215-7.441
		c-1.274-0.82-2.513-1.57-3.572-2.381c-1.06-0.809-2.095-1.559-2.988-2.285c-0.893-0.727-1.654-1.43-2.381-2.037
		c-0.587-0.514-1.147-1.059-1.679-1.631c-0.491-0.447-0.938-0.941-1.333-1.475c0.529,0.4,1.03,0.838,1.5,1.309
		c0.464,0.441,1.035,0.965,1.738,1.535c0.702,0.572,1.464,1.275,2.381,1.953c0.917,0.68,1.893,1.465,3.012,2.215
		s2.31,1.523,3.572,2.381c2.814,1.66,5.743,3.119,8.763,4.369c3.036,1.213,6.155,2.207,9.334,2.977
		c1.476,0.311,2.869,0.643,4.19,0.834c1.321,0.189,2.56,0.381,3.702,0.512c1.144,0.131,2.155,0.178,3.061,0.25
		c0.904,0.07,1.69,0.107,2.381,0.107C167.615,566.455,168.281,566.474,168.941,566.55z"/>
	<path fill="#FAFAFA" d="M113.222,591.291c-0.424-0.223-0.823-0.49-1.19-0.797c-0.479-0.322-0.938-0.676-1.369-1.061
		c-0.6-0.475-1.172-0.984-1.714-1.523c-1.44-1.377-2.755-2.879-3.929-4.488c-2.902-3.947-4.961-8.451-6.049-13.229
		c-0.449-1.955-0.729-3.947-0.833-5.951c-0.071-0.846,0-1.619,0-2.287c-0.01-0.576,0.022-1.154,0.095-1.727
		c0.008-0.494,0.076-0.986,0.203-1.463c0.119,0-0.096,2.107,0.166,5.451c0.165,1.959,0.479,3.9,0.941,5.811
		c0.598,2.33,1.395,4.604,2.381,6.799c1.006,2.176,2.201,4.26,3.571,6.227c1.113,1.621,2.355,3.15,3.715,4.572
		C111.568,590.005,113.294,591.195,113.222,591.291z"/>
	<path fill="#455A64" d="M396.778,503.701v-35.252c0,0,5.215-5.762,16.37-5.787c11.906,0,16.383,4.633,16.383,4.633v36.537
		c-0.004,3.268-2.192,6.131-5.346,6.988c-3.282,0.967-6.667,1.543-10.084,1.715c-4.029-0.094-8.03-0.701-11.906-1.809
		C399.003,509.886,396.778,507.001,396.778,503.701z"/>
	<path fill="#263238" d="M429.494,467.687c-0.259,0.408-0.566,0.785-0.917,1.119c-0.914,0.945-1.919,1.799-3,2.547
		c-7.32,5.176-17.042,5.416-24.608,0.607c-1.118-0.686-2.163-1.484-3.119-2.381c-0.366-0.311-0.69-0.666-0.965-1.061
		c1.373,1.115,2.812,2.145,4.31,3.084c7.49,4.475,16.885,4.242,24.145-0.596C426.787,469.982,428.174,468.873,429.494,467.687z"/>
	<path fill="#455A64" d="M429.721,501.904c4.643,1.08,9.513-0.332,12.857-3.727c3.191-3.5,3.774-6.68,3.774-11.418
		s-2.286-7.549-5.513-9.93c-3.226-2.381-11.31-2.762-11.369-2.143v5.203c0,0,10.548-0.523,10.894,7.285
		c0.369,8.441-10.858,9.93-10.858,9.93L429.721,501.904z"/>
	<path fill="#FFBE9D" d="M429.471,480.544c0,0,5.262-0.262,5.786,3.477c0.523,3.738-7.918,9.656-10.347,8.953
		s-2.869-4.262-0.356-5.738c1.829-1.143,3.547-2.455,5.131-3.918L429.471,480.544z"/>
	<path fill="#FFBE9D" d="M430.578,487.318c0,0,5.262-0.262,5.785,3.477c0.524,3.738-7.917,9.656-10.346,8.953
		c-2.429-0.701-2.869-4.25-0.357-5.738c1.828-1.139,3.546-2.447,5.132-3.904L430.578,487.318z"/>
	<path fill="#FFBE9D" d="M397.028,480.222c-1.29-0.502-2.757-0.072-3.571,1.049c-0.752,1.104-1.166,2.402-1.19,3.738
		c-0.26,3.342,0.377,6.691,1.845,9.703c0.429,0.869,1.072,1.809,2.048,1.881c0.793-0.002,1.511-0.467,1.834-1.191
		c0.313-0.715,0.463-1.492,0.44-2.273c-0.038-4.338-0.537-8.66-1.488-12.893"/>
	<path fill="#263238" d="M400.469,471.388c0,0,2.81-3.797,12.346-3.701s12.322,3.701,12.322,3.701s-7.322,3.703-12.751,3.703
		C408.113,475.216,403.919,473.914,400.469,471.388z"/>
	<path fill="#263238" d="M413.196,432.244c0,0,0.5,0.369,0.465,1.369c-0.041,0.576-0.225,1.133-0.536,1.619
		c-0.417,0.619-0.866,1.215-1.346,1.785c-1.116,1.502-1.423,3.455-0.821,5.227c0.341,1.035,0.979,1.945,1.834,2.619
		c1.062,0.703,1.89,1.707,2.381,2.883c0.215,1.313-0.23,2.648-1.19,3.57c-0.821,0.918-1.763,1.572-2.465,2.381
		c-1.219,1.424-1.78,3.297-1.548,5.156c0.143,1.271,0.418,2.523,0.822,3.738c0.176,0.445,0.304,0.908,0.381,1.381
		c-0.254-0.406-0.458-0.842-0.607-1.299c-0.501-1.209-0.845-2.477-1.024-3.773c-0.11-0.916-0.074-1.844,0.107-2.75
		c0.228-1.055,0.729-2.033,1.452-2.834c0.738-0.832,1.68-1.523,2.382-2.381c0.816-0.789,1.194-1.928,1.012-3.047
		c-0.298-1.096-1.346-1.811-2.227-2.596c-2.616-2.109-3.047-5.934-0.964-8.572c0.535-0.643,1.048-1.191,1.393-1.691
		c0.307-0.439,0.511-0.945,0.596-1.477C413.372,433.115,413.339,432.666,413.196,432.244z"/>
	<path fill="#263238" d="M418.387,432.244c0,0,0.5,0.369,0.464,1.369c-0.038,0.58-0.223,1.141-0.536,1.631
		c-0.416,0.619-0.865,1.215-1.345,1.785c-1.116,1.502-1.424,3.455-0.821,5.227c0.34,1.035,0.978,1.945,1.833,2.619
		c1.062,0.705,1.891,1.707,2.381,2.883c0.215,1.313-0.23,2.648-1.19,3.57c-0.821,0.918-1.762,1.572-2.464,2.381
		c-1.219,1.424-1.781,3.297-1.548,5.156c0.142,1.271,0.417,2.523,0.821,3.738c0.169,0.447,0.297,0.91,0.381,1.381
		c-0.254-0.406-0.458-0.842-0.607-1.297c-0.501-1.211-0.845-2.479-1.023-3.775c-0.11-0.916-0.074-1.844,0.107-2.75
		c0.227-1.055,0.728-2.033,1.452-2.834c0.738-0.832,1.679-1.523,2.381-2.381c0.816-0.789,1.194-1.928,1.012-3.047
		c-0.297-1.096-1.345-1.811-2.226-2.596c-2.617-2.109-3.048-5.934-0.965-8.572c0.536-0.643,1.048-1.191,1.394-1.691
		c0.307-0.439,0.51-0.945,0.595-1.475C418.558,433.123,418.526,432.669,418.387,432.244z"/>
</g>
<g id="freepik--Device--inject-179">
	<path fill="#283648" d="M90.579,606.07l20.919,72.34c0.441,1.158,1.535,1.938,2.774,1.977l108.71,3.154
		c0.946,0.027,1.854-0.385,2.452-1.119l25.002-30.502c1.073-1.305,0.887-3.234-0.419-4.307c-0.729-0.602-1.695-0.83-2.617-0.623
		l-29.609-2.797l-10.68-39.004c-0.38-1.262-1.528-2.135-2.845-2.166l-110.735-1.072c-1.695-0.037-3.1,1.309-3.136,3.006
		C90.387,605.335,90.449,605.712,90.579,606.07z"/>
	<path fill="#455A64" d="M204.195,604.572c3.167,11.072,9.524,36.287,14.322,53.109c2.202,7.691,4.321,15.037,6.238,21.752
		l-0.5-0.107l18.835-22.502l5.44-6.428l1.465-1.691c0.148-0.221,0.312-0.432,0.488-0.631c-0.134,0.223-0.285,0.434-0.453,0.631
		l-1.404,1.75l-5.311,6.537l-18.668,22.619l-0.345,0.418l-0.155-0.525c-1.929-6.701-4.048-14.047-6.273-21.738
		c-4.822-16.836-11.12-42.086-14.145-53.158"/>
	<path fill="#FAFAFA" d="M155.977,634.787c0,2.945-2.389,5.334-5.334,5.334s-5.334-2.389-5.334-5.334s2.389-5.334,5.334-5.334
		c0.004,0,0.008,0,0.012,0c2.939,0,5.322,2.383,5.322,5.322C155.977,634.779,155.977,634.783,155.977,634.787z"/>
</g>
</svg>
