<?xml version="1.0" encoding="utf-8"?>
<!-- Generator: Adobe Illustrator 16.0.0, SVG Export Plug-In . SVG Version: 6.00 Build 0)  -->
<!DOCTYPE svg PUBLIC "-//W3C//DTD SVG 1.1//EN" "http://www.w3.org/Graphics/SVG/1.1/DTD/svg11.dtd">
<svg version="1.1" id="Layer_1" xmlns="http://www.w3.org/2000/svg" xmlns:xlink="http://www.w3.org/1999/xlink" x="0px" y="0px"
	 width="595.279px" height="568.472px" viewBox="0 156.548 595.279 568.472" enable-background="new 0 156.548 595.279 568.472"
	 xml:space="preserve">
<g id="freepik--background-simple--inject-179">
	<path fill="#E0E0E0" d="M480.76,218.359c-31.74-26.002-78.685-33.646-115.413-15.358c-40.086,19.966-65.719,66.897-109.781,74.875
		c-22.406,4.06-45.241-3.107-67.957-3.679c-56.456-1.417-110.377,43.658-119.057,99.471
		c-8.679,55.814,29.217,115.044,83.471,130.712l248.565,2.107c37.562-16.502,54.516-36.254,81.279-67.363
		c26.764-31.109,44.658-70.635,45.896-111.65C529.001,286.459,512.489,244.361,480.76,218.359z"/>
</g>
<g id="freepik--Carpet--inject-179">
	<path fill="#E0E0E0" d="M548.027,557.585c-6.74,0.414-13.499,0.414-20.239,0C534.528,557.171,541.286,557.171,548.027,557.585z"/>
	<path fill="#E0E0E0" d="M549.42,551.908c-3.961,0.307-7.935,0.41-11.906,0.309c-3.971,0.102-7.945-0.002-11.905-0.309
		c3.96-0.314,7.935-0.418,11.905-0.311C541.486,551.49,545.459,551.591,549.42,551.908z"/>
	<path fill="#E0E0E0" d="M541.705,545.359c-6.399,0.412-12.817,0.412-19.216,0C528.888,544.947,535.306,544.947,541.705,545.359z"/>
	<path fill="#E0E0E0" d="M544.265,534.953c0,0.18-5.715,0.311-12.775,0.311c-7.06,0-12.774-0.131-12.774-0.311
		c0-0.178,5.727-0.309,12.774-0.309C538.538,534.644,544.265,534.787,544.265,534.953z"/>
	<path fill="#E0E0E0" d="M544.086,529.5c0,0.168-5.667,0.311-12.668,0.311c-7,0-12.68-0.143-12.68-0.311
		c0-0.166,5.68-0.309,12.68-0.309C538.419,529.191,544.086,529.287,544.086,529.5z"/>
	<path fill="#E0E0E0" d="M542.086,522.726c0,0.178-6.024,0.311-13.466,0.311c-7.44,0-13.465-0.133-13.465-0.311
		s6.024-0.309,13.465-0.309C536.062,522.417,542.086,522.56,542.086,522.726z"/>
	<path fill="#E0E0E0" d="M537.133,513.63c0,0.166-5.536,0.309-12.37,0.309s-12.382-0.143-12.382-0.309
		c4.119-0.314,8.252-0.418,12.382-0.311C528.889,513.212,533.018,513.316,537.133,513.63z"/>
	<path fill="#E0E0E0" d="M550.038,564.873c-4.119,0.313-8.252,0.416-12.382,0.309c-4.13,0.107-8.262,0.004-12.382-0.309
		c0-0.168,5.549-0.311,12.382-0.311C544.49,564.562,550.038,564.705,550.038,564.873z"/>
	<path fill="#E0E0E0" d="M551.789,575.539c-4.053,0.307-8.117,0.41-12.18,0.311c-4.063,0.1-8.128-0.004-12.18-0.311
		c4.052-0.307,8.117-0.408,12.18-0.309C543.672,575.13,547.737,575.232,551.789,575.539z"/>
	<path fill="#E0E0E0" d="M553.778,581.779c-3.961,0.314-7.935,0.418-11.906,0.309c-3.971,0.107-7.945,0.004-11.905-0.309
		c3.96-0.309,7.935-0.412,11.905-0.311C545.843,581.367,549.817,581.47,553.778,581.779z"/>
	<path fill="#E0E0E0" d="M559.718,587.767c0,0.166-5.953,0.309-13.18,0.309s-13.167-0.143-13.167-0.309
		c0-0.168,5.893-0.311,13.167-0.311S559.718,587.625,559.718,587.767z"/>
	<path fill="#E0E0E0" d="M560.754,597.386c-3.92,0.322-7.855,0.43-11.787,0.322c-3.932,0.107-7.866,0-11.786-0.322
		c3.921-0.307,7.854-0.41,11.786-0.311C552.899,596.976,556.833,597.08,560.754,597.386z"/>
	<path fill="#E0E0E0" d="M562.695,602.435c-3.896,0.643-7.822,1.082-11.763,1.32c-3.922,0.445-7.864,0.68-11.811,0.703
		c3.891-0.654,7.813-1.107,11.751-1.357C554.798,602.667,558.744,602.445,562.695,602.435z"/>
	<path fill="#E0E0E0" d="M564.671,609.708c0,0.166-5.953,0.393-13.168,0.5s-13.18,0-13.18-0.119s5.894-0.404,13.168-0.5
		S564.658,609.542,564.671,609.708z"/>
	<path fill="#E0E0E0" d="M565.052,618.828c-3.941,0.66-7.916,1.105-11.906,1.334c-3.954,0.438-7.927,0.676-11.905,0.715
		c3.943-0.646,7.917-1.092,11.905-1.334C557.1,619.105,561.073,618.867,565.052,618.828z"/>
	<path fill="#E0E0E0" d="M563.873,627.376c-1.06,0.336-2.147,0.574-3.25,0.715c-2.013,0.369-4.763,0.881-7.858,1.512
		s-5.821,1.189-7.821,1.689c-1.068,0.299-2.16,0.506-3.263,0.619c1.014-0.455,2.07-0.807,3.155-1.047
		c1.977-0.559,4.762-1.191,7.81-1.869s5.882-1.084,7.917-1.346C561.656,627.455,562.764,627.363,563.873,627.376z"/>
	<path fill="#E0E0E0" d="M567.897,637.306c-1.111,0.164-2.233,0.244-3.357,0.238c-2.071,0.107-4.917,0.262-8.06,0.547
		c-3.144,0.285-5.953,0.654-8.036,0.941c-1.104,0.205-2.223,0.328-3.346,0.369c1.059-0.387,2.156-0.654,3.274-0.799
		c2.035-0.393,4.881-0.834,8.048-1.131s6.036-0.381,8.107-0.357C565.655,637.058,566.784,637.123,567.897,637.306z"/>
	<path fill="#E0E0E0" d="M571.79,646.021c-1.161,0.088-2.327,0.088-3.488,0c-2.155,0-5.119-0.084-8.405,0
		c-3.286,0.082-6.238,0.332-8.334,0.512c-1.156,0.16-2.321,0.236-3.488,0.227c1.121-0.338,2.274-0.559,3.44-0.656
		c2.792-0.377,5.602-0.611,8.417-0.701c2.814-0.098,5.633-0.047,8.441,0.154C569.526,645.591,570.671,645.746,571.79,646.021z"/>
	<path fill="#E0E0E0" d="M572.588,653.64c-1.271,0.051-2.544,0.016-3.81-0.107c-2.382-0.119-5.584-0.25-9.168-0.262
		c-3.583-0.012-6.821,0.084-9.167,0.178c-1.267,0.117-2.54,0.143-3.81,0.072c1.243-0.285,2.511-0.457,3.786-0.512
		c2.381-0.203,5.595-0.369,9.19-0.357s6.857,0.215,9.203,0.441C570.086,653.154,571.351,653.337,572.588,653.64z"/>
	<path fill="#E0E0E0" d="M574.373,660.652c0,0.168-5.619,0.477-12.572,0.691c-6.952,0.215-12.572,0.238-12.584,0.07
		c4.177-0.445,8.373-0.676,12.572-0.689C565.981,660.488,570.181,660.462,574.373,660.652z"/>
	<path fill="#E0E0E0" d="M575.159,666.605c0,0.168-5.702,0.561-12.763,0.881c-7.06,0.322-12.774,0.418-12.786,0.25
		c-0.013-0.166,5.702-0.559,12.763-0.869C569.433,666.558,575.159,666.439,575.159,666.605z"/>
	<path fill="#E0E0E0" d="M580.113,676.689c-1.435,0.104-2.874,0.123-4.31,0.061c-2.667,0-6.334,0-10.382,0.297
		s-7.691,0.68-10.334,1.023c-1.418,0.252-2.849,0.42-4.286,0.5c0.358-0.152,0.734-0.26,1.119-0.32
		c0.726-0.168,1.785-0.381,3.107-0.607c3.429-0.582,6.886-0.98,10.357-1.191c3.473-0.217,6.953-0.258,10.43-0.119
		c1.333,0.061,2.381,0.131,3.154,0.203C579.355,676.542,579.739,676.595,580.113,676.689z"/>
	<path fill="#E0E0E0" d="M581.493,683.392c0,0.166-6.144,0.607-13.739,0.988s-13.774,0.535-13.786,0.369
		c-0.013-0.166,6.143-0.619,13.751-0.988C575.326,683.392,581.493,683.214,581.493,683.392z"/>
	<path fill="#E0E0E0" d="M116.675,519.642c-1.173,0.271-2.369,0.428-3.572,0.465c-2.25,0.178-5.381,0.322-8.833,0.285
		c-3.453-0.035-6.572-0.238-8.822-0.463c-1.205-0.063-2.401-0.242-3.572-0.537c1.22-0.051,2.441-0.016,3.655,0.107
		c2.25,0.107,5.357,0.238,8.798,0.273c3.441,0.037,6.549,0,8.799-0.107C114.308,519.582,115.493,519.574,116.675,519.642z"/>
	<path fill="#E0E0E0" d="M121.949,513.261c0,0.178-6.465,0.453-14.454,0.607c-7.988,0.154-14.477,0.166-14.477,0
		s6.465-0.441,14.465-0.607C115.485,513.095,121.949,513.095,121.949,513.261z"/>
	<path fill="#E0E0E0" d="M110.127,526.738c-1.332,0.252-2.682,0.395-4.036,0.43c-2.513,0.166-5.953,0.285-9.799,0.262
		c-3.845-0.023-7.298-0.227-9.798-0.43c-1.357-0.045-2.708-0.213-4.036-0.5c1.352-0.09,2.708-0.09,4.06,0
		c2.5,0.096,5.953,0.215,9.774,0.25c3.822,0.037,7.274,0,9.774-0.082C107.42,526.595,108.777,526.619,110.127,526.738z"/>
	<path fill="#E0E0E0" d="M111.912,536.74c0,0.166-7.44,0.154-16.668,0c-9.227-0.156-16.667-0.465-16.596-0.645
		c0.071-0.178,7.44-0.154,16.668,0C104.543,536.251,111.912,536.56,111.912,536.74z"/>
	<path fill="#E0E0E0" d="M104.591,542.097c-0.388,0.115-0.787,0.184-1.19,0.201c-0.738,0.107-1.811,0.203-3.144,0.311
		c-2.667,0.201-6.357,0.357-10.441,0.285c-4.083-0.07-7.774-0.357-10.429-0.654c-1.322-0.154-2.382-0.299-3.132-0.418
		c-0.406-0.029-0.806-0.113-1.19-0.25c1.444-0.01,2.887,0.066,4.322,0.227c2.654,0.191,6.333,0.406,10.394,0.477
		c4.06,0.072,7.738,0,10.405-0.107C101.651,542.048,103.122,542.023,104.591,542.097z"/>
	<path fill="#E0E0E0" d="M104.578,549.132c-1.464-0.152-2.919-0.387-4.357-0.701c-2.679-0.453-6.404-1-10.536-1.334
		c-4.131-0.334-7.894-0.381-10.62-0.346c-2.726,0.035-4.404,0.107-4.404,0c0.385-0.125,0.786-0.193,1.19-0.203
		c0.762-0.094,1.869-0.178,3.227-0.25c3.571-0.168,7.15-0.113,10.715,0.168c3.553,0.281,7.084,0.791,10.572,1.523
		c1.333,0.285,2.381,0.547,3.154,0.75C103.888,548.826,104.243,548.958,104.578,549.132z"/>
	<path fill="#E0E0E0" d="M100.328,557.859c-0.482-0.004-0.963-0.072-1.429-0.201l-3.833-0.738c-3.238-0.631-7.715-1.477-12.68-2.273
		c-4.965-0.799-9.524-1.395-12.763-1.811l-3.869-0.5c-0.481-0.027-0.957-0.111-1.417-0.25c0.479-0.057,0.962-0.057,1.44,0
		c0.917,0,2.25,0.154,3.893,0.297c3.298,0.311,7.834,0.846,12.811,1.645c4.977,0.797,9.453,1.713,12.68,2.451
		c1.607,0.369,2.905,0.691,3.798,0.941C99.43,557.517,99.889,557.666,100.328,557.859z"/>
	<path fill="#E0E0E0" d="M96.292,565.931c0,0.168-6.655,0.131-14.857-0.082c-8.203-0.215-14.835-0.525-14.835-0.703
		c0-0.18,6.655-0.131,14.858,0.084C89.661,565.443,96.292,565.765,96.292,565.931z"/>
	<path fill="#E0E0E0" d="M87.233,574.707c0,0.166-6.703,0.273-14.966,0.238c-8.263-0.037-14.965-0.203-14.965-0.369
		c0-0.168,6.702-0.287,14.965-0.25C80.53,574.361,87.233,574.527,87.233,574.707z"/>
	<path fill="#E0E0E0" d="M84.208,584.541c-1.407-0.031-2.811-0.15-4.202-0.357c-2.584-0.273-6.155-0.619-10.12-0.881
		s-7.536-0.369-10.144-0.441c-1.403,0.027-2.808-0.037-4.203-0.189c0.363-0.107,0.741-0.156,1.119-0.143
		c0.738,0,1.786-0.084,3.096-0.107c2.596,0,6.203,0,10.18,0.262s7.548,0.678,10.132,1.059c1.285,0.191,2.381,0.369,3.035,0.512
		C83.482,584.296,83.855,584.392,84.208,584.541z"/>
	<path fill="#E0E0E0" d="M80.434,591.314c-0.389,0.096-0.789,0.139-1.19,0.131c-0.75,0-1.833,0.072-3.167,0.084
		c-2.679,0-6.381,0-10.465-0.357c-4.083-0.357-7.75-0.75-10.394-1.191c-1.321-0.213-2.381-0.393-3.119-0.547
		c-0.39-0.043-0.771-0.145-1.131-0.297c1.443,0.043,2.883,0.178,4.31,0.404c2.655,0.309,6.322,0.689,10.382,0.988
		c4.06,0.297,7.751,0.453,10.417,0.535C77.533,591.058,78.989,591.142,80.434,591.314z"/>
	<path fill="#E0E0E0" d="M73.148,599.314c-1.164,0-2.326-0.092-3.477-0.273c-2.131-0.227-5.071-0.523-8.333-0.762
		c-3.263-0.238-6.228-0.346-8.334-0.428c-1.159,0.027-2.318-0.045-3.465-0.215c1.147-0.193,2.313-0.27,3.477-0.227
		c2.143,0,5.119,0,8.405,0.25s6.227,0.607,8.334,0.941C70.906,598.726,72.043,598.966,73.148,599.314z"/>
	<path fill="#E0E0E0" d="M71.874,609.935c-1.365-0.178-2.718-0.443-4.048-0.799c-2.477-0.547-5.953-1.273-9.728-1.988
		c-3.773-0.713-7.298-1.189-9.81-1.619c-1.371-0.143-2.73-0.373-4.072-0.689c0.371-0.053,0.748-0.053,1.119,0
		c0.715,0,1.738,0.131,3.013,0.262c2.536,0.262,6.024,0.738,9.857,1.441c3.834,0.701,7.263,1.512,9.728,2.166
		c1.19,0.334,2.226,0.619,2.904,0.834C71.199,609.625,71.548,609.757,71.874,609.935z"/>
	<path fill="#E0E0E0" d="M60.064,616.519c-1.13-0.074-2.253-0.236-3.357-0.488c-2.06-0.369-4.905-0.834-8.06-1.262
		c-3.155-0.43-6.024-0.703-8.108-0.906c-1.131-0.045-2.258-0.176-3.369-0.393c1.132-0.119,2.273-0.119,3.405,0
		c2.096,0.072,4.977,0.299,8.155,0.715s6.024,0.977,8.06,1.441C57.908,615.81,59.006,616.109,60.064,616.519z"/>
	<path fill="#E0E0E0" d="M58.052,622.447c-1.361-0.043-2.718-0.178-4.061-0.404c-2.5-0.297-5.952-0.703-9.762-1.072
		c-3.811-0.367-7.274-0.617-9.787-0.797c-1.361-0.029-2.718-0.162-4.06-0.393c1.379-0.117,2.764-0.121,4.144-0.012
		c2.512,0.07,5.952,0.25,9.821,0.619c3.87,0.369,7.287,0.846,9.763,1.262C55.445,621.804,56.763,622.072,58.052,622.447z"/>
	<path fill="#E0E0E0" d="M55.039,629.699c-1.28,0.086-2.564,0.086-3.845,0c-2.382,0-5.632-0.096-9.239,0
		c-3.607,0.094-6.882,0.178-9.251,0.285c-1.273,0.123-2.555,0.15-3.833,0.084c1.253-0.283,2.527-0.459,3.81-0.525
		c2.381-0.213,5.644-0.416,9.263-0.463c3.619-0.049,6.905,0.07,9.274,0.225C52.501,629.322,53.781,629.453,55.039,629.699z"/>
	<path fill="#E0E0E0" d="M55.789,637.626c-1.109,0.031-2.22-0.025-3.321-0.166c-2.048-0.143-4.881-0.273-8.013-0.227
		c-3.131,0.049-5.952,0.262-7.988,0.465c-1.1,0.166-2.21,0.258-3.322,0.273c1.06-0.363,2.159-0.6,3.274-0.703
		c2.661-0.4,5.346-0.619,8.036-0.654c2.688-0.043,5.378,0.092,8.049,0.404C53.619,637.091,54.723,637.294,55.789,637.626z"/>
	<path fill="#E0E0E0" d="M46.23,646.902c-1.088-0.129-2.166-0.332-3.227-0.607c-1.977-0.416-4.763-0.916-7.774-1.285
		s-5.846-0.525-7.857-0.596c-1.094,0.018-2.188-0.039-3.274-0.166c1.076-0.223,2.176-0.314,3.274-0.275
		c5.304-0.078,10.594,0.559,15.727,1.895C44.179,646.085,45.231,646.433,46.23,646.902z"/>
	<path fill="#E0E0E0" d="M39.194,657.533c0,0.168-5.644,0.191-12.585,0c-6.94-0.189-12.584-0.416-12.572-0.582
		c0.013-0.168,5.632-0.191,12.585,0C33.573,657.14,39.194,657.367,39.194,657.533z"/>
	<path fill="#E0E0E0" d="M33.157,663.666c-2.041,0.039-4.079-0.133-6.084-0.514c-2.018-0.176-4.012-0.555-5.953-1.131
		c2.036-0.039,4.071,0.133,6.072,0.512C29.212,662.716,31.21,663.095,33.157,663.666z"/>
	<path fill="#E0E0E0" d="M35.919,675.642c-1.17-0.082-2.332-0.254-3.477-0.512c-2.119-0.369-5.06-0.869-8.334-1.322
		c-3.273-0.453-6.227-0.773-8.334-0.988c-1.169-0.059-2.331-0.209-3.477-0.451c1.168-0.117,2.345-0.117,3.513,0
		c2.167,0.105,5.155,0.367,8.429,0.82c3.274,0.453,6.215,1.012,8.334,1.5C33.718,674.892,34.839,675.212,35.919,675.642z"/>
	<polygon fill="#EBEBEB" points="117.961,509.392 20.37,687.06 560.408,687.322 516.715,511.689 	"/>
	<polygon fill="#FAFAFA" points="36.098,658.425 553.217,658.425 545.824,628.746 49.17,634.615 	"/>
	<polygon fill="#FAFAFA" points="66.017,603.863 539.645,603.863 532.335,574.503 79.089,580.064 	"/>
	<polygon fill="#FAFAFA" points="95.995,549.312 526.073,549.312 518.692,519.642 109.068,525.511 	"/>
</g>
<g id="freepik--Books--inject-179">
	<polygon fill="#283648" points="409.505,645.925 409.505,662.177 498.011,662.177 520.477,640.722 517.119,640.722 
		495.999,660.664 495.999,645.925 517.119,628.103 434.994,628.103 	"/>
	<polygon fill="#EBEBEB" points="495.999,644.068 495.999,660.664 517.119,640.722 517.119,628.103 	"/>
	<polygon fill="#F2B400" points="394.599,645.925 394.599,627.792 435.328,610.292 517.119,610.292 479.879,628.103 480.2,642.746 
		515.346,624.269 515.346,626.496 480.2,645.925 	"/>
	<polygon fill="#EBEBEB" points="514.548,611.519 514.548,624.697 480.2,642.746 479.879,628.103 	"/>
	<path fill="#263238" d="M475.974,629.292c0,0.168-17.966,0.311-40.11,0.311c-22.144,0-40.109-0.143-40.109-0.311
		c0-0.166,17.953-0.32,40.109-0.32C458.021,628.972,475.974,629.08,475.974,629.292z"/>
	<path fill="#263238" d="M427.161,624.435l6.643-0.154c4.167-0.107,9.966-0.262,16.883-0.357l0.262,0.357
		c0.025-0.1-0.007-0.205-0.083-0.273c-0.051-0.018-0.104-0.018-0.155,0l0,0h0.096l0.226-0.119l0.465-0.25l0.952-0.547l1.94-1.191
		l4-2.535l8.524-5.537l0.119-0.084l0.167,0.572h-21.073h0.131c-5.631,3.084-10.357,5.584-13.727,7.393l-5.382,2.883l5.061-2.906
		c3.273-1.881,8.036-4.631,13.786-7.846h0.06h0.071h21.073h1.048l-0.869,0.572l-0.131,0.07c-2.929,1.715-5.786,3.537-8.524,5.287
		l-4.024,2.535l-1.94,1.191l-0.977,0.547l-0.488,0.262l-0.262,0.131h-0.154h-0.131c-0.069,0.027-0.146,0.027-0.215,0
		c-0.099-0.08-0.141-0.211-0.107-0.332l0.263,0.357c-7.084,0-13.097,0-17.156,0L427.161,624.435z"/>
</g>
<g id="freepik--Character--inject-179">
	<path fill="#F2B400" d="M271.886,581.908l32.287,34.109c-20.524,34.205-13.882,35.109-13.882,35.109l45.491-41.49
		c3.129-2.857,3.465-7.668,0.763-10.93l-34.622-41.777L271.886,581.908z"/>
	<g>
		<path fill="#F2B400" d="M271.886,581.908l32.287,34.109c-20.524,34.205-13.882,35.109-13.882,35.109l45.491-41.49
			c3.129-2.857,3.465-7.668,0.763-10.93l-34.622-41.777L271.886,581.908z"/>
	</g>
	<path fill="#FAFAFA" d="M299.197,636.066c-1.71-0.633-3.487-1.064-5.298-1.285c3.833-0.607,7.668,1.07,9.822,4.297
		C302.333,637.904,300.815,636.894,299.197,636.066z"/>
	<path fill="#FAFAFA" d="M325.163,617.837c-0.804-0.832-1.503-1.76-2.084-2.762c-4.134-6.889-2.531-15.775,3.75-20.787
		c0.896-0.738,1.88-1.361,2.929-1.857c0.371-0.209,0.773-0.357,1.191-0.439c-1.349,0.77-2.631,1.648-3.834,2.631
		c-5.909,4.998-7.447,13.484-3.667,20.24c0.784,1.34,1.676,2.613,2.667,3.809C325.76,618.441,325.44,618.16,325.163,617.837z"/>
	<path fill="#FAFAFA" d="M319.008,582.8l-2.905,2.381c-2.477,1.977-5.857,4.787-9.524,7.93s-6.905,6.047-9.286,8.166l-2.81,2.488
		c-0.322,0.332-0.687,0.621-1.084,0.857c0.271-0.375,0.577-0.721,0.917-1.035c0.619-0.631,1.488-1.535,2.679-2.631
		c2.286-2.215,5.501-5.191,9.18-8.334s7.107-5.869,9.631-7.799c1.274-0.951,2.298-1.715,3.024-2.227
		c0.366-0.295,0.766-0.547,1.19-0.75C319.722,582.205,319.382,582.525,319.008,582.8z"/>
	<path fill="#F2B400" d="M269.398,451.16l2.047,15.084l-0.44,13.334l-28.156,24.336c0,0,25.562,22.953,55.135,32.275
		s72.053-21.764,72.053-21.764s0.095-2.154,0.238-5.451l14.822-4.633c7.703-1.701,8.536-5.154,12.905-11.727
		c4.155-6.262,5.036-14.75,3.965-22.18c-3.679-25.275-3.227-78.875-7.144-88.102c-7.882-18.549-31.704-25.954-34.157-25.954
		l-20.049-5.286l-40.598-1.19l-19.752,6.441l0,0c0,0-1,0.286-2.643,0.857l-3.81,1.25v0.203
		c-9.394,3.798-25.967,12.346-28.646,26.252c-3.321,17.132-9.524,66.35-9.524,66.35s-3.143,3.846-2.44,6.654l-35.717,24.514
		l11.811,29.098c0,0,53.408-25.764,56.552-37.324C266.635,471.328,267.921,462.589,269.398,451.16z"/>
	<path fill="#263238" d="M324.281,505.71l-0.06-0.654c-0.059-0.619-0.131-1.477-0.226-2.57c-0.167-2.299-0.417-5.609-0.727-9.822
		v-0.107h0.096l39.669-22.467l-0.154,0.273c-0.19-7.857-0.394-16.393-0.596-25.252c-0.214-11.631-0.464-22.703-0.333-32.799
		c0.006-4.777,0.316-9.549,0.929-14.287c0.521-4.151,1.614-8.209,3.25-12.06c1.446-3.147,3.465-5.997,5.953-8.405
		c1.873-1.821,4.049-3.303,6.429-4.381c1.521-0.664,3.122-1.128,4.762-1.381l1.274-0.119h0.429l-0.429,0.083l-1.262,0.167
		c-1.6,0.311-3.158,0.807-4.644,1.477c-2.327,1.104-4.449,2.598-6.274,4.417c-2.43,2.395-4.392,5.221-5.786,8.334
		c-1.585,3.807-2.643,7.813-3.143,11.905c-0.589,4.74-0.88,9.511-0.869,14.287c-0.096,10.072,0.166,21.144,0.381,32.777
		c0.202,8.857,0.393,17.393,0.571,25.238v0.191l-0.154,0.084l-39.884,22.203l0.083-0.154c0.25,4.215,0.44,7.535,0.571,9.834
		c0.06,1.107,0.131,1.965,0.131,2.584c0,0.262,0,0.5,0,0.654s0,0.227,0,0.227L324.281,505.71z"/>
	<path fill="#263238" d="M273.136,396.096c-1.804,2.505-3.272,5.235-4.37,8.12c-1.611,4.287-2.609,8.78-2.964,13.346
		c-0.43,5.598-0.263,11.225,0.5,16.787c0.798,5.953,1.869,11.572,2.893,16.668c1.024,5.096,1.774,9.715,2.215,13.619
		c0.381,3.086,0.584,6.191,0.607,9.299c0.023,1.096-0.06,1.953-0.06,2.523c0.007,0.297-0.017,0.592-0.071,0.881
		c-0.021-0.293-0.021-0.586,0-0.881c0-0.57,0-1.428,0-2.523c-0.06-2.191-0.263-5.357-0.798-9.238
		c-0.536-3.881-1.381-8.453-2.382-13.572c-1-5.119-2.154-10.715-2.952-16.668c-0.766-5.605-0.917-11.279-0.452-16.918
		c0.384-4.613,1.439-9.145,3.131-13.454c1.138-2.905,2.681-5.635,4.584-8.107c0.507-0.676,1.056-1.32,1.643-1.929
		c0.189-0.227,0.396-0.438,0.619-0.631C275.326,393.465,274.505,394.358,273.136,396.096z"/>
	<path fill="#263238" d="M235.431,458.732c1.988,0.188,3.894,0.893,5.523,2.047c1.643,1.139,2.953,2.691,3.799,4.502
		c0.394,0.732,0.609,1.549,0.631,2.381c-0.107,0.023-0.334-0.881-1.024-2.168c-1.862-3.371-5.173-5.699-8.977-6.309
		c-1.44-0.227-2.381-0.119-2.381-0.227C233.782,458.691,234.615,458.613,235.431,458.732z"/>
	<path fill="#263238" d="M251.753,462.898c-1.987-5.246-6.567-9.078-12.084-10.107c-2.084-0.428-3.417-0.32-3.417-0.428
		c0.299-0.102,0.613-0.15,0.929-0.143c0.855-0.035,1.712,0.008,2.56,0.131c5.782,0.818,10.6,4.848,12.43,10.393
		c0.277,0.813,0.474,1.65,0.583,2.5c0.055,0.313,0.055,0.631,0,0.941C252.634,466.197,252.491,464.875,251.753,462.898z"/>
	<path fill="#263238" d="M276.719,482.185c0.667,0.846,1.667,2.037,2.953,3.453c3.364,3.682,7.157,6.947,11.298,9.727
		c2.294,1.516,4.68,2.889,7.144,4.107c2.013,0.986,4.075,1.863,6.179,2.631c1.798,0.645,3.274,1.119,4.311,1.406
		c0.545,0.123,1.075,0.303,1.583,0.535c-0.555-0.053-1.104-0.152-1.643-0.297c-1.485-0.314-2.952-0.713-4.394-1.191
		c-2.146-0.707-4.246-1.549-6.286-2.523c-2.496-1.203-4.906-2.576-7.215-4.107c-2.298-1.549-4.486-3.256-6.548-5.107
		c-1.689-1.512-3.279-3.131-4.763-4.846c-1.004-1.139-1.946-2.332-2.821-3.572c-0.337-0.443-0.64-0.914-0.905-1.404
		C276.019,481.355,276.389,481.753,276.719,482.185z"/>
	<path fill="#FAFAFA" d="M258.075,449.863c0.112-5.453-0.787-10.879-2.655-16.002c-0.453-1.041-0.851-2.107-1.19-3.191
		c0.648,0.941,1.173,1.961,1.56,3.037c1.067,2.545,1.83,5.205,2.273,7.93c0.459,2.725,0.599,5.492,0.417,8.25
		c-0.022,1.143-0.19,2.279-0.5,3.381C257.945,452.13,257.976,450.994,258.075,449.863z"/>
	<path fill="#FAFAFA" d="M255.384,433.146c-0.667-1.908-0.935-3.936-0.785-5.953C255.253,429.107,255.52,431.13,255.384,433.146z"/>
	<path fill="#FAFAFA" d="M254.23,430.05c0.619,1.18,1.131,2.133,1,2.238c-0.131,0.107-0.893-0.762-1.548-1.951
		c-0.655-1.191-0.917-2.322-0.75-2.381C253.086,427.896,253.611,428.873,254.23,430.05z"/>
	<path fill="#FAFAFA" d="M253.599,430.849c1.047,0.939,1.81,1.809,1.69,1.939c-0.119,0.133-1.06-0.535-2.107-1.475
		c-1.048-0.941-1.81-1.811-1.69-1.93C251.646,429.253,252.551,429.908,253.599,430.849z"/>
	<path fill="#FAFAFA" d="M252.92,431.861c1.19,0.404,2.083,0.857,2.036,1.023c-0.048,0.168-1.061-0.035-2.238-0.439
		c-1.179-0.406-2.084-0.869-2.024-1.025C250.741,431.253,251.73,431.457,252.92,431.861z"/>
	<path fill="#FAFAFA" d="M252.455,439.099c1.225,0.334,2.354,0.951,3.298,1.799c0.955,0.836,1.708,1.877,2.203,3.047
		c0.321,0.904,0.393,1.523,0.321,1.523c-0.729-1.529-1.721-2.918-2.929-4.107c-1.337-1.035-2.838-1.842-4.441-2.381
		C251.425,438.873,251.961,438.914,252.455,439.099z"/>
	<path fill="#FAFAFA" d="M250.98,437.718c0.869,0.869,1.321,1.762,1.19,1.857s-0.81-0.584-1.632-1.416
		c-0.821-0.834-1.512-1.514-1.404-1.656C249.265,436.373,250.111,436.849,250.98,437.718z"/>
	<path fill="#FAFAFA" d="M250.086,438.148c1.155,0.451,1.834,1.201,1.727,1.332s-0.917-0.357-1.952-0.762
		c-1.036-0.404-1.941-0.584-1.941-0.762C247.919,437.791,248.932,437.695,250.086,438.148z"/>
	<path fill="#FAFAFA" d="M249.444,439.541c1.012-0.262,1.869-0.43,1.917-0.262c0.047,0.166-0.727,0.582-1.738,0.844
		s-1.917,0.43-1.917,0.262C247.646,440.171,248.432,439.802,249.444,439.541z"/>
	<path fill="#FAFAFA" d="M250.551,440.041c0.535-0.727,1.048-1.287,1.19-1.191s-0.096,0.822-0.631,1.561
		c-0.536,0.738-1.048,1.285-1.19,1.189C249.777,441.503,250.015,440.767,250.551,440.041z"/>
	<path fill="#FAFAFA" d="M320.424,470.101c-4.609,2.93-8.645,6.678-11.905,11.061c-0.624,0.949-1.3,1.863-2.023,2.738
		c0.426-1.063,0.985-2.066,1.667-2.988c1.54-2.293,3.338-4.4,5.356-6.285c2.02-1.883,4.248-3.523,6.644-4.895
		c0.965-0.615,2.005-1.104,3.096-1.451C322.35,468.943,321.404,469.55,320.424,470.101z"/>
	<path fill="#FAFAFA" d="M305.519,483.269c1.286-1.096,2.357-1.881,2.477-1.75s-0.81,1.119-2.071,2.215
		c-0.699,0.744-1.542,1.34-2.477,1.75C303.34,485.412,304.233,484.365,305.519,483.269z"/>
	<path fill="#FAFAFA" d="M306.031,484.21c0.644-1.18,1.167-2.145,1.322-2.084c0.154,0.059-0.119,1.166-0.774,2.381
		c-0.654,1.215-1.429,2.035-1.571,1.941C304.865,486.341,305.388,485.388,306.031,484.21z"/>
	<path fill="#FAFAFA" d="M307.734,481.804c0.18,0.852,0.155,1.732-0.071,2.572c-0.203,1.393-0.501,2.477-0.679,2.477
		C306.826,485.134,307.084,483.404,307.734,481.804z"/>
	<path fill="#FAFAFA" d="M308.257,484.292c-0.262-1.213-0.429-2.213-0.262-2.262c0.167-0.047,0.607,0.904,0.869,2.107
		s0.429,2.262,0.262,2.262C308.959,486.449,308.519,485.507,308.257,484.292z"/>
	<path fill="#FAFAFA" d="M314.555,480.673c-0.803-2.441-0.434-5.117,1-7.25c0.548-0.797,1.084-1.119,1.084-1.119
		c-1.926,2.865-2.422,6.459-1.346,9.738C315.234,482.08,314.865,481.591,314.555,480.673z"/>
	<path fill="#FAFAFA" d="M314.222,482.673c0.238-1.201,0.714-2.082,0.881-2.023c0.167,0.061-0.036,1.012-0.273,2.154
		c-0.238,1.145-0.429,2.072-0.596,2.072S313.984,483.876,314.222,482.673z"/>
	<path fill="#FAFAFA" d="M315.067,483.173c-0.262-1.201-0.023-2.178,0.155-2.166s0.226,0.939,0.452,2.035s0.583,1.965,0.429,2.049
		C315.936,485.187,315.329,484.376,315.067,483.173z"/>
	<path fill="#FAFAFA" d="M316.579,482.949c-0.81-0.668-1.394-1.322-1.274-1.453s0.869,0.297,1.679,0.977
		c0.81,0.678,1.381,1.332,1.274,1.463C318.139,484.068,317.389,483.615,316.579,482.949z"/>
	<path fill="#FAFAFA" d="M316.401,481.746c-0.905,0.012-1.631-0.119-1.644-0.285c-0.012-0.168,0.715-0.322,1.632-0.334
		c0.916-0.012,1.654,0.119,1.654,0.285C318.043,481.58,317.305,481.734,316.401,481.746z"/>
	<path fill="#FAFAFA" d="M291.435,453.851c-0.269,5.535-1.8,10.934-4.477,15.787c-0.501,1.023-1.138,1.977-1.894,2.832
		c0.451-1.037,0.955-2.051,1.513-3.035c1.196-2.445,2.177-4.99,2.929-7.607c0.736-2.617,1.234-5.295,1.488-8
		c0.043-1.137,0.15-2.27,0.321-3.395C291.499,451.562,291.539,452.71,291.435,453.851z"/>
	<path fill="#FAFAFA" d="M285.41,472.888c0.15-1.012,0.498-1.982,1.023-2.857c0.063,1.018-0.083,2.039-0.429,3
		c-0.141,1.012-0.489,1.984-1.023,2.857C284.92,474.869,285.067,473.849,285.41,472.888z"/>
	<path fill="#FAFAFA" d="M284.446,472.685c0.774-1.143,1.572-1.893,1.751-1.773c0.178,0.119-0.429,1.012-1.191,2.119
		c-0.762,1.107-1.369,2.012-1.523,1.928C283.326,474.888,283.672,473.828,284.446,472.685z"/>
	<path fill="#FAFAFA" d="M284.101,471.65c1.143-0.773,2.167-1.334,2.262-1.191c0.096,0.143-0.762,0.953-1.904,1.738
		c-1.144,0.785-2.155,1.334-2.251,1.191C282.113,473.246,282.958,472.423,284.101,471.65z"/>
	<path fill="#FAFAFA" d="M283.78,470.482c1.214-0.273,2.214-0.357,2.262-0.189c0.048,0.166-0.917,0.523-2.131,0.797
		c-1.215,0.273-2.274,0.357-2.274,0.191C281.601,471.126,282.565,470.757,283.78,470.482z"/>
	<path fill="#FAFAFA" d="M282.696,463.767c3.415-0.527,6.39-2.611,8.049-5.643c0.071,0.023-0.036,0.619-0.488,1.477
		c-0.618,1.109-1.481,2.061-2.524,2.785c-1.033,0.734-2.224,1.221-3.477,1.418c-0.509,0.148-1.05,0.148-1.56,0V463.767z"/>
	<path fill="#FAFAFA" d="M282.243,464.531c0.905-0.703,1.667-1.299,1.786-1.191s-0.453,0.928-1.405,1.703
		c-0.952,0.773-1.881,1.143-1.964,1C280.576,465.886,281.338,465.232,282.243,464.531z"/>
	<path fill="#FAFAFA" d="M281.636,463.875c1.084-0.285,1.905-0.678,2.013-0.535c0.106,0.143-0.667,0.762-1.857,1.131
		s-2.179,0.166-2.179,0C279.624,464.292,280.553,464.162,281.636,463.875z"/>
	<path fill="#FAFAFA" d="M281.541,462.494c0.976,0.416,1.714,0.893,1.643,1.049c-0.071,0.154-0.917-0.061-1.881-0.477
		c-0.965-0.418-1.702-0.881-1.631-1.037C279.732,461.875,280.565,462.078,281.541,462.494z"/>
	<path fill="#FAFAFA" d="M283.017,462.41c0.441,0.811,0.584,1.525,0.441,1.607c-0.144,0.084-0.548-0.512-1-1.332
		c-0.453-0.822-0.607-1.537-0.453-1.619C282.16,460.994,282.576,461.601,283.017,462.41z"/>
	<path fill="#FAFAFA" d="M290.91,464.244c-0.575-1.643-0.596-3.428-0.06-5.084c0.08,1.654,0.299,3.301,0.655,4.918
		c0.558,1.561,1.242,3.074,2.048,4.523C292.225,467.474,291.297,465.945,290.91,464.244z"/>
	<path fill="#FAFAFA" d="M292.125,470.22c0.226-1.285,0.44-2.32,0.607-2.32c0.228,0.777,0.228,1.604,0,2.381
		c-0.238,1.32-0.667,2.273-0.834,2.273C291.733,472.507,291.899,471.507,292.125,470.22z"/>
	<path fill="#FAFAFA" d="M293.899,470.138c-0.583-1.119-0.785-2.133-0.666-2.191c0.119-0.061,0.631,0.822,1.19,1.904
		c0.56,1.084,1,1.988,0.857,2.084C295.137,472.031,294.483,471.257,293.899,470.138z"/>
	<path fill="#FAFAFA" d="M295.316,468.804c-1.131-0.322-1.869-0.93-1.786-1.084c0.084-0.154,0.929,0.18,1.965,0.488
		c1.036,0.311,1.917,0.453,1.917,0.631C297.423,469.005,296.447,469.125,295.316,468.804z"/>
	<path fill="#FAFAFA" d="M294.804,467.162c-1.036,0.357-1.893,0.094-1.869-0.084s0.798-0.227,1.667-0.512s1.488-0.762,1.619-0.631
		C296.352,466.031,295.84,466.804,294.804,467.162z"/>
	<path fill="#FAFAFA" d="M307.603,461.601c1.363-5.375,3.951-10.361,7.56-14.572c0.687-0.895,1.487-1.693,2.381-2.381
		c-0.648,0.934-1.349,1.832-2.096,2.689c-1.668,2.145-3.138,4.438-4.393,6.846c-1.246,2.42-2.274,4.947-3.071,7.549
		c-0.267,1.105-0.596,2.195-0.988,3.262C307.047,463.841,307.251,462.701,307.603,461.601z"/>
	<path fill="#FAFAFA" d="M317.222,444.148c-0.342,0.959-0.877,1.838-1.571,2.582c0.474-1.975,1.358-3.828,2.595-5.439
		C318.102,442.302,317.753,443.275,317.222,444.148z"/>
	<path fill="#FAFAFA" d="M318.139,444.587c-0.988,0.965-1.965,1.525-2.072,1.381c-0.106-0.143,0.679-0.893,1.644-1.82
		c0.964-0.93,1.738-1.703,1.881-1.596C319.722,442.636,319.127,443.625,318.139,444.587z"/>
	<path fill="#FAFAFA" d="M318.318,445.648c-0.752,0.439-1.596,0.697-2.465,0.75c-0.06-0.131,0.929-0.75,2.215-1.322
		c0.746-0.439,1.587-0.697,2.452-0.75C320.591,444.48,319.603,445.076,318.318,445.648z"/>
	<path fill="#FAFAFA" d="M318.448,446.863c-1.25,0.023-2.263-0.107-2.263-0.275c0-0.166,1-0.32,2.25-0.344
		c1.251-0.025,2.263,0.094,2.263,0.273C320.698,446.683,319.698,446.837,318.448,446.863z"/>
	<path fill="#FAFAFA" d="M313.151,454.529c-1.512,0.762-2.881,1.775-4.048,3c-0.071-0.035,0.154-0.596,0.773-1.346
		c1.683-1.941,4.158-3.016,6.727-2.916c0.527-0.027,1.053,0.096,1.512,0.357C316.419,453.63,314.739,453.937,313.151,454.529z"/>
	<path fill="#FAFAFA" d="M318.722,452.97c-1.048,0.535-1.905,1.047-2,0.844c-0.096-0.201,0.631-0.809,1.714-1.393
		c1.084-0.582,2.132-0.75,2.132-0.582C320.615,452.005,319.77,452.433,318.722,452.97z"/>
	<path fill="#FAFAFA" d="M319.187,453.72c-1.119,0.105-2.013,0.25-2.084,0.105c-0.071-0.143,0.821-0.643,2.048-0.725
		c1.227-0.084,2.119,0.32,2.119,0.488C321.222,453.755,320.306,453.613,319.187,453.72z"/>
	<path fill="#FAFAFA" d="M318.948,455.125c-0.869-0.596-1.488-1.191-1.394-1.334c0.096-0.143,0.894,0.238,1.75,0.834
		c0.857,0.596,1.488,1.203,1.394,1.346C320.627,456.101,319.818,455.72,318.948,455.125z"/>
	<path fill="#FAFAFA" d="M317.531,454.921c-0.238-0.881-0.286-1.619-0.119-1.666s0.488,0.631,0.714,1.512
		c0.227,0.881,0.286,1.666,0.119,1.666C318.079,456.482,317.77,455.802,317.531,454.921z"/>
	<path fill="#FAFAFA" d="M309.198,456.529c0.255-1.635,0.37-3.287,0.346-4.939c-0.227-1.643-0.597-3.26-1.107-4.834
		C310.476,449.623,310.769,453.38,309.198,456.529z"/>
	<path fill="#FAFAFA" d="M310.162,445.494c-0.477,1.213-0.894,2.154-1.06,2.154c-0.074-0.824,0.096-1.652,0.488-2.381
		c0.487-1.25,1.119-2.143,1.262-2.072C311.007,443.279,310.638,444.279,310.162,445.494z"/>
	<path fill="#FAFAFA" d="M308.448,445.183c0.346,1.215,0.381,2.25,0.215,2.273c-0.167,0.025-0.465-0.928-0.81-2.107
		c-0.346-1.178-0.596-2.154-0.429-2.213C307.603,443.064,308.103,443.968,308.448,445.183z"/>
	<path fill="#FAFAFA" d="M306.757,446.195c1.048,0.535,1.655,1.287,1.536,1.418s-0.857-0.357-1.822-0.869
		c-0.964-0.514-1.762-0.834-1.762-1C304.733,445.576,305.709,445.66,306.757,446.195z"/>
	<path fill="#FAFAFA" d="M306.936,447.91c1.083-0.143,1.869,0.285,1.81,0.453c-0.06,0.166-0.81,0.059-1.727,0.166
		c-0.916,0.107-1.619,0.439-1.714,0.297C305.221,448.707,305.852,448.052,306.936,447.91z"/>
	<path fill="#FAFAFA" d="M305.102,525.892c1.375-5.379,3.975-10.367,7.596-14.574c0.688-0.893,1.487-1.693,2.382-2.381
		c-0.649,0.936-1.349,1.834-2.096,2.691c-1.671,2.146-3.141,4.443-4.394,6.857c-1.248,2.418-2.276,4.945-3.071,7.549
		c-0.265,1.102-0.595,2.188-0.988,3.25C304.572,528.132,304.763,526.992,305.102,525.892z"/>
	<path fill="#FAFAFA" d="M314.757,508.437c-0.342,0.961-0.877,1.84-1.571,2.584c0.143-1.01,0.487-1.982,1.012-2.857
		c0.353-0.957,0.891-1.834,1.584-2.584C315.637,506.593,315.289,507.564,314.757,508.437z"/>
	<path fill="#FAFAFA" d="M315.674,508.867c-0.988,0.965-1.964,1.523-2.071,1.381s0.679-0.893,1.643-1.822
		c0.965-0.928,1.738-1.701,1.881-1.582C317.258,506.925,316.662,507.902,315.674,508.867z"/>
	<path fill="#FAFAFA" d="M315.853,509.937c-0.751,0.441-1.596,0.697-2.465,0.75c-0.06-0.119,0.929-0.736,2.215-1.309
		c0.748-0.439,1.587-0.701,2.452-0.762C318.126,508.783,317.126,509.367,315.853,509.937z"/>
	<path fill="#FAFAFA" d="M315.936,511.152c-1.25,0.023-2.262-0.084-2.262-0.262s1-0.334,2.25-0.357s2.262,0.096,2.262,0.273
		C318.198,510.974,317.186,511.128,315.936,511.152z"/>
	<path fill="#FAFAFA" d="M310.686,518.82c-1.505,0.77-2.873,1.783-4.048,3c-0.071-0.035,0.155-0.596,0.773-1.334
		c0.829-0.963,1.868-1.725,3.036-2.227c1.159-0.516,2.424-0.752,3.69-0.689c0.526-0.027,1.051,0.092,1.513,0.344
		C313.956,517.935,312.278,518.242,310.686,518.82z"/>
	<path fill="#FAFAFA" d="M316.257,517.259c-1.047,0.537-1.904,0.977-2,0.846c-0.095-0.131,0.631-0.809,1.715-1.393
		c1.083-0.584,2.131-0.75,2.131-0.584C318.151,516.294,317.305,516.724,316.257,517.259z"/>
	<path fill="#FAFAFA" d="M316.722,518.009c-1.119,0.061-2.012,0.273-2.084,0.119c-0.071-0.154,0.822-0.666,2.048-0.738
		c1.227-0.07,2.119,0.334,2.119,0.488C318.758,518.046,317.841,517.951,316.722,518.009z"/>
	<path fill="#FAFAFA" d="M316.567,519.427c-0.869-0.607-1.487-1.203-1.393-1.346c0.096-0.143,0.893,0.238,1.75,0.834
		c0.857,0.594,1.488,1.201,1.394,1.344C318.162,520.404,317.436,520.035,316.567,519.427z"/>
	<path fill="#FAFAFA" d="M315.067,519.212c-0.238-0.869-0.285-1.631-0.119-1.666c0.167-0.037,0.488,0.631,0.715,1.512
		s0.285,1.666,0.119,1.666C315.615,520.771,315.305,520.082,315.067,519.212z"/>
	<path fill="#FAFAFA" d="M306.734,520.82c0.72-3.262,0.454-6.664-0.763-9.775C308.011,513.912,308.305,517.671,306.734,520.82z"/>
	<path fill="#FAFAFA" d="M307.698,509.783c-0.477,1.215-0.893,2.154-1.06,2.154c-0.074-0.824,0.096-1.652,0.488-2.381
		c0.488-1.25,1.119-2.143,1.262-2.07C308.543,507.568,308.174,508.568,307.698,509.783z"/>
	<path fill="#FAFAFA" d="M305.984,509.474c0.345,1.213,0.381,2.238,0.214,2.273s-0.464-0.93-0.81-2.107s-0.596-2.143-0.429-2.215
		C305.115,507.367,305.638,508.259,305.984,509.474z"/>
	<path fill="#FAFAFA" d="M304.292,510.486c1.048,0.535,1.655,1.285,1.536,1.416s-0.857-0.357-1.821-0.869
		c-0.965-0.512-1.762-0.82-1.762-1C302.269,509.867,303.245,509.949,304.292,510.486z"/>
	<path fill="#FAFAFA" d="M304.471,512.201c1.084-0.145,1.869,0.285,1.81,0.451c-0.06,0.168-0.81,0.061-1.726,0.168
		c-0.917,0.105-1.619,0.451-1.715,0.297C302.721,512.998,303.388,512.343,304.471,512.201z"/>
	<path fill="#FAFAFA" d="M216.763,485.103c0.24,1.723-0.095,3.477-0.953,4.988c0.247-1.635,0.358-3.287,0.334-4.941
		c-0.226-1.639-0.592-3.256-1.096-4.834C216.138,481.675,216.741,483.361,216.763,485.103z"/>
	<path fill="#FAFAFA" d="M213.358,479.757c1.048,0.535,1.667,1.285,1.548,1.416s-0.881-0.357-1.834-0.869
		c-0.952-0.512-1.762-0.832-1.762-1C211.346,479.138,212.31,479.222,213.358,479.757z"/>
	<path fill="#FAFAFA" d="M213.536,481.472c1.083-0.145,1.881,0.285,1.821,0.451c-0.06,0.168-0.833,0.061-1.738,0.168
		c-0.904,0.105-1.607,0.451-1.714,0.297C211.798,482.269,212.452,481.615,213.536,481.472z"/>
	<path fill="#FAFAFA" d="M363.654,491.794c4.568-3.131,9.794-5.168,15.275-5.953c1.125-0.215,2.273-0.283,3.417-0.203
		c0.012,0.096-1.286,0.238-3.346,0.643c-2.669,0.518-5.287,1.27-7.822,2.25c-2.535,0.994-4.974,2.219-7.286,3.656
		c-0.927,0.648-1.889,1.244-2.881,1.785C361.792,493.134,362.681,492.402,363.654,491.794z"/>
	<path fill="#FAFAFA" d="M382.441,485.054c-0.895,0.492-1.878,0.801-2.893,0.906c0.777-0.664,1.681-1.166,2.654-1.477
		c0.889-0.506,1.875-0.814,2.894-0.904C384.317,484.24,383.414,484.742,382.441,485.054z"/>
	<path fill="#FAFAFA" d="M382.858,486.031c-0.841,0.141-1.703,0.025-2.477-0.332c0.06-0.18,1.107-0.18,2.44-0.287
		c1.334-0.107,2.465-0.178,2.465,0C384.556,485.855,383.71,486.072,382.858,486.031z"/>
	<path fill="#FAFAFA" d="M382.274,486.9c-1.381-0.416-2.381-0.893-2.381-1.059c0.866-0.047,1.731,0.113,2.524,0.463
		c1.381,0.418,2.381,0.895,2.381,1.061C383.933,487.404,383.07,487.246,382.274,486.9z"/>
	<path fill="#FAFAFA" d="M381.536,487.9c-0.953-0.797-1.632-1.523-1.524-1.689c0.107-0.168,0.977,0.393,1.929,1.189
		c0.952,0.799,1.631,1.561,1.524,1.691C383.346,489.222,382.489,488.699,381.536,487.9z"/>
	<path fill="#FAFAFA" d="M367.511,489.757c-0.023-0.07,0.512-0.346,1.465-0.5c2.545-0.357,5.114,0.467,6.977,2.238
		c0.69,0.691,0.917,1.262,0.917,1.262C374.38,490.367,370.926,489.259,367.511,489.757z"/>
	<path fill="#FAFAFA" d="M377.75,492.664c-1.144-0.287-2.072-0.514-2.06-0.68c0.012-0.166,1.012-0.215,2.202,0.084
		c1.19,0.297,2.06,0.809,1.988,0.965C379.81,493.187,378.893,492.949,377.75,492.664z"/>
	<path fill="#FAFAFA" d="M377.607,493.544c-0.881-0.691-1.69-1.145-1.643-1.299s1.048,0.061,2.024,0.811
		c0.976,0.75,1.416,1.678,1.273,1.762C379.119,494.937,378.489,494.234,377.607,493.544z"/>
	<path fill="#FAFAFA" d="M376.524,494.472c-0.262-1.023-0.333-1.881-0.167-1.928c0.167-0.049,0.5,0.75,0.763,1.773
		c0.262,1.023,0.333,1.928,0.166,1.928C377.119,496.294,376.785,495.496,376.524,494.472z"/>
	<path fill="#FAFAFA" d="M375.56,493.33c0.404-0.811,0.856-1.416,1.012-1.334c0.154,0.084-0.048,0.787-0.452,1.607
		c-0.405,0.822-0.869,1.418-1.013,1.334C374.952,494.937,375.155,494.138,375.56,493.33z"/>
	<path fill="#FAFAFA" d="M374.047,481.21c-0.381,3.494-2.635,6.506-5.881,7.857c1.286-1.061,2.481-2.229,3.571-3.488
		c0.917-1.387,1.714-2.848,2.381-4.369H374.047z"/>
	<path fill="#FAFAFA" d="M376.25,481.412c-1.167,0.596-2.119,1.061-2.215,0.918c-0.096-0.145,0.738-0.869,1.929-1.477
		s2.25-0.869,2.31-0.715C378.345,480.304,377.416,480.816,376.25,481.412z"/>
	<path fill="#FAFAFA" d="M344.747,458.148c1.483-0.738,2.901-1.604,4.238-2.584c-0.938,1.467-2.343,2.574-3.988,3.145
		c-1.56,0.781-3.336,1.02-5.048,0.678C341.581,459.111,343.187,458.697,344.747,458.148z"/>
	<path fill="#FAFAFA" d="M339.164,461.089c0.881-1.012,1.773-1.654,1.893-1.523s-0.571,0.951-1.429,1.928s-1.583,1.773-1.727,1.668
		C337.771,463.066,338.282,462.101,339.164,461.089z"/>
	<path fill="#FAFAFA" d="M338.438,459.541c1.202-0.236,2.202-0.393,2.25-0.236c0.048,0.154-0.893,0.631-2.131,0.844
		c-1.238,0.215-2.286,0.168-2.286,0C336.259,459.97,337.236,459.779,338.438,459.541z"/>
	<path fill="#FAFAFA" d="M339.057,457.671c0.893,0.596,1.667,1.037,1.619,1.191s-1.012-0.035-1.977-0.715
		c-0.964-0.678-1.464-1.512-1.333-1.619C337.473,456.421,338.164,457.078,339.057,457.671z"/>
	<path fill="#FAFAFA" d="M340.89,457.302c0.298,0.869,0.715,1.488,0.655,1.619c-0.06,0.133-0.75-0.381-1.19-1.404
		s-0.155-1.869,0-1.869C340.533,455.648,340.593,456.433,340.89,457.302z"/>
	<path fill="#FAFAFA" d="M280.041,439.218c1.481-0.738,2.898-1.598,4.238-2.572c-0.946,1.459-2.349,2.564-3.988,3.145
		c-1.564,0.768-3.337,1.006-5.048,0.678C276.874,440.185,278.479,439.767,280.041,439.218z"/>
	<path fill="#FAFAFA" d="M274.457,442.16c0.881-1,1.773-1.643,1.893-1.512s-0.571,0.951-1.429,1.928
		c-0.856,0.977-1.583,1.762-1.726,1.668C273.076,444.148,273.576,443.16,274.457,442.16z"/>
	<path fill="#FAFAFA" d="M273.731,440.611c1.203-0.238,2.179-0.404,2.238-0.238c0.06,0.168-0.881,0.631-2.119,0.846
		s-2.286,0.168-2.286,0C271.552,441.052,272.529,440.849,273.731,440.611z"/>
	<path fill="#FAFAFA" d="M274.326,438.742c0.893,0.607,1.667,1.025,1.619,1.191s-1.012-0.049-1.977-0.715
		c-0.964-0.666-1.464-1.512-1.333-1.607C272.767,437.492,273.433,438.134,274.326,438.742z"/>
	<path fill="#FAFAFA" d="M276.124,438.384c0.297,0.869,0.714,1.465,0.654,1.607s-0.81-0.381-1.19-1.404s-0.095-1.869,0.06-1.869
		C275.826,436.742,275.826,437.515,276.124,438.384z"/>
	<path fill="#808080" d="M355.498,308.542c-3.119,6.786-3.762,15.073-0.238,21.632c3.524,6.56,11.775,10.751,18.847,8.334
		c7.072-2.417,10.93-12.167,6.405-18.12c8.417,4.274,19.978,0.429,24.169-8.024c4.19-8.453,0.25-19.978-8.251-24.085
		c1.286-5.346-1.786-11.215-6.548-13.882c-4.989-2.538-10.904-2.471-15.835,0.178c-4.849,2.686-8.661,6.914-10.834,12.013"/>
	<path fill="#F2B400" d="M361.023,288.053c-1.651-0.213-3.266,0.604-4.072,2.06c-0.763,1.436-1.229,3.011-1.369,4.631
		c-0.555,3.659-1.11,7.314-1.666,10.965c-0.475,2.394-0.631,4.84-0.465,7.274c0.185,2.46,1.331,4.749,3.19,6.37
		c2.223,1.737,5.276,1.957,7.725,0.555c3.326-1.905,4.479-6.146,2.574-9.473c2.847-0.078,5.402-1.765,6.595-4.351
		c1.731-3.756,0.09-8.205-3.666-9.936c2.584-1.164,3.827-4.128,2.846-6.786c-1.131-2.572-3.805-4.107-6.596-3.786
		c-2.752,0.421-5.08,2.257-6.132,4.833"/>
	<path fill="#808080" d="M258.432,284.851c1.794,4.59,5.354,8.27,9.882,10.215c1.183,1.579,2.619,2.951,4.25,4.06
		c-4.438,8.5-2.563,18.925,4.559,25.346c8.623,7.776,21.918,7.089,29.694-1.535l20.18-49.206l22.787-11.453
		c0.488-2.144,0.316-4.385-0.492-6.429c-2.215-5.601-8.551-8.346-14.151-6.132c-1.013-3.534-3.133-6.65-6.049-8.889
		c-7.521-5.774-18.298-4.358-24.072,3.162c-5.155-1.56-10.357-3.119-15.751-3.274s-11.024,1.262-14.918,4.977
		c-3.893,3.714-5.524,10.013-2.905,14.704C261.337,262.956,254.872,275.124,258.432,284.851z"/>
	<path fill="#FFBE9D" d="M299.485,355.097c-0.177,11.387,8.91,20.762,20.297,20.939l0,0c10.669,0.17,19.702-7.831,20.823-18.442
		l2.381-24.907l6.132-55.825l-0.167-1.691c0.357-3.56-0.596-6.655-4.167-7.31l-35.717-12.108
		c-11.584-2.155-20.489,11.608-22.156,23.275c-1.846,12.954-3.596,28.848-2.821,38.682c1.56,19.787,16.322,23.501,16.334,23.454
		c0.012-0.048-0.369,5.191-0.893,12.846C299.506,354.372,299.49,354.734,299.485,355.097z"/>
	<path fill="#263238" d="M292.26,293.836c0.221-1.297,1.45-2.169,2.746-1.949c1.35,0.167,2.327,1.371,2.215,2.726
		c-0.005,0.034-0.01,0.067-0.015,0.101c-0.222,1.296-1.451,2.168-2.748,1.947c-1.354-0.15-2.339-1.357-2.214-2.714
		C292.248,293.909,292.254,293.873,292.26,293.836z"/>
	<path fill="#263238" d="M291.256,288.268c1.198-0.734,2.6-1.068,4-0.953c1.422,0.105,2.777,0.646,3.882,1.547
		c0.81,0.691,1.25,1.131,0.928,1.441c-0.321,0.31-2.202-1.191-4.893-1.417s-4.703,1.036-4.988,0.679
		C290.041,289.41,290.375,288.839,291.256,288.268z"/>
	<path fill="#263238" d="M317.642,295.405c0.221-1.296,1.45-2.168,2.747-1.947c1.354,0.15,2.34,1.357,2.214,2.715
		c-0.004,0.037-0.01,0.074-0.016,0.11c-0.22,1.296-1.449,2.169-2.746,1.949c-1.354-0.162-2.333-1.369-2.215-2.727
		C317.631,295.472,317.636,295.439,317.642,295.405z"/>
	<path fill="#263238" d="M317.008,289.791c1.198-0.734,2.599-1.067,4-0.952c1.42,0.103,2.775,0.638,3.881,1.536
		c0.81,0.703,1.25,1.143,0.929,1.453s-2.179-1.19-4.881-1.417c-2.703-0.226-4.715,1.036-5.001,0.679
		C315.829,290.934,316.162,290.363,317.008,289.791z"/>
	<path fill="#263238" d="M300.4,309.007c-0.407-0.03-0.809-0.118-1.19-0.262c-0.506-0.178-0.899-0.584-1.06-1.096
		c-0.126-0.928,0.076-1.871,0.571-2.667l2.381-5.12c3.417-7.25,6.441-13.001,6.727-12.87c0.286,0.131-2.25,6.108-5.667,13.347
		c-0.857,1.773-1.667,3.476-2.452,5.083c-0.404,0.593-0.62,1.294-0.619,2.012c0.083,0.476,0.726,0.667,1.404,0.786
		c1.486,0.209,2.938,0.61,4.322,1.19C303.333,309.461,301.849,309.325,300.4,309.007z"/>
	<path fill="#EB996E" d="M300.078,346.152c19.405,3.381,27.097-9.894,27.097-9.894c-8.279,4.079-17.528,5.777-26.716,4.905
		L300.078,346.152z"/>
	<path fill="#808080" d="M316.626,286.005c3.11-1.143,6.574-0.782,9.382,0.976c1.036,0.703,1.488,1.393,1.298,1.703
		c-0.417,0.643-3-0.19-6.167-0.548c-3.167-0.357-5.869,0.012-6.144-0.726C314.876,287.065,315.46,286.481,316.626,286.005z"/>
	<path fill="#808080" d="M291.804,282.803c1.358-0.695,2.883-1.004,4.404-0.893c1.537,0.055,3.03,0.524,4.322,1.357
		c0.977,0.655,1.227,1.297,0.977,1.583c-0.56,0.607-2.763-0.012-5.405-0.19c-2.644-0.179-4.894,0.273-5.405-0.381
		C290.47,283.969,290.827,283.362,291.804,282.803z"/>
	<path fill="#808080" d="M336.176,257.586c-3.667-4.203-8.441-8.524-13.989-7.905c-2.846,0.286-5.405,1.893-8.227,2.381
		c-3.822,0.655-7.691-0.798-11.572-0.703c-4.736,0.164-9.104,2.602-11.728,6.548c-2.023,3.012-2.977,6.917-5.952,8.965
		c-1.382,0.988-3.048,1.369-4.513,2.179c-2.642,1.589-4.649,4.047-5.679,6.953c-1.02,2.88-1.703,5.869-2.036,8.906
		c3.298,1.297,6.857-1.024,9.311-3.572c2.452-2.548,4.81-5.608,8.263-6.346c4.477-0.964,9.738,2.262,13.417-0.464
		c2.572-1.905,3.144-6.12,5.846-7.465s5.857,0.417,8.798,1.19c0.805,0.213,1.628,0.351,2.458,0.411
		c7.384,0.536,13.805-5.015,14.341-12.399"/>
	<path fill="#808080" d="M327.902,267.075c-0.644,3.262,0.393,10.691,2,13.501c1.701,2.724,3.737,5.224,6.06,7.441
		c-1.798,3.571-1.917,16.453,4.763,15.477c0.441-0.059,0.868-0.196,1.262-0.405l0.952,29.609c2.846,0.012,3.572-9.691,7.144-10.144
		c3.571-0.453,9.072-1.191,8.334-7.144c0,0,10.513-4.833,5.334-13.251c-1.11-1.571-2.37-3.03-3.763-4.357
		c0.689-1.576,1.485-3.104,2.382-4.572c3.792-5.645,4.566-12.794,2.071-19.121c-2.466-6.046-8.036-10.265-14.525-11
		c-0.715-5.452-4.938-9.781-10.369-10.632c-5.12-0.655-10.394,2.095-13.608,6.489c-1.477,2.024-6.607,3.226-9.12,3.738
		C315.722,262.932,325.544,267.028,327.902,267.075z"/>
	<path fill="#FFBE9D" d="M339.807,316.246c-0.012,0.333,11.477,4.155,12.87-7.584c0.523-4.405-0.821-6.822-2.703-8.108
		c-0.726-0.455-1.545-0.741-2.396-0.837c-3.137-0.353-5.965,1.903-6.318,5.04C340.64,309.602,339.819,315.912,339.807,316.246z"/>
	<path fill="#EB996E" d="M344.272,312.888c0.5,0.444,1.174,0.636,1.833,0.524c1.75-0.333,3.215-2.381,3.572-4.763
		c0.17-1.125,0.06-2.273-0.322-3.345c-0.235-0.977-0.961-1.761-1.916-2.072c-0.403-0.114-0.835-0.054-1.191,0.167
		c-0.255,0.156-0.448,0.396-0.547,0.679c-0.155,0.464,0,0.702,0.071,0.69s0.023-0.25,0.214-0.56
		c0.271-0.424,0.805-0.598,1.274-0.417c0.712,0.325,1.22,0.979,1.357,1.75c0.295,0.971,0.372,1.996,0.226,3
		c-0.31,2.107-1.583,3.953-2.881,4.25c-0.515,0.135-1.063,0.063-1.524-0.203c-0.333-0.202-0.512-0.369-0.512-0.369
		C343.878,312.233,343.914,312.507,344.272,312.888z"/>
	<path fill="#4D4D4D" d="M277.434,296.351c-0.791-0.44-1.529-0.967-2.203-1.571c-2.51-2.251-4.278-5.211-5.071-8.489
		c-0.591-2.258-0.704-4.613-0.334-6.917c0.442-2.664,1.599-5.157,3.346-7.215c4.144-4.73,10.51-6.867,16.668-5.596
		c0.596,0.107,1.167,0.273,1.715,0.476c0.547,0.203,1.083,0.44,1.595,0.655l-0.666,0.477c-0.181-1.588,0.212-3.188,1.106-4.513
		c0.848-1.243,1.968-2.278,3.274-3.024c1.235-0.715,2.585-1.214,3.988-1.476c1.339-0.213,2.7-0.249,4.048-0.107
		c2.409,0.294,4.796,0.751,7.144,1.369c2.014,0.526,4.076,0.846,6.155,0.953c2.99,0.172,5.945-0.727,8.334-2.536
		c0.8-0.737,1.482-1.592,2.023-2.536c-0.063,0.282-0.163,0.554-0.298,0.81c-0.383,0.743-0.89,1.416-1.5,1.988
		c-2.401,2-5.461,3.035-8.584,2.905c-3.964,0.048-8.381-1.643-13.394-2.131c-2.604-0.312-5.239,0.227-7.513,1.536
		c-1.179,0.686-2.191,1.625-2.964,2.75c-0.768,1.145-1.104,2.524-0.952,3.894l0.095,0.773l-0.75-0.297
		c-0.488-0.19-0.952-0.464-1.488-0.607c-0.535-0.143-1.06-0.345-1.619-0.452c-5.833-1.203-11.865,0.799-15.822,5.25
		c-1.674,1.926-2.79,4.272-3.227,6.786c-0.386,2.201-0.316,4.458,0.202,6.631c0.728,3.172,2.356,6.066,4.691,8.334
		c1.679,1.583,2.869,2.143,2.81,2.238C278.219,296.744,277.934,296.601,277.434,296.351z"/>
	<path fill="#4D4D4D" d="M276.159,255.729c0.785-0.623,1.677-1.099,2.631-1.405c1.497-0.489,3.089-0.616,4.644-0.369
		c2.058,0.3,3.954,1.286,5.382,2.797l-0.691,0.167c1.314-5.008,5.276-8.888,10.311-10.096c1.982-0.452,4.042-0.452,6.024,0
		c1.807,0.422,3.569,1.016,5.263,1.774c2.745,1.373,5.61,2.493,8.56,3.346c1.985,0.529,4.065,0.603,6.084,0.214
		c1.404-0.322,2.154-0.679,2.167-0.655c0.012,0.023-0.155,0.143-0.488,0.345c-0.506,0.281-1.041,0.504-1.596,0.667
		c-2.065,0.541-4.232,0.565-6.31,0.072c-3.017-0.772-5.948-1.845-8.751-3.203c-3.131-1.31-6.894-2.607-10.715-1.655
		c-4.704,1.137-8.428,4.724-9.738,9.382l-0.179,0.738l-0.513-0.56c-1.29-1.412-3.01-2.357-4.893-2.691
		c-1.462-0.277-2.968-0.22-4.405,0.167c-1.244,0.395-2.42,0.977-3.488,1.726C275.398,256.467,275.624,256.193,276.159,255.729z"/>
	<path fill="#EA6872" d="M307.067,319.627c1.406,1.042,3.32,1.076,4.762,0.083c0.919-0.566,1.494-1.553,1.536-2.631
		c-0.017-0.473-0.193-0.926-0.5-1.286l0,0l-0.119-0.131l0,0c-0.785-1.033-1.97-1.686-3.262-1.798
		c-1.137-0.02-2.228,0.453-2.988,1.298C305.506,316.575,305.754,318.508,307.067,319.627z"/>
	<path fill="#263238" d="M313.151,314.709c-1.382,2.807-4.685,4.086-7.596,2.941c-1.048-0.44-1.513-0.94-1.429-1.083
		c0.083-0.143,0.666,0.167,1.654,0.369c1.252,0.281,2.559,0.194,3.763-0.25c1.196-0.492,2.226-1.319,2.964-2.381
		c0.584-0.821,0.821-1.393,0.977-1.393C313.555,312.936,313.626,313.65,313.151,314.709z"/>
	<path fill="#F2B400" d="M343.605,319.484c0.469,0.52,1.09,0.878,1.773,1.024c0.822,0.136,1.661-0.104,2.286-0.655
		c0.659-0.515,1.056-1.295,1.084-2.131c-0.014-0.699-0.251-1.375-0.679-1.929c-0.75-0.976-1.56-1.19-1.584-1.286
		c-0.023-0.095,1.013-0.203,2.084,0.857c0.62,0.644,0.988,1.489,1.035,2.381c-0.003,0.224-0.025,0.446-0.069,0.666
		c-0.395,2-2.336,3.301-4.335,2.906c-0.86-0.21-1.611-0.732-2.107-1.464c-0.834-1.25-0.536-2.203-0.44-2.203
		C342.807,317.639,342.795,318.52,343.605,319.484z"/>
	<path fill="#4D4D4D" d="M360.415,278.778c1.435-1.726,2.441-3.765,2.94-5.953c0.305-1.504,0.276-3.056-0.083-4.548
		c-0.393-1.711-1.27-3.273-2.523-4.5c-1.382-1.354-3.246-2.099-5.18-2.071c-2.066-0.03-4.031,0.897-5.321,2.512l-1.19,1.536
		l0.595-1.822v-0.119c1.481-3.847,1.396-8.121-0.238-11.905c-1.381-3.052-4.161-5.242-7.452-5.87
		c-2.235-0.315-4.505,0.258-6.322,1.595c-0.641,0.523-1.224,1.114-1.738,1.762c0.088-0.201,0.196-0.392,0.321-0.571
		c0.354-0.517,0.779-0.982,1.262-1.381c1.839-1.466,4.191-2.127,6.524-1.833c3.48,0.574,6.448,2.841,7.918,6.048
		c1.726,3.9,1.841,8.325,0.321,12.31v0.131l-0.536-0.286c1.403-1.778,3.557-2.8,5.822-2.762c2.088-0.019,4.098,0.795,5.583,2.262
		c1.308,1.307,2.216,2.959,2.62,4.762c0.356,1.567,0.356,3.195,0,4.763c-0.53,2.246-1.624,4.319-3.18,6.024
		c-0.404,0.463-0.842,0.897-1.31,1.298c-0.159,0.149-0.335,0.281-0.523,0.393C358.689,280.505,359.367,279.934,360.415,278.778z"/>
	<path fill="#4D4D4D" d="M378.572,319.091l0.977,0.286l3.738,1.107c1.957,0.572,3.944,1.037,5.952,1.393
		c2.667,0.487,5.39,0.583,8.084,0.286c3.26-0.345,6.37-1.549,9.013-3.488c2.979-2.311,4.905-5.721,5.346-9.465
		c0.479-4.141-0.219-8.333-2.012-12.096c-0.878-1.993-2.178-3.772-3.81-5.215c-1.688-1.463-3.84-2.278-6.072-2.298
		c-1.573-0.021-3.108,0.477-4.369,1.417l-0.405-0.464c1.406-1.555,2.419-3.425,2.953-5.453c0.489-1.979,0.579-4.035,0.262-6.048
		c-0.583-3.835-2.774-7.24-6.024-9.358c-2.952-1.862-6.426-2.722-9.905-2.452c-3.023,0.212-5.919,1.3-8.334,3.131
		c-1.96,1.527-3.582,3.445-4.763,5.631c-0.895,1.648-1.549,3.417-1.94,5.25c-0.311,1.568-0.458,3.164-0.44,4.762
		c-0.016-0.106-0.016-0.215,0-0.321c-0.06-0.238-0.06-0.548-0.06-0.929c-0.017-1.198,0.087-2.395,0.31-3.572
		c0.36-1.873,0.994-3.682,1.881-5.369c1.184-2.249,2.826-4.225,4.822-5.798c2.466-1.911,5.438-3.057,8.548-3.298
		c3.596-0.296,7.191,0.577,10.251,2.488c3.401,2.187,5.699,5.73,6.31,9.727c0.345,2.095,0.26,4.237-0.25,6.298
		c-0.55,2.135-1.617,4.102-3.107,5.727l-0.416-0.452c1.37-1.032,3.047-1.577,4.762-1.548c2.356,0.019,4.629,0.871,6.417,2.405
		c1.705,1.501,3.059,3.358,3.965,5.441c1.811,3.872,2.488,8.177,1.952,12.417c-0.48,3.879-2.496,7.405-5.595,9.787
		c-2.719,1.994-5.921,3.227-9.275,3.572c-2.738,0.271-5.501,0.142-8.202-0.381c-2.011-0.388-3.998-0.889-5.953-1.5
		c-1.619-0.464-2.869-0.905-3.703-1.19l-0.964-0.345c-0.202-0.083-0.31-0.143-0.31-0.143
		C378.328,319.029,378.453,319.049,378.572,319.091z"/>
	<path fill="#4D4D4D" d="M365.94,340.164c2.047,0.749,4.214,1.112,6.394,1.071c2.655-0.089,5.198-1.089,7.202-2.833
		c1.914-1.876,2.963-4.464,2.894-7.144c0.012-2.179-0.393-4.341-1.19-6.37c-0.584-1.702-1.321-3.119-1.774-4.083
		c-0.263-0.478-0.479-0.98-0.643-1.5c0.333,0.433,0.62,0.9,0.857,1.393c0.742,1.302,1.402,2.65,1.976,4.036
		c0.884,2.067,1.349,4.288,1.369,6.536c0.004,1.339-0.226,2.668-0.678,3.929c-0.494,1.365-1.311,2.591-2.382,3.572
		c-2.105,1.847-4.795,2.893-7.596,2.953c-2.25,0.027-4.485-0.377-6.584-1.191c-1.407-0.52-2.772-1.149-4.083-1.881
		c-0.493-0.241-0.96-0.532-1.394-0.869C360.367,337.652,362.368,338.878,365.94,340.164z"/>
	<path fill="#4D4D4D" d="M353.462,345.414c-0.424-0.042-0.832-0.185-1.19-0.417c-1.336-0.915-2.07-2.483-1.916-4.096
		c0.04-1.138,0.586-2.199,1.487-2.893c0.514-0.378,1.126-0.602,1.763-0.643c0.7-0.051,1.394,0.176,1.929,0.631
		c0.543,0.502,0.864,1.201,0.893,1.94c0.021,0.802-0.4,1.552-1.096,1.953c-1.436,0.661-3.116,0.492-4.393-0.44
		c-1.254-0.814-2.252-1.966-2.881-3.322c-0.599-1.24-0.935-2.589-0.988-3.964c-0.019-2.302,0.461-4.58,1.404-6.679
		c0.369-0.905,0.75-1.703,1.107-2.381c0.283-0.618,0.688-1.172,1.19-1.631c0.316-0.322,0.74-0.517,1.19-0.548
		c0.298,0,0.429,0.083,0.429,0.083c-0.542-0.008-1.06,0.223-1.417,0.631c-0.886,1.211-1.569,2.558-2.023,3.988
		c-0.839,2.063-1.244,4.275-1.19,6.501c0.067,2.709,1.414,5.226,3.631,6.786c0.571,0.375,1.218,0.623,1.894,0.726
		c0.632,0.113,1.284,0.017,1.856-0.274c0.506-0.297,0.814-0.842,0.81-1.429c-0.013-0.581-0.262-1.131-0.69-1.524
		c-0.883-0.683-2.116-0.683-3,0c-0.795,0.602-1.29,1.518-1.357,2.512c-0.169,1.48,0.444,2.942,1.619,3.857
		c0.458,0.301,0.973,0.504,1.513,0.595C353.851,345.446,353.653,345.459,353.462,345.414z"/>
	<path fill="#4D4D4D" d="M396.584,319.615c1.71-0.684,3.021-2.101,3.572-3.857c0.615-2.658-0.213-5.443-2.179-7.334
		c-2.325-2.39-5.577-3.646-8.905-3.44c-0.772,0.046-1.538,0.17-2.286,0.369l-0.56,0.143l0.179-0.547
		c0.939-2.904,0.334-6.086-1.607-8.441c-0.823-1.01-1.883-1.803-3.084-2.31c-1.051-0.429-2.174-0.655-3.31-0.667
		c-1.646-0.029-3.269,0.382-4.702,1.19c-1.013,0.583-1.5,1.036-1.513,1.012c-0.012-0.023,0.096-0.143,0.31-0.357
		c0.326-0.324,0.689-0.608,1.084-0.845c1.422-0.913,3.072-1.404,4.762-1.417c1.195-0.015,2.383,0.195,3.501,0.619
		c1.281,0.511,2.418,1.329,3.31,2.381c2.106,2.492,2.777,5.896,1.773,9l-0.369-0.393c4.232-1.141,8.749,0.114,11.787,3.274
		c2.066,2.048,2.892,5.039,2.167,7.857c-0.604,1.852-2.041,3.315-3.882,3.953c-0.493,0.152-1.008,0.224-1.523,0.214
		c-0.179-0.007-0.354-0.039-0.524-0.095C395.263,319.921,395.937,319.816,396.584,319.615z"/>
	<path fill="#4D4D4D" d="M392.87,283.684c-1.14,0.182-2.226,0.612-3.179,1.262c-1.203,0.796-2.138,1.937-2.679,3.274l-0.167,0.452
		l-0.333-0.357c-0.888-0.932-2.069-1.529-3.346-1.69c-1.908-0.248-3.844,0.173-5.477,1.19c-1.329,0.872-2.501,1.963-3.465,3.227
		c-1.667,2.119-2.477,3.631-2.571,3.572c0.107-0.388,0.271-0.757,0.488-1.096c0.513-0.972,1.094-1.907,1.738-2.798
		c0.947-1.35,2.134-2.516,3.5-3.44c1.731-1.139,3.813-1.62,5.869-1.357c1.424,0.185,2.738,0.863,3.715,1.917l-0.512,0.083
		c0.595-1.446,1.632-2.667,2.964-3.488c1.027-0.657,2.193-1.064,3.405-1.19c0.796-0.09,1.602-0.042,2.381,0.143
		c0.282,0.056,0.552,0.161,0.798,0.309C394.963,283.542,393.909,283.538,392.87,283.684z"/>
	<path fill="#283648" d="M270.088,597.968l-37.241-19.691c-14.536-6.609-56.063-42.719-59.313-50.719s-7.155-24.49-3.405-28.752
		s39.574,0.512,48.11,2.381c8.537,1.869,74.362,61.611,74.362,61.611L270.088,597.968z"/>
	<path fill="#F2B400" d="M306.876,593.242l-43.11,18.607c5.357,39.539-1.096,37.742-1.096,37.742l-25.395-56.064
		c-1.762-3.85-0.189-8.404,3.572-10.346l48.301-24.729L306.876,593.242z"/>
	<path fill="#283648" d="M291.006,601.48c0,0,34.812-11.43,61.909-21.953l8.202,4.082c6,3.072,12.824,4.148,19.478,3.072
		c3.956-0.555,7.733-1.998,11.049-4.227c22.835-17.107,48.646-64.777,48.266-70.934c-0.465-7.404-2.322-16.238-13.918-24.93
		s-35.24,5.428-35.24,5.428c-6.561,1.381-21.597,11.883-36.193,23.051c-8.727,6.523-80.398,50.693-80.398,50.693L291.006,601.48z"/>
	<path fill="#455A64" d="M341.474,523.535l-0.94,0.619l-3.644,2.381l-13.811,8.762l-48.777,30.693l0.096-0.357l16.918,35.717
		l-0.381-0.166l17.239-5.619l8.477-2.787l0,0c16.549-7.061,32.645-12.668,47.063-18.145c7.274-2.713,14.12-5.381,20.239-8.334
		c6.12-2.951,11.751-6.035,15.942-10.023c3.739-3.604,7.084-7.594,9.977-11.906c2.56-3.797,4.512-7.227,6.06-10.049
		c1.548-2.82,2.667-5.047,3.441-6.559c0.369-0.738,0.679-1.334,0.869-1.715s0.31-0.572,0.31-0.572s-0.072,0.18-0.263,0.596
		s-0.464,0.988-0.81,1.75c-0.738,1.523-1.857,3.762-3.333,6.607c-1.477,2.846-3.405,6.299-5.953,10.121
		c-2.875,4.361-6.217,8.396-9.965,12.035c-0.531,0.512-1.087,0.996-1.667,1.453c-0.56,0.465-1.131,0.988-1.75,1.428l-1.893,1.322
		c-0.639,0.465-1.303,0.895-1.988,1.285c-1.357,0.775-2.763,1.607-4.215,2.381c-1.452,0.775-2.953,1.561-4.5,2.275
		c-6.227,2.951-13.097,5.666-20.24,8.428c-14.417,5.514-30.502,11.133-47.026,18.193l0,0l-8.477,2.785l-17.287,5.631l-0.25,0.084
		l-0.119-0.238l-16.858-35.717l-0.107-0.227l0.215-0.143L322.877,535l13.894-8.619l3.69-2.264l0.953-0.57l0.333-0.18
		C341.661,523.431,341.57,523.488,341.474,523.535z"/>
	<path fill="#FAFAFA" d="M259.872,628.958c2.066-0.125,4.119,0.414,5.858,1.535c-1.912-0.523-3.877-0.832-5.858-0.916
		c-1.979,0.115-3.938,0.445-5.845,0.988C255.758,629.429,257.804,628.867,259.872,628.958z"/>
	<path fill="#FAFAFA" d="M244.634,600.349c7.059-3.195,10.852-10.957,9.036-18.49c-0.394-1.504-0.903-2.977-1.524-4.404
		c0.278,0.324,0.511,0.684,0.69,1.072c0.554,1.018,0.978,2.102,1.263,3.225c2.133,7.781-1.843,15.938-9.287,19.051
		c-1.063,0.463-2.178,0.795-3.321,0.986c-0.413,0.1-0.838,0.137-1.262,0.107C241.735,601.496,243.207,600.978,244.634,600.349z"/>
	<path fill="#FAFAFA" d="M266.956,571.585c0.477,0.785,1.132,1.928,1.941,3.346c1.619,2.846,3.75,6.857,5.952,11.297
		c2.203,4.441,4.048,8.584,5.322,11.586c0.643,1.486,1.143,2.713,1.464,3.57c0.195,0.434,0.347,0.883,0.453,1.346
		c-0.279-0.387-0.507-0.807-0.679-1.25l-1.596-3.5c-1.381-2.953-3.298-7.025-5.488-11.488c-2.19-4.465-4.251-8.465-5.763-11.359
		l-1.762-3.439c-0.247-0.408-0.443-0.844-0.584-1.299C266.504,570.765,266.751,571.164,266.956,571.585z"/>
	<polygon fill="#283648" points="309.924,491.83 301.959,491.83 242.157,477.912 237.419,428.611 301.959,447.255 310.234,446.945 
		372.857,428.611 359.071,476.339 	"/>
	<path fill="#FAFAFA" d="M310.198,446.945l-4.381,0.168c-0.274-4.24,7.5-9.871,21.93-14.705c10.129-3.217,20.473-5.711,30.955-7.465
		l-2.072,3.453c2.12-0.832,4.378-1.26,6.655-1.262c4.346-0.143,5.953,2.535,5.953,2.535L310.198,446.945z"/>
	<path fill="#455A64" d="M307.186,468.054c0-11.596,0.143-20.99,0.31-20.99s0.31,9.406,0.31,20.99s-0.143,20.988-0.31,20.988
		S307.186,479.65,307.186,468.054z"/>
	<path fill="#455A64" d="M302.769,464.662c0-9.395,0.143-17.014,0.31-17.014s0.31,7.619,0.31,17.014
		c0,9.393-0.143,17.012-0.31,17.012C302.84,481.673,302.769,474.054,302.769,464.662z"/>
	<path fill="#FAFAFA" d="M301.959,447.267l3.179-0.203c-2.56-6.596-9.024-11.084-15.251-13.846
		c-12.308-5.465-25.806-7.697-39.217-6.488l5.369,1.535c-5.883-1.783-12.188-1.596-17.954,0.535L301.959,447.267z"/>
	<path fill="#F2B400" d="M291.16,440.111c-4.06,0.061-6.167,4.645-5.821,13.787c0.333,8.834,0.821,18.775,0.821,18.775l2.977-2.762
		l4.369,5.262c0,0-1-15.906-0.893-25.68c0.131-6.738,5.952-6.156,5.952-6.156C296.225,441.99,293.741,440.908,291.16,440.111z"/>
	<path fill="#E0E0E0" d="M251.205,428.181l1.631,0.238c1.405,0.215,3.441,0.584,5.953,1.096c6.525,1.389,12.972,3.125,19.311,5.203
		c3.703,1.215,7.203,2.477,10.358,3.666c2.826,0.998,5.579,2.191,8.238,3.572c1.799,0.953,3.455,2.156,4.917,3.572
		c0.399,0.367,0.77,0.766,1.107,1.189c0.238,0.299,0.381,0.43,0.334,0.465c-0.048,0.035-0.548-0.57-1.607-1.512
		c-1.5-1.324-3.165-2.449-4.953-3.346c-2.668-1.324-5.421-2.475-8.238-3.441c-3.203-1.131-6.655-2.381-10.347-3.57
		c-7.393-2.418-14.203-4.18-19.168-5.369c-2.535-0.572-4.56-1-5.952-1.299l-1.607-0.346c-0.188-0.025-0.373-0.078-0.548-0.154
		C250.825,428.126,251.019,428.138,251.205,428.181z"/>
	<path fill="#E0E0E0" d="M309.424,446.767c0.218-0.473,0.461-0.934,0.727-1.381c0.986-1.637,2.188-3.135,3.571-4.453
		c2.081-1.936,4.445-3.541,7.012-4.762c3.146-1.482,6.461-2.578,9.87-3.264c3.607-0.762,7.084-1.238,10.239-1.678
		c3.154-0.441,5.952-0.881,8.334-1.381c1.852-0.379,3.684-0.854,5.488-1.418c0.654-0.242,1.322-0.449,2-0.619
		c0.012,0.025-0.155,0.119-0.477,0.264c-0.321,0.143-0.81,0.344-1.44,0.582c-1.793,0.658-3.626,1.199-5.488,1.619
		c-2.381,0.561-5.179,1-8.334,1.525c-3.155,0.523-6.619,0.951-10.191,1.713c-3.361,0.676-6.634,1.738-9.751,3.168
		c-2.533,1.193-4.879,2.75-6.965,4.619c-1.864,1.768-3.468,3.791-4.762,6.012C309.282,447.125,309.338,446.939,309.424,446.767z"/>
	<path fill="#FFBE9D" d="M329.735,513.736l-20.299,0.584l-13.013-2.383c0,0-11.37-7.701-13.751-12.334c-2.381-4.631,0-6.785,0-6.785
		c-1.006-2.139-0.839-4.645,0.44-6.631l-2.19-2.633c-1.321-2.773,0.714-4.166,1.31-4.166c0.595,0,19.728,13.275,21.645,13.584
		c1.917,0.311,1.488-0.939,1.19-2.012s-12.287-14.191-13.024-15.727c-0.137-0.301-0.204-0.629-0.195-0.959
		c0.029-1.209,1.033-2.166,2.242-2.137c3.001-0.049,15.858,13.881,17.858,15.738s9.144,0.441,9.144,0.441l4.667,6.535
		C325.865,495.675,329.735,513.736,329.735,513.736z"/>
	<path fill="#EB996E" d="M285.447,488.496c1.894,1.635,3.882,3.156,5.952,4.561c2.074,1.387,4.233,2.645,6.465,3.762
		c0.954,0.41,1.877,0.887,2.762,1.428c-1.025-0.211-2.019-0.561-2.952-1.035c-2.313-1.01-4.528-2.23-6.619-3.643
		c-2.093-1.418-4.061-3.012-5.882-4.762c-0.786-0.709-1.486-1.508-2.083-2.383C283.93,487.048,284.719,487.742,285.447,488.496z"/>
	<path fill="#EB996E" d="M289.375,497.984c3.773,2.549,7.143,4.133,7.06,4.299c-0.801-0.174-1.572-0.467-2.286-0.869
		c-1.775-0.84-3.487-1.811-5.119-2.904c-1.634-1.096-3.187-2.311-4.644-3.633c-0.643-0.506-1.204-1.109-1.666-1.785
		C282.851,492.96,285.601,495.437,289.375,497.984z"/>
	<path fill="#495C63" d="M260.064,534.357c6.798,6.404,13.191,12.703,19.501,16.738c3.19,2.023,6.786,3.893,10.561,3.572
		c3.202-0.262,6.048-2.037,8.75-3.773l76.279-48.98c8.655-5.549,17.501-11.203,27.466-13.775c9.966-2.57,21.406-1.631,29.3,4.988
		c10.072,8.441,11.656,23.432,9.62,36.408s-6.941,25.609-7.024,38.705c-0.048,7.131,1.75,14.953,7.465,19.227
		c5.203,3.895,12.239,3.895,18.728,3.738l77.518-1.939c4.083-0.096,9.453-1.273,9.203-5.811c-0.15-1.75-1.065-3.344-2.5-4.357
		c-21.359-15.906-38.17-23.965-59.243-39.371l0.5,0.797c-10.596-16.668-21.406-33.502-36.288-46.527
		c-14.882-13.023-34.573-21.869-54.17-19.299c-11.453,1.512-22.038,6.75-32.384,11.906l-59.194,29.502
		c-5.719,2.773-11.617,5.16-17.656,7.143c-4.922,1.666-10.363,0.33-13.953-3.428c-9.061-9.525-28.348-24.895-54.302-18.645
		L260.064,534.357z"/>
	<path fill="#263238" d="M257.73,526.212l1.738,1.037c2.26,1.262,4.616,2.34,7.048,3.227c3.85,1.398,7.843,2.369,11.906,2.893
		c5.385,0.66,10.83,0.66,16.215,0c6.522-0.844,12.919-2.475,19.049-4.857c7.015-2.738,13.785-6.064,20.239-9.941
		c6.882-4.049,13.823-8.715,21.025-13.572c7.203-4.857,14.68-9.906,22.681-14.479c8-4.57,16.322-8.404,24.942-10.035
		c4.223-0.834,8.552-0.982,12.822-0.441c4.095,0.561,8.056,1.855,11.691,3.822c7.096,3.869,12.465,9.465,16.93,15.014
		c4.465,5.547,7.988,11.178,11.346,16.18c2.959,4.547,6.179,8.92,9.644,13.096c2.624,3.143,5.563,6.008,8.774,8.549
		c2.036,1.594,4.207,3.008,6.488,4.225l1.822,0.883l0.606,0.32c0,0-0.214-0.07-0.631-0.262l-1.845-0.822
		c-2.319-1.178-4.527-2.564-6.596-4.143c-3.248-2.525-6.225-5.383-8.882-8.523c-3.5-4.172-6.752-8.545-9.739-13.098
		c-3.393-5-6.929-10.643-11.382-16.107c-4.452-5.465-9.81-11.037-16.811-14.822c-3.576-1.93-7.473-3.197-11.501-3.738
		c-4.206-0.537-8.473-0.387-12.632,0.439c-8.512,1.645-16.774,5.43-24.739,9.977c-7.965,4.549-15.43,9.586-22.621,14.443
		c-7.19,4.857-14.167,9.535-21.072,13.572c-6.503,3.881-13.326,7.199-20.395,9.916c-6.169,2.383-12.605,4.004-19.168,4.822
		c-5.419,0.648-10.897,0.623-16.311-0.072c-4.069-0.547-8.063-1.553-11.905-3c-2.434-0.92-4.786-2.039-7.037-3.346l-1.702-1.094
		c-0.381-0.238-0.571-0.381-0.571-0.381L257.73,526.212z"/>
	<path fill="#263238" d="M238.288,510.437c0.452,0.441,0.988,0.953,1.643,1.537c0.655,0.582,1.405,1.25,2.262,1.939
		c0.857,0.691,1.786,1.395,2.869,2.168c1.084,0.773,2.274,1.477,3.465,2.25c2.72,1.59,5.563,2.959,8.501,4.096
		c2.965,1.086,6.01,1.938,9.107,2.547c1.429,0.227,2.81,0.418,4.084,0.584c1.273,0.166,2.464,0.273,3.571,0.273s2.096-0.012,2.977,0
		s1.631-0.07,2.238-0.07c0.642-0.059,1.287-0.059,1.929,0c-0.625,0.152-1.263,0.248-1.905,0.285c-0.746,0.1-1.497,0.158-2.25,0.178
		c-0.881,0-1.94,0.025-3,0c-1.06-0.023-2.262-0.119-3.571-0.201c-1.31-0.084-2.691-0.322-4.144-0.537
		c-6.301-1.105-12.338-3.383-17.799-6.715c-1.238-0.797-2.394-1.57-3.465-2.32s-1.988-1.561-2.857-2.25
		c-0.869-0.691-1.571-1.418-2.214-2.014c-0.556-0.508-1.08-1.049-1.572-1.619c-0.45-0.461-0.868-0.955-1.25-1.475
		C237.403,509.503,237.865,509.953,238.288,510.437z"/>
	<path fill="#FAFAFA" d="M475.686,532.689c1.171-0.986,2.166-2.166,2.94-3.488c0.071,0.023,0,0.572-0.369,1.369
		c-1.057,2.098-3.043,3.572-5.357,3.977c-0.869,0.166-1.417,0.072-1.417,0C472.976,534.162,474.396,533.535,475.686,532.689z"/>
	<path fill="#FAFAFA" d="M442.85,531.392c0.688-0.475,1.408-0.9,2.155-1.273c4.947-2.535,10.551-3.498,16.061-2.764
		c0.828,0.104,1.647,0.268,2.452,0.488c0.304,0.053,0.598,0.152,0.869,0.299c-0.023,0.107-1.298-0.168-3.369-0.357
		c-2.702-0.229-5.422-0.115-8.096,0.332c-2.667,0.461-5.264,1.262-7.727,2.383c-1.869,0.869-3.061,1.547-3.061,1.463
		C442.135,531.927,442.35,531.724,442.85,531.392z"/>
	<path fill="#FAFAFA" d="M452.386,502.14c1.25-0.797,2.388-1.758,3.382-2.857c0.071,0-0.096,0.5-0.596,1.189
		c-0.661,0.898-1.51,1.643-2.488,2.18c-0.977,0.533-2.057,0.855-3.167,0.939c-0.845,0.037-1.357-0.082-1.357-0.166
		C449.62,503.189,451.042,502.757,452.386,502.14z"/>
	<path fill="#FAFAFA" d="M437.85,494.056c1.027-0.311,2.142-0.094,2.976,0.582c-0.95-0.08-1.906-0.08-2.856,0
		c-0.919,0.271-1.814,0.613-2.68,1.025C435.147,495.58,436.087,494.353,437.85,494.056z"/>
	<path fill="#FAFAFA" d="M413.277,480.554c0.131,0.131-0.869,1.311-1.548,3.037s-0.715,3.273-0.905,3.273
		C410.387,484.466,411.335,482.027,413.277,480.554z"/>
	<path fill="#FAFAFA" d="M387.786,480.828c-0.247-1.078-0.682-2.107-1.286-3.035c0.048-0.059,0.417,0.119,0.857,0.607
		c0.569,0.678,0.934,1.504,1.048,2.381c0.127,0.855,0.017,1.729-0.321,2.523c-0.274,0.607-0.571,0.846-0.631,0.846
		C387.747,483.07,387.86,481.947,387.786,480.828z"/>
	<path fill="#FAFAFA" d="M377.881,494.865c-0.135-1.518,0.132-3.045,0.773-4.428c0.179,0.047-0.214,2-0.154,4.416
		c0.06,2.418,0.571,4.334,0.393,4.393C378.172,497.902,377.823,496.39,377.881,494.865z"/>
	<path fill="#FAFAFA" d="M353.475,498.949c-0.464-2.213-1.158-4.371-2.072-6.441c1.479,1.814,2.408,4.012,2.679,6.334
		c0.482,2.291,0.309,4.672-0.5,6.869C353.776,503.458,353.74,501.193,353.475,498.949z"/>
	<path fill="#FAFAFA" d="M338.926,520.259c0.404,1.953,1.154,3.406,1,3.5c-1.611-2.004-2.169-4.658-1.5-7.143
		C338.557,516.64,338.521,518.308,338.926,520.259z"/>
	<path fill="#FAFAFA" d="M321.27,511.332c3.165,3.113,4.023,7.883,2.143,11.904c-0.313,0.836-0.828,1.58-1.5,2.168
		c-0.083-0.107,0.524-0.906,1.107-2.381c1.552-3.895,0.753-8.334-2.06-11.441c-1.048-1.18-1.846-1.715-1.846-1.799
		C319.95,510.113,320.691,510.644,321.27,511.332z"/>
	<path fill="#FAFAFA" d="M298.161,547.929c-0.268-2.279-0.143-4.586,0.369-6.822c0.515-2.238,1.417-4.371,2.667-6.299
		c0.471-0.826,1.083-1.564,1.81-2.178c-1.75,2.643-3.057,5.555-3.869,8.619c-0.608,3.105-0.713,6.289-0.31,9.43
		C298.453,549.806,298.228,548.876,298.161,547.929z"/>
	<path fill="#FAFAFA" d="M268.862,535.916c0.463-1.652,1.464-3.102,2.846-4.119c-0.87,1.381-1.627,2.83-2.263,4.334
		c-0.442,1.559-0.762,3.152-0.952,4.762C268.073,539.238,268.201,537.49,268.862,535.916z"/>
	<path fill="#FAFAFA" d="M282.743,531.951c1.101-0.699,2.034-1.629,2.738-2.727c0.694-1.082,1.152-2.299,1.346-3.57
		c0.008-0.557,0.068-1.111,0.179-1.656c0.24,0.529,0.326,1.115,0.25,1.691c-0.135,2.838-1.773,5.389-4.298,6.691
		c-0.489,0.309-1.054,0.473-1.632,0.477C281.291,532.75,281.898,532.535,282.743,531.951z"/>
	<path fill="#FAFAFA" d="M262.683,526.546c0.381-0.893,1.071-1.322,1.19-1.191s-0.286,0.68-0.584,1.441
		c-0.297,0.762-0.356,1.477-0.523,1.477S262.302,527.439,262.683,526.546z"/>
	<path fill="#FAFAFA" d="M247.157,520.546c0.917-0.93,1.929-1.25,2.012-1.084c0.084,0.166-0.737,0.691-1.571,1.523
		c-0.833,0.834-1.345,1.654-1.5,1.584C245.944,522.523,246.24,521.474,247.157,520.546z"/>
	<path fill="#FAFAFA" d="M258.766,515.82c0.865-1.623,1.537-3.34,2-5.119c0.143,1.928-0.378,3.848-1.477,5.439
		c-0.924,1.701-2.396,3.041-4.179,3.799C256.49,518.718,257.717,517.333,258.766,515.82z"/>
	<path fill="#FAFAFA" d="M243.371,507.14c1.548-1.811,2.203-3.631,2.382-3.572c-0.181,1.482-0.832,2.869-1.857,3.953
		c-0.875,1.23-2.13,2.139-3.572,2.584C240.229,509.949,241.823,508.949,243.371,507.14z"/>
	<path fill="#FAFAFA" d="M230.276,504.222c1.164-1.17,2.587-2.051,4.155-2.57c0.083,0.166-1.774,1.297-3.751,3.035
		c-1.976,1.738-3.298,3.453-3.44,3.346C227.936,506.541,228.977,505.236,230.276,504.222z"/>
	<path fill="#FAFAFA" d="M441.862,565.478c0.69,0,1.477-0.037,2.381-0.107c0.905-0.072,1.917-0.119,3.061-0.25
		c1.143-0.131,2.381-0.322,3.702-0.512c1.321-0.191,2.715-0.523,4.19-0.834c3.179-0.77,6.298-1.764,9.334-2.977
		c3.02-1.25,5.948-2.709,8.763-4.369c1.263-0.857,2.453-1.631,3.572-2.381s2.095-1.535,3.012-2.215
		c0.917-0.678,1.679-1.381,2.381-1.953c0.703-0.57,1.274-1.094,1.738-1.535c0.47-0.471,0.971-0.908,1.5-1.309
		c-0.396,0.533-0.842,1.027-1.333,1.475c-0.531,0.572-1.092,1.117-1.679,1.631c-0.727,0.607-1.488,1.311-2.381,2.037
		c-0.894,0.727-1.929,1.477-2.988,2.285c-1.06,0.811-2.298,1.561-3.572,2.381c-5.622,3.463-11.776,5.977-18.215,7.441
		c-1.488,0.299-2.905,0.572-4.251,0.785c-1.345,0.215-2.583,0.264-3.727,0.43c-1.143,0.166-2.131,0.166-3.095,0.166
		c-0.965,0-1.751,0-2.382,0c-0.669,0.012-1.338-0.033-2-0.131C440.533,565.46,441.198,565.441,441.862,565.478z"/>
	<path fill="#FAFAFA" d="M499.604,586.611c1.359-1.422,2.602-2.951,3.715-4.572c1.37-1.967,2.565-4.051,3.571-6.227
		c0.986-2.195,1.783-4.469,2.381-6.799c0.462-1.91,0.776-3.852,0.941-5.811c0.262-3.344,0.047-5.451,0.166-5.451
		c0.127,0.477,0.195,0.969,0.203,1.463c0.072,0.572,0.104,1.15,0.095,1.727c0,0.668,0.071,1.441,0,2.287
		c-0.104,2.004-0.384,3.996-0.833,5.951c-1.088,4.777-3.146,9.281-6.049,13.229c-1.174,1.609-2.488,3.111-3.929,4.488
		c-0.542,0.539-1.114,1.049-1.714,1.523c-0.432,0.385-0.89,0.738-1.369,1.061c-0.367,0.307-0.767,0.574-1.19,0.797
		C495.52,590.181,497.246,588.992,499.604,586.611z"/>
	<path fill="#455A64" d="M206.619,509.712c-3.876,1.107-7.877,1.715-11.906,1.809c-3.417-0.172-6.802-0.748-10.084-1.715
		c-3.153-0.857-5.342-3.721-5.346-6.988v-36.537c0,0,4.477-4.633,16.383-4.633c11.155,0.025,16.37,5.787,16.37,5.787v35.252
		C212.036,505.988,209.811,508.873,206.619,509.712z"/>
	<path fill="#263238" d="M183.475,469.994c7.26,4.838,16.654,5.07,24.145,0.596c1.498-0.939,2.937-1.969,4.31-3.084
		c-0.274,0.395-0.599,0.75-0.965,1.061c-0.956,0.896-2.001,1.695-3.119,2.381c-7.566,4.809-17.288,4.568-24.608-0.607
		c-1.081-0.748-2.086-1.602-3-2.547c-0.351-0.334-0.658-0.711-0.917-1.119C180.64,467.859,182.027,468.968,183.475,469.994z"/>
	<path fill="#455A64" d="M179.308,496.091c0,0-11.228-1.488-10.858-9.93c0.346-7.809,10.894-7.285,10.894-7.285v-5.203
		c-0.06-0.619-8.144-0.238-11.369,2.143c-3.227,2.381-5.513,5.191-5.513,9.93s0.583,7.918,3.774,11.418
		c3.345,3.395,8.215,4.807,12.857,3.727L179.308,496.091z"/>
	<path fill="#FFBE9D" d="M179.129,482.304c1.584,1.463,3.302,2.775,5.131,3.918c2.513,1.477,2.072,5.035-0.356,5.738
		s-10.87-5.215-10.347-8.953c0.524-3.738,5.786-3.477,5.786-3.477L179.129,482.304z"/>
	<path fill="#FFBE9D" d="M178.022,489.091c1.586,1.457,3.304,2.766,5.132,3.904c2.512,1.488,2.071,5.037-0.357,5.738
		c-2.429,0.703-10.87-5.215-10.346-8.953c0.523-3.738,5.785-3.477,5.785-3.477L178.022,489.091z"/>
	<path fill="#FFBE9D" d="M211.869,479.222c-0.951,4.232-1.45,8.555-1.488,12.893c-0.022,0.781,0.128,1.559,0.44,2.273
		c0.323,0.725,1.041,1.189,1.834,1.191c0.976-0.072,1.619-1.012,2.048-1.881c1.468-3.012,2.104-6.361,1.845-9.703
		c-0.024-1.336-0.438-2.635-1.19-3.738c-0.814-1.121-2.281-1.551-3.571-1.049"/>
	<path fill="#263238" d="M196.428,474.078c-5.429,0-12.751-3.703-12.751-3.703s2.786-3.605,12.322-3.701s12.346,3.701,12.346,3.701
		C204.895,472.9,200.701,474.203,196.428,474.078z"/>
	<path fill="#263238" d="M195.523,432.539c0.085,0.531,0.289,1.037,0.596,1.477c0.345,0.5,0.857,1.049,1.393,1.691
		c2.083,2.639,1.652,6.463-0.964,8.572c-0.881,0.785-1.929,1.5-2.227,2.596c-0.183,1.119,0.195,2.258,1.012,3.047
		c0.702,0.857,1.644,1.549,2.382,2.381c0.724,0.801,1.225,1.779,1.452,2.834c0.182,0.906,0.218,1.834,0.107,2.75
		c-0.18,1.297-0.523,2.564-1.024,3.773c-0.149,0.457-0.354,0.893-0.607,1.299c0.077-0.473,0.205-0.936,0.381-1.381
		c0.404-1.215,0.68-2.467,0.822-3.738c0.232-1.859-0.329-3.732-1.548-5.156c-0.702-0.809-1.644-1.463-2.465-2.381
		c-0.96-0.922-1.405-2.258-1.19-3.57c0.491-1.176,1.319-2.18,2.381-2.883c0.855-0.674,1.493-1.584,1.834-2.619
		c0.602-1.771,0.295-3.725-0.821-5.227c-0.479-0.57-0.929-1.166-1.346-1.785c-0.312-0.486-0.495-1.043-0.536-1.619
		c-0.035-1,0.465-1.369,0.465-1.369C195.475,431.652,195.442,432.101,195.523,432.539z"/>
	<path fill="#263238" d="M190.332,432.552c0.085,0.529,0.288,1.035,0.595,1.475c0.346,0.5,0.857,1.049,1.394,1.691
		c2.083,2.639,1.652,6.463-0.965,8.572c-0.881,0.785-1.929,1.5-2.226,2.596c-0.183,1.119,0.195,2.258,1.012,3.047
		c0.702,0.857,1.643,1.549,2.381,2.381c0.725,0.801,1.226,1.779,1.452,2.834c0.182,0.906,0.218,1.834,0.107,2.75
		c-0.179,1.297-0.522,2.564-1.023,3.775c-0.149,0.455-0.354,0.891-0.607,1.297c0.084-0.471,0.212-0.934,0.381-1.381
		c0.404-1.215,0.68-2.467,0.821-3.738c0.233-1.859-0.329-3.732-1.548-5.156c-0.702-0.809-1.643-1.463-2.464-2.381
		c-0.96-0.922-1.405-2.258-1.19-3.57c0.49-1.176,1.319-2.178,2.381-2.883c0.855-0.674,1.493-1.584,1.833-2.619
		c0.603-1.771,0.295-3.725-0.821-5.227c-0.479-0.57-0.929-1.166-1.345-1.785c-0.313-0.49-0.498-1.051-0.536-1.631
		c-0.036-1,0.464-1.369,0.464-1.369C190.288,431.656,190.256,432.109,190.332,432.552z"/>
</g>
<g id="freepik--Device--inject-179">
	<path fill="#283648" d="M90.579,606.07l20.919,72.34c0.441,1.158,1.535,1.938,2.774,1.977l108.71,3.154
		c0.946,0.027,1.854-0.385,2.452-1.119l25.002-30.502c1.073-1.305,0.887-3.234-0.419-4.307c-0.729-0.602-1.695-0.83-2.617-0.623
		l-29.609-2.797l-10.68-39.004c-0.38-1.262-1.528-2.135-2.845-2.166l-110.735-1.072c-1.695-0.037-3.1,1.309-3.136,3.006
		C90.387,605.335,90.449,605.712,90.579,606.07z"/>
	<path fill="#455A64" d="M204.195,604.572c3.167,11.072,9.524,36.287,14.322,53.109c2.202,7.691,4.321,15.037,6.238,21.752
		l-0.5-0.107l18.835-22.502l5.44-6.428l1.465-1.691c0.148-0.221,0.312-0.432,0.488-0.631c-0.134,0.223-0.285,0.434-0.453,0.631
		l-1.404,1.75l-5.311,6.537l-18.668,22.619l-0.345,0.418l-0.155-0.525c-1.929-6.701-4.048-14.047-6.273-21.738
		c-4.822-16.836-11.12-42.086-14.145-53.158"/>
	<path fill="#FAFAFA" d="M155.977,634.787c0,2.945-2.389,5.334-5.334,5.334s-5.334-2.389-5.334-5.334s2.389-5.334,5.334-5.334
		c0.004,0,0.008,0,0.012,0c2.939,0,5.322,2.383,5.322,5.322C155.977,634.779,155.977,634.783,155.977,634.787z"/>
</g>
</svg>
