<?xml version="1.0" encoding="utf-8"?>
<!-- Generator: Adobe Illustrator 16.0.0, SVG Export Plug-In . SVG Version: 6.00 Build 0)  -->
<!DOCTYPE svg PUBLIC "-//W3C//DTD SVG 1.1//EN" "http://www.w3.org/Graphics/SVG/1.1/DTD/svg11.dtd">
<svg version="1.1" id="Layer_1" xmlns="http://www.w3.org/2000/svg" xmlns:xlink="http://www.w3.org/1999/xlink" x="0px" y="0px"
	 width="1000px" height="715px" viewBox="0 0 1000 715" enable-background="new 0 0 1000 715" xml:space="preserve">
<g>
	<path fill="#E6E6E6" d="M472.813,689.889c0,10.1-92.466,11.177-206.276,18.29c-113.701,7.105-206.275-8.19-206.275-18.29
		c0-10.103,93-30.43,206.275-18.291C380.347,683.792,472.813,679.787,472.813,689.889z"/>
	<path fill="#3F3D56" d="M907.768,49.036H663.266c-24.301,0-45.355,16.84-50.701,40.547L489.023,637.555
		c-5.102,22.631,9.109,45.113,31.743,50.218c2.355,0.531,4.754,0.858,7.172,0.979l251.346,12.383
		c27.842,1.371,52.379-18.12,57.342-45.551l70.082-387.424l5.211,1.49l13.408-73.432l-5.367-1.342l19.564-108.143
		c3.145-17.391-8.4-34.041-25.793-37.188C911.76,49.19,909.764,49.021,907.768,49.036L907.768,49.036z"/>
	<path fill="#FFFFFF" d="M695.454,60.85h-28.539c-16.887,0-31.492,11.764-35.092,28.263L513.239,632.616
		c-2.621,12.008,4.992,23.87,17.002,26.488c1.084,0.236,2.182,0.391,3.289,0.465l250.535,16.418
		c14.631,0.96,27.65-9.221,30.252-23.653l101.188-561.76c2.473-13.724-6.648-26.851-20.373-29.325
		c-1.479-0.264-2.971-0.399-4.475-0.399h-27.076c-5.385,0-10.104,3.617-11.506,8.818l0,0c-1.234,4.591-5.398,7.784-10.154,7.784
		H713.383C703.987,77.451,696.174,70.218,695.454,60.85z"/>
	<path fill="#A0616A" d="M427.279,340.411l22.092,43.731l66.05,30.025c7.051,11.921,29.467,12.836,31.096,5.125
		c1.83-8.647-27.219-22.566-27.219-22.566l-55.243-37.368l-4.833-32.168L427.279,340.411z"/>
	<polygon fill="#A0616A" points="429.884,633.885 425.81,666.476 449.439,668.107 451.882,633.885 	"/>
	<path fill="#2F2E41" d="M433.144,661.59c-2.112-2.235-4.061-4.617-5.83-7.132c-3.389-4.686-6.391,19.353-6.391,19.353
		s-3.26,9.777-2.445,14.666c0.816,4.889,19.555,4.889,22.813,4.073c3.261-0.815,19.556,0,19.556,0h24.44
		c21.186-9.777,0-16.297,0-16.297c-6.517-0.813-28.515-21.183-28.515-21.183l-4.889-8.962c-3.258-0.815-6.52,11.405-6.52,11.405
		L433.144,661.59z"/>
	<polygon fill="#A0616A" points="368.779,634.294 364.703,666.885 388.332,668.515 390.777,634.294 	"/>
	<path fill="#2F2E41" d="M372.037,661.997c-2.113-2.235-4.061-4.617-5.83-7.132c-3.386-4.686-6.391,19.353-6.391,19.353
		s-3.26,8.962-2.445,13.851c0.815,4.889,19.555,4.889,22.813,4.076c3.261-0.815,19.555,0.813,19.555,0.813h24.444
		c21.182-9.777,0-16.294,0-16.294c-6.52-0.815-28.518-21.186-28.518-21.186l-4.889-8.962c-3.258-0.815-6.52,11.408-6.52,11.408
		L372.037,661.997z"/>
	<path fill="#2F2E41" d="M395.666,424.085c-3.262,4.073-1.631,17.924-1.631,17.924s-5.703,44.813-3.258,48.888
		c2.445,4.073-1.629,7.331-4.074,13.035c-2.445,5.701-4.889,19.555-4.889,19.555c-13.851,11.405-13.035,63.551-13.035,63.551
		l-4.889,46.441c1.631,4.889,24.441,5.704,27.701,4.889c3.259-0.814,13.036-74.143,13.036-74.143l22.001-41.554
		c0,0-1.631,110.808-1.631,115.696s21.998,2.446,26.887,2.446s4.889-81.478,4.889-81.478l4.887-21.184l26.076-96.959v-11.405
		l-4.076-5.703C483.66,424.085,398.926,420.011,395.666,424.085z"/>
	<path fill="#A0616A" d="M431.514,188.617c13.95,0,25.259,11.309,25.259,25.259s-11.309,25.256-25.259,25.256
		c-13.947,0-25.259-11.306-25.259-25.256S417.567,188.617,431.514,188.617z"/>
	<path fill="#A0616A" d="M444.146,225.689c-5.122,11.4-2.09,27.324,8.146,44.812l-41.553-19.555l6.518-5.701l-1.631-16.297
		L444.146,225.689z"/>
	<path fill="#F2B400" d="M444.146,251.761c5.439,3.235,8.695,9.178,10.563,15.227c3.461,11.197,5.543,22.775,6.201,34.479
		l1.974,35.03l24.443,92.884c-21.183,17.924-33.405,13.851-61.923-0.813c-28.514-14.668-31.775,4.887-31.775,4.887
		s-2.443-0.815,0-3.259c2.443-2.445,0,0-2.443-2.445c-2.445-2.443,0,0,0.813-2.443c0.818-2.442,0-0.814-0.813-1.63
		c-0.817-0.813,3.259-8.147,3.259-8.147l-6.519-61.107l-8.148-86.363c9.778-12.224,37.48-22.813,37.48-22.813l25.258,17.925
		c8.147,3.258,1.631-9.777,1.631-9.777V251.761z"/>
	<path fill="#A0616A" d="M366.333,319.793l-3.259,48.888l41.553,59.478c0,13.851,7.332,17.109,7.332,17.109
		c2.778-4.432,5.229-9.062,7.335-13.852c4.072-8.962-2.443-16.294-2.443-16.294l-28.52-60.292l12.223-30.148L366.333,319.793z"/>
	<path fill="#F2B400" d="M380.184,268.464c-13.851,4.889-16.294,57.849-16.294,57.849c16.294-8.962,35.849,5.701,35.849,5.701
		s4.073-13.848,8.962-31.774c3-10.248,0.541-21.318-6.52-29.33C402.181,270.91,394.035,263.576,380.184,268.464z"/>
	<path fill="#2F2E41" d="M408.294,221.617c3.215-2.573,7.602,2.102,7.602,2.102l2.572-23.15c0,0,16.078,1.93,26.369-0.645
		c10.287-2.57,11.895,9.324,11.895,9.324c0.531-4.805,0.638-9.645,0.32-14.467c-0.641-5.788-9-11.576-23.791-15.436
		c-14.793-3.858-22.511,12.863-22.511,12.863C400.462,197.353,405.08,224.189,408.294,221.617z"/>
	<path fill="#E6E6E6" d="M837.635,440.803c1.012,0.04,1.902-0.665,2.098-1.663l56.176-305.775c0.203-1.104-0.527-2.164-1.631-2.364
		c-0.111-0.023-0.229-0.033-0.346-0.036l-255.584-2.977h-0.025c-0.949,0.003-1.77,0.663-1.98,1.587l-66.227,295.85
		c-0.244,1.094,0.443,2.181,1.539,2.425c0.113,0.025,0.229,0.043,0.344,0.049L837.635,440.803z"/>
	<path fill="#E6E6E6" d="M615.208,460.337c-0.473,0-0.883,0.325-0.99,0.785l-2.359,10.115c-0.127,0.549,0.213,1.095,0.76,1.222
		c0.051,0.013,0.104,0.02,0.156,0.022l133.35,9.48c0.514,0.03,0.971-0.317,1.07-0.82l2.27-11.705
		c0.109-0.551-0.252-1.084-0.801-1.191c-0.045-0.008-0.09-0.015-0.137-0.015l-133.258-7.894
		C615.249,460.337,615.229,460.337,615.208,460.337z"/>
	<path fill="#E6E6E6" d="M777.219,519.55c0.492,0.038,0.943-0.286,1.066-0.77l2.889-11.729c0.133-0.546-0.199-1.095-0.746-1.229
		c-0.055-0.016-0.111-0.023-0.172-0.028l-170.291-11.908c-0.477-0.04-0.914,0.265-1.045,0.725l-3.002,10.135
		c-0.16,0.536,0.146,1.103,0.68,1.26c0.072,0.023,0.143,0.036,0.213,0.041L777.219,519.55z"/>
	<path fill="#E6E6E6" d="M768.071,557.149c0.498,0.038,0.949-0.286,1.068-0.771l2.889-11.728c0.135-0.547-0.199-1.098-0.744-1.232
		c-0.057-0.013-0.115-0.022-0.17-0.025l-170.293-11.91c-0.477-0.038-0.914,0.264-1.047,0.724l-3.002,10.136
		c-0.158,0.538,0.146,1.102,0.684,1.262c0.066,0.021,0.137,0.033,0.209,0.041L768.071,557.149z"/>
	<path fill="#F2B400" d="M689.643,621.647c0.5,0.051,0.963-0.273,1.08-0.767l6.109-24.438c0.137-0.543-0.195-1.097-0.738-1.231
		c-0.055-0.016-0.107-0.023-0.162-0.028l-104.576-8.797c-0.506-0.033-0.959,0.3-1.076,0.792l-5.215,23.456
		c-0.121,0.549,0.227,1.092,0.775,1.214c0.041,0.008,0.08,0.016,0.121,0.021L689.643,621.647z"/>
</g>
</svg>
