<?xml version="1.0" encoding="utf-8"?>
<!-- Generator: Adobe Illustrator 16.0.0, SVG Export Plug-In . SVG Version: 6.00 Build 0)  -->
<!DOCTYPE svg PUBLIC "-//W3C//DTD SVG 1.1//EN" "http://www.w3.org/Graphics/SVG/1.1/DTD/svg11.dtd">
<svg version="1.1" id="Layer_1" xmlns="http://www.w3.org/2000/svg" xmlns:xlink="http://www.w3.org/1999/xlink" x="0px" y="0px"
	 width="1000px" height="715px" viewBox="0 0 1000 715" enable-background="new 0 0 1000 715" xml:space="preserve">
<g>
	<g>
		<path fill="#E6E6E6" d="M565.514,597.53c-1.373,0-2.725-0.357-3.918-1.037L334.952,468.357c-3.836-2.174-5.187-7.044-3.021-10.885
			l178.51-315.744c2.17-3.84,7.041-5.195,10.88-3.024c0.002,0,0.002,0,0.005,0.002l226.642,128.136
			c3.836,2.173,5.189,7.042,3.023,10.883L572.48,593.469c-1.038,1.848-2.772,3.205-4.817,3.768
			C566.964,597.43,566.242,597.53,565.514,597.53z"/>
		
			<rect x="622.504" y="85.033" transform="matrix(-0.4922 0.8705 -0.8705 -0.4922 1124.0691 -210.4919)" fill="#FFFFFF" width="1.851" height="275.161"/>
		
			<rect x="606.11" y="114.03" transform="matrix(-0.4925 0.8703 -0.8703 -0.4925 1124.9924 -152.7658)" fill="#FFFFFF" width="1.851" height="275.161"/>
		
			<rect x="589.717" y="143.026" transform="matrix(-0.4918 0.8707 -0.8707 -0.4918 1125.453 -95.6582)" fill="#FFFFFF" width="1.851" height="275.162"/>
		
			<rect x="573.323" y="172.024" transform="matrix(-0.492 0.8706 -0.8706 -0.492 1126.325 -37.9987)" fill="#FFFFFF" width="1.851" height="275.162"/>
		
			<rect x="556.928" y="201.021" transform="matrix(-0.4925 0.8703 -0.8703 -0.4925 1127.2954 19.8728)" fill="#FFFFFF" width="1.851" height="275.161"/>
		
			<rect x="540.534" y="230.018" transform="matrix(-0.4926 0.8702 -0.8702 -0.4926 1128.0919 77.4788)" fill="#FFFFFF" width="1.852" height="275.161"/>
		
			<rect x="524.141" y="259.015" transform="matrix(-0.4925 0.8703 -0.8703 -0.4925 1128.8318 134.9647)" fill="#FFFFFF" width="1.851" height="275.161"/>
		
			<rect x="507.747" y="288.011" transform="matrix(-0.4922 0.8705 -0.8705 -0.4922 1129.5154 192.2881)" fill="#FFFFFF" width="1.851" height="275.162"/>
		
			<rect x="491.354" y="317.008" transform="matrix(-0.492 0.8706 -0.8706 -0.492 1130.2468 249.6817)" fill="#FFFFFF" width="1.851" height="275.163"/>
		
			<rect x="474.96" y="346.005" transform="matrix(-0.4916 0.8708 -0.8708 -0.4916 1130.9504 306.9169)" fill="#FFFFFF" width="1.85" height="275.164"/>
		
			<rect x="458.566" y="375.002" transform="matrix(-0.4922 0.8705 -0.8705 -0.4922 1131.8547 364.9287)" fill="#FFFFFF" width="1.85" height="275.163"/>
		<path fill="#F2F2F2" d="M544.431,549.506c-1.374,0-2.726-0.357-3.919-1.037L313.869,420.333
			c-3.836-2.174-5.188-7.043-3.022-10.885l178.51-315.744c2.17-3.84,7.04-5.194,10.88-3.025c0.001,0.001,0.003,0.002,0.004,0.003
			l226.644,128.136c3.835,2.174,5.188,7.043,3.022,10.883L551.397,545.446c-1.037,1.849-2.773,3.205-4.817,3.768
			C545.88,549.409,545.157,549.506,544.431,549.506z"/>
		
			<rect x="601.42" y="37.01" transform="matrix(-0.492 0.8706 -0.8706 -0.492 1050.7042 -263.9034)" fill="#FFFFFF" width="1.851" height="275.161"/>
		
			<rect x="585.028" y="66.006" transform="matrix(-0.4922 0.8705 -0.8705 -0.4922 1051.5959 -206.2476)" fill="#FFFFFF" width="1.85" height="275.162"/>
		
			<rect x="568.633" y="95.003" transform="matrix(-0.492 0.8706 -0.8706 -0.492 1052.2738 -148.8315)" fill="#FFFFFF" width="1.851" height="275.162"/>
		
			<rect x="552.24" y="124.001" transform="matrix(-0.4919 0.8706 -0.8706 -0.4919 1053.0242 -91.3452)" fill="#FFFFFF" width="1.85" height="275.161"/>
		
			<rect x="535.846" y="152.997" transform="matrix(-0.4924 0.8703 -0.8703 -0.4924 1054.0017 -33.5071)" fill="#FFFFFF" width="1.85" height="275.161"/>
		
			<rect x="519.452" y="181.994" transform="matrix(-0.4923 0.8704 -0.8704 -0.4923 1054.7343 23.9695)" fill="#FFFFFF" width="1.851" height="275.162"/>
		
			<rect x="503.058" y="210.991" transform="matrix(-0.4923 0.8704 -0.8704 -0.4923 1055.5081 81.5117)" fill="#FFFFFF" width="1.851" height="275.162"/>
		
			<rect x="486.664" y="239.989" transform="matrix(-0.4926 0.8702 -0.8702 -0.4926 1056.3683 139.2586)" fill="#FFFFFF" width="1.85" height="275.161"/>
		
			<rect x="470.27" y="268.984" transform="matrix(-0.492 0.8706 -0.8706 -0.492 1056.981 196.3843)" fill="#FFFFFF" width="1.851" height="275.162"/>
		
			<rect x="453.876" y="297.981" transform="matrix(-0.492 0.8706 -0.8706 -0.492 1057.7661 253.9213)" fill="#FFFFFF" width="1.851" height="275.164"/>
		
			<rect x="437.482" y="326.979" transform="matrix(-0.492 0.8706 -0.8706 -0.492 1058.5543 311.4768)" fill="#FFFFFF" width="1.85" height="275.162"/>
		<path fill="#283648" d="M521.847,87.739H159.635v503.663h362.212c2.709,0,4.904-2.196,4.904-4.906V92.645
			C526.751,89.935,524.556,87.739,521.847,87.739z M180.075,577.501c-4.967,0-8.993-4.026-8.993-8.993
			c0-4.968,4.026-8.995,8.993-8.995c4.968,0,8.995,4.027,8.995,8.995C189.07,573.475,185.043,577.501,180.075,577.501
			L180.075,577.501z M180.075,531.714c-4.967,0-8.993-4.026-8.993-8.995c0-4.967,4.026-8.992,8.993-8.992
			c4.968,0,8.995,4.025,8.995,8.992C189.07,527.688,185.043,531.714,180.075,531.714L180.075,531.714L180.075,531.714z
			 M180.075,485.927c-4.967,0-8.993-4.026-8.993-8.995c0-4.967,4.026-8.994,8.993-8.994c4.968,0,8.995,4.027,8.995,8.994
			C189.07,481.901,185.043,485.927,180.075,485.927L180.075,485.927L180.075,485.927z M180.075,440.139
			c-4.967,0-8.993-4.027-8.993-8.994s4.026-8.994,8.993-8.994c4.968,0,8.995,4.027,8.995,8.994S185.043,440.139,180.075,440.139
			L180.075,440.139L180.075,440.139z M180.075,394.352c-4.967,0-8.993-4.026-8.993-8.994c0-4.969,4.026-8.994,8.993-8.994
			c4.968,0,8.995,4.025,8.995,8.994l0,0C189.07,390.326,185.043,394.352,180.075,394.352L180.075,394.352L180.075,394.352z
			 M180.075,348.564c-4.967,0-8.993-4.027-8.993-8.995s4.026-8.994,8.993-8.994c4.968,0,8.995,4.027,8.995,8.994l0,0
			C189.07,344.537,185.043,348.564,180.075,348.564L180.075,348.564L180.075,348.564z M180.075,302.777
			c-4.967,0-8.993-4.026-8.993-8.995c0-4.967,4.026-8.994,8.993-8.994c4.968,0,8.995,4.027,8.995,8.994l0,0
			C189.07,298.75,185.043,302.777,180.075,302.777L180.075,302.777L180.075,302.777z M180.075,256.989
			c-4.967,0-8.993-4.026-8.993-8.993c0-4.968,4.026-8.995,8.993-8.995c4.968,0,8.995,4.027,8.995,8.995l0,0
			C189.07,252.962,185.043,256.989,180.075,256.989L180.075,256.989L180.075,256.989z M180.075,211.201
			c-4.967,0-8.993-4.026-8.993-8.993c0-4.968,4.026-8.994,8.993-8.994c4.968,0,8.995,4.026,8.995,8.994l0,0
			C189.07,207.175,185.043,211.201,180.075,211.201L180.075,211.201L180.075,211.201z M180.075,165.414
			c-4.967,0-8.993-4.027-8.993-8.994c0-4.968,4.026-8.994,8.993-8.994c4.968-0.001,8.995,4.026,8.995,8.994
			C189.07,161.387,185.043,165.414,180.075,165.414L180.075,165.414L180.075,165.414z M180.075,119.626
			c-4.967,0-8.993-4.026-8.993-8.994c0-4.967,4.026-8.994,8.993-8.994c4.968,0,8.995,4.027,8.995,8.994l0,0
			C189.07,115.6,185.043,119.626,180.075,119.626L180.075,119.626L180.075,119.626z"/>
		<path fill="#2F2E41" d="M159.635,115.539c-2.427,0-23.71-0.115-23.71-4.088c0-3.974,21.284-4.088,23.71-4.088v1.635
			c-12.537,0-20.665,1.404-21.974,2.453c1.309,1.049,9.437,2.453,21.974,2.453c12.508,0,20.628-1.397,21.965-2.446
			c-0.636-0.449-3.234-1.391-10.203-1.993l0.141-1.629c11.808,1.02,11.808,2.905,11.808,3.615
			C183.346,115.424,162.063,115.539,159.635,115.539z"/>
		<path fill="#2F2E41" d="M159.635,160.508c-2.427,0-23.71-0.115-23.71-4.088c0-3.974,21.284-4.088,23.71-4.088v1.635
			c-12.537,0-20.665,1.402-21.974,2.453c1.309,1.049,9.437,2.453,21.974,2.453c12.508,0,20.628-1.397,21.965-2.446
			c-0.636-0.449-3.234-1.391-10.203-1.993l0.141-1.629c11.808,1.021,11.808,2.906,11.808,3.615
			C183.346,160.394,162.063,160.508,159.635,160.508z"/>
		<path fill="#2F2E41" d="M159.635,206.296c-2.427,0-23.71-0.115-23.71-4.088c0-3.974,21.284-4.088,23.71-4.088v1.635
			c-12.537,0-20.665,1.403-21.974,2.453c1.309,1.049,9.437,2.453,21.974,2.453c12.508,0,20.628-1.397,21.965-2.445
			c-0.636-0.449-3.234-1.391-10.203-1.993l0.141-1.63c11.808,1.021,11.808,2.907,11.808,3.616
			C183.346,206.181,162.063,206.296,159.635,206.296z"/>
		<path fill="#2F2E41" d="M159.635,252.083c-2.427,0-23.71-0.114-23.71-4.088s21.284-4.088,23.71-4.088v1.635
			c-12.537,0-20.665,1.403-21.974,2.453c1.309,1.049,9.437,2.452,21.974,2.452c12.508,0,20.628-1.397,21.965-2.445
			c-0.636-0.45-3.234-1.391-10.203-1.993l0.141-1.629c11.808,1.021,11.808,2.905,11.808,3.615
			C183.346,251.969,162.063,252.083,159.635,252.083z"/>
		<path fill="#2F2E41" d="M159.635,297.871c-2.427,0-23.71-0.115-23.71-4.088c0-3.973,21.284-4.087,23.71-4.087v1.635
			c-12.537,0-20.665,1.404-21.974,2.452c1.309,1.05,9.437,2.454,21.974,2.454c12.508,0,20.628-1.396,21.965-2.445
			c-0.636-0.45-3.234-1.391-10.203-1.994l0.141-1.629c11.808,1.02,11.808,2.906,11.808,3.614
			C183.346,297.756,162.063,297.871,159.635,297.871z"/>
		<path fill="#2F2E41" d="M159.635,343.659c-2.427,0-23.71-0.115-23.71-4.089s21.284-4.088,23.71-4.088v1.635
			c-12.537,0-20.665,1.403-21.974,2.453c1.309,1.05,9.437,2.453,21.974,2.453c12.508,0,20.628-1.396,21.965-2.446
			c-0.636-0.449-3.234-1.39-10.203-1.993l0.141-1.628c11.808,1.02,11.808,2.906,11.808,3.614
			C183.346,343.543,162.063,343.659,159.635,343.659z"/>
		<path fill="#2F2E41" d="M159.635,389.446c-2.427,0-23.71-0.114-23.71-4.088c0-3.975,21.284-4.088,23.71-4.088v1.635
			c-12.537,0-20.665,1.404-21.974,2.453c1.309,1.051,9.437,2.453,21.974,2.453c12.508,0,20.628-1.397,21.965-2.445
			c-0.636-0.449-3.234-1.391-10.203-1.994l0.141-1.629c11.808,1.021,11.808,2.906,11.808,3.615
			C183.346,389.332,162.063,389.446,159.635,389.446z"/>
		<path fill="#2F2E41" d="M159.635,435.233c-2.427,0-23.71-0.114-23.71-4.088s21.284-4.088,23.71-4.088v1.636
			c-12.537,0-20.665,1.402-21.974,2.452c1.309,1.05,9.437,2.452,21.974,2.452c12.508,0,20.628-1.396,21.965-2.445
			c-0.636-0.448-3.234-1.39-10.203-1.993l0.141-1.629c11.808,1.021,11.808,2.906,11.808,3.615
			C183.346,435.119,162.063,435.233,159.635,435.233z"/>
		<path fill="#2F2E41" d="M159.635,481.022c-2.427,0-23.71-0.115-23.71-4.088c0-3.975,21.284-4.089,23.71-4.089v1.636
			c-12.537,0-20.665,1.402-21.974,2.453c1.309,1.049,9.437,2.451,21.974,2.451c12.508,0,20.628-1.396,21.965-2.445
			c-0.636-0.449-3.234-1.391-10.203-1.992l0.141-1.629c11.808,1.021,11.808,2.905,11.808,3.615
			C183.346,480.907,162.063,481.022,159.635,481.022z"/>
		<path fill="#2F2E41" d="M159.635,526.809c-2.427,0-23.71-0.115-23.71-4.09c0-3.973,21.284-4.088,23.71-4.088v1.637
			c-12.537,0-20.665,1.402-21.974,2.451c1.309,1.051,9.437,2.454,21.974,2.454c12.508,0,20.628-1.396,21.965-2.445
			c-0.636-0.45-3.234-1.391-10.203-1.993l0.141-1.629c11.808,1.02,11.808,2.904,11.808,3.613
			C183.346,526.694,162.063,526.809,159.635,526.809z"/>
		<path fill="#2F2E41" d="M159.635,572.596c-2.427,0-23.71-0.114-23.71-4.088c0-3.975,21.284-4.088,23.71-4.088v1.635
			c-12.537,0-20.665,1.403-21.974,2.453c1.309,1.049,9.437,2.452,21.974,2.452c12.508,0,20.628-1.397,21.965-2.444
			c-0.636-0.449-3.234-1.393-10.203-1.992l0.141-1.631c11.808,1.021,11.808,2.906,11.808,3.615
			C183.346,572.482,162.063,572.596,159.635,572.596z"/>
		<path fill="#FFFFFF" d="M447.851,280.292H267.972c-2.934-0.002-5.312-2.381-5.314-5.314v-70.317
			c0.002-2.934,2.38-5.311,5.314-5.314h179.879c2.934,0.003,5.312,2.381,5.315,5.314v70.317
			C453.163,277.911,450.785,280.289,447.851,280.292z"/>
		<path fill="#F2B400" d="M380.805,223.466h-45.788c-2.258,0-4.088-1.831-4.088-4.089c0-2.257,1.83-4.088,4.088-4.088h45.788
			c2.259,0,4.088,1.831,4.088,4.088C384.893,221.636,383.063,223.466,380.805,223.466L380.805,223.466z"/>
		<path fill="#F2B400" d="M406.151,243.907H309.67c-2.257,0-4.088-1.831-4.088-4.087c0-2.259,1.831-4.089,4.088-4.089h96.481
			c2.259,0,4.089,1.83,4.089,4.089C410.24,242.077,408.41,243.907,406.151,243.907z"/>
		<path fill="#F2B400" d="M406.151,264.348H309.67c-2.257,0-4.088-1.831-4.088-4.088s1.831-4.088,4.088-4.088h96.481
			c2.259,0,4.089,1.83,4.089,4.088S408.41,264.348,406.151,264.348z"/>
	</g>
	<ellipse fill="#122335" cx="717.914" cy="632.718" rx="148.009" ry="7.481"/>
	<path fill="#283648" d="M662.834,426.915l13.28-9.231l27.524-35.429c1.634-2.104,1.253-5.135-0.85-6.77l0,0
		c-2.104-1.635-5.135-1.253-6.771,0.851l-27.523,35.429L662.834,426.915z"/>
	<path fill="#122335" d="M781.375,90.115c0,0-16.701-14.975-39.162,13.246c-22.461,28.219-57.592,42.042-65.655,52.984
		c0,0,33.403-13.822,44.921-19.582c11.52-5.758,10.943-4.607,10.943-4.607s-15.551,10.943-18.43,21.885
		c-2.879,10.943-0.575,20.158-5.759,31.1c-5.183,10.942,99.06,7.487,99.06,7.487s10.365-17.854,7.486-36.283
		C811.901,137.917,813.627,92.418,781.375,90.115z"/>
	<path fill="#FFB9B9" d="M748.547,134.46c0,0,4.032,28.22-13.245,34.555c-17.278,6.335-10.942,14.975-10.942,14.975l25.916,12.669
		l27.645-8.638l9.215-13.822c0,0-14.975-3.456-10.942-13.822c4.031-10.367,5.183-13.822,5.183-13.822L748.547,134.46z"/>
	<path opacity="0.1" enable-background="new    " d="M748.547,134.46c0,0,4.032,28.22-13.245,34.555
		c-17.278,6.335-10.942,14.975-10.942,14.975l25.916,12.669l27.645-8.638l9.215-13.822c0,0-14.975-3.456-10.942-13.822
		c4.031-10.367,5.183-13.822,5.183-13.822L748.547,134.46z"/>
	<path fill="#FFB9B9" d="M821.115,215.089c0,0-4.031,52.984-2.88,55.288c1.151,2.304,0,82.357,0,82.357s8.063,43.194-2.304,45.498
		c-10.366,2.303-8.063-48.377-8.063-48.377l-10.365-66.808l1.15-66.231L821.115,215.089z"/>
	<path opacity="0.1" enable-background="new    " d="M821.115,215.089c0,0-4.031,52.984-2.88,55.288c1.151,2.304,0,82.357,0,82.357
		s8.063,43.194-2.304,45.498c-10.366,2.303-8.063-48.377-8.063-48.377l-10.365-66.808l1.15-66.231L821.115,215.089z"/>
	<path fill="#FFB9B9" d="M708.809,374.62c0,0-19.006,71.991-18.429,107.122c0.575,35.132,8.063,84.085,8.063,84.085
		s1.151,21.309-0.576,23.612c-1.729,2.304,8.639,12.095,8.639,12.095l10.942-6.336l4.03-4.606v-4.032c0,0-6.334-19.581-1.15-35.131
		c5.183-15.551,8.063-54.713,2.88-66.807l35.707-105.971L708.809,374.62z"/>
	<path fill="#283648" d="M707.659,592.319c0,0-6.912-8.639-11.52-5.76c-4.606,2.88-12.094,22.461-12.094,22.461
		s-25.918,24.764-7.487,25.916c18.43,1.152,26.493-5.183,28.796-9.79c2.305-4.608,23.612-16.701,23.612-16.701
		s-2.304-21.886-5.758-22.461c-3.456-0.577-8.64,8.639-8.64,8.639L707.659,592.319z"/>
	<path fill="#FFB9B9" d="M771.585,379.228v71.413c0.066,8.666,0.644,17.319,1.728,25.916c1.728,12.67-9.791,107.123-9.791,107.123
		l1.152,16.701l14.397-1.152l1.728-14.397l20.734-63.352c0,0,6.91-38.587,3.455-52.983c-3.455-14.399,17.854-106.547,17.854-106.547
		L771.585,379.228z"/>
	<path fill="#283648" d="M760.067,596.349l4.266-0.926c0,0,3.222-7.136,7.253-5.408c2.837,1.308,5.524,2.919,8.017,4.803l1.773,3.26
		c0,0,4.031,8.64,9.216,14.398c5.182,5.759,10.942,18.429,2.303,19.581c-8.639,1.152-20.157,1.727-23.612-1.152
		s-1.152-7.486-4.607-8.638c-3.455-1.152-6.336-4.608-5.759-5.76C759.491,615.355,760.067,596.349,760.067,596.349z"/>
	<circle fill="#FFB9B9" cx="771.585" cy="128.701" r="27.644"/>
	<path fill="#F2B400" d="M723.208,173.623l7.606-2.656c0,0-3,4.959,13.127,7.839c16.125,2.879,32.826,3.899,40.313-5.537
		c0,0,2.881-1.374,6.912,2.657c4.031,4.031,6.336,2.88,6.336,2.88l-2.881,14.974l-5.759,27.644l-7.487,20.733l-21.309-4.607
		l-23.036-16.701l-8.64-22.462v-20.732L723.208,173.623z"/>
	<path fill="#F2B400" d="M793.471,181.686l5.758-4.031c0,0,19.582,3.456,20.734,12.669l-14.975,28.796
		c3.055,8.013,2.848,16.903-0.576,24.765c-5.76,13.247-5.184,16.125-5.184,16.125l-4.031,17.278l-73.142,5.76
		c0,0-2.88-6.911-4.032-8.063s-1.152-5.184,0-5.184s0-1.728-1.152-3.455c-1.15-1.729-1.727-2.305,0-4.608
		c1.729-2.304-2.879-23.038-2.879-23.038v-22.46l-19.58-25.917c0,0,6.91-10.367,10.365-11.518
		c3.456-1.151,19.894-5.694,19.894-5.694l3.72,5.477l5.184,41.683l7.487,25.341l31.524-5.356l12.245-20.561l8.063-24.189
		L793.471,181.686z"/>
	<path fill="#F2B400" d="M815.356,186.869l4.607,3.456c0,0,4.03,32.252,2.879,34.555c-1.152,2.304-21.309,4.608-21.885,3.456
		C800.381,227.183,815.356,186.869,815.356,186.869z"/>
	<path fill="#FFB9B9" d="M690.38,222c0,0,4.032,52.985,2.88,55.288c-1.152,2.305,0,82.357,0,82.357s-8.063,43.194,2.303,45.497
		c10.366,2.305,8.063-48.377,8.063-48.377l10.366-66.807l-1.152-66.231L690.38,222z"/>
	<path fill="#283648" d="M720.329,170.743l5.759,38.011c0,0-5.183,56.44-4.031,67.958l1.152,3.457c0,0-2.304-1.152-2.88,1.151
		c-0.576,2.304,0,9.791,0,9.791s-3.457,3.455-4.607,22.461c-1.152,19.006-14.975,64.503-9.792,66.231
		c5.185,1.729,36.283,10.367,52.985,8.639s76.599-21.885,76.021-27.068c-0.575-5.183-29.372-78.325-29.372-78.325
		s-5.183-8.64-5.183-9.791s6.912-5.759,5.183-10.367c-1.727-4.607-10.942-52.984-10.942-52.984l6.336-34.555l-8.639-2.304
		l-6.336,33.403c0,0-24.764,12.095-50.681,1.151l-5.759-39.162L720.329,170.743z"/>
	<path fill="#F2B400" d="M699.019,188.597l-4.606,1.728c0,0-8.64,36.284-6.336,36.284s29.947,3.456,29.947,2.303
		c0-1.151-5.184-29.372-5.184-29.372L699.019,188.597z"/>
	<path fill="#122335" d="M749.7,104.512c0,0,42.619,29.372,54.138,16.126c11.519-13.247-20.157-24.765-20.157-24.765l-26.493-2.879
		L749.7,104.512z"/>
	<path fill="#F2B400" d="M243.526,182.863c-7.955,7.479-15.91,7.479-23.866,0c-6.521-6.26-10.174-14.931-10.097-23.971V86.221h44.06
		v72.671C253.701,167.932,250.048,176.603,243.526,182.863z"/>
</g>
</svg>
