<?xml version="1.0" encoding="utf-8"?>
<!-- Generator: Adobe Illustrator 16.0.0, SVG Export Plug-In . SVG Version: 6.00 Build 0)  -->
<!DOCTYPE svg PUBLIC "-//W3C//DTD SVG 1.1//EN" "http://www.w3.org/Graphics/SVG/1.1/DTD/svg11.dtd">
<svg version="1.1" id="Layer_1" xmlns="http://www.w3.org/2000/svg" xmlns:xlink="http://www.w3.org/1999/xlink" x="0px" y="0px"
	 width="1000px" height="715px" viewBox="0 0 1000 715" enable-background="new 0 0 1000 715" xml:space="preserve">
<g>
	<path fill="#D0CDE1" d="M503.944,24.839l376.873,162.976c6.391,3.212,10.232,9.941,9.75,17.076l-21.838,323.477
		c-0.328,4.852-4.527,8.521-9.379,8.193c-1.178-0.078-2.328-0.395-3.381-0.928l-384.444-196.2l18.737-306.708
		c0.31-5.211,4.785-9.185,9.996-8.876C501.542,23.925,502.795,24.262,503.944,24.839z"/>
	<path fill="#283648" d="M508.27,31.432l367.641,158.333c6.232,3.133,9.98,9.698,9.51,16.659L864.12,521.954
		c-0.32,4.734-4.416,8.313-9.15,7.992c-1.148-0.076-2.268-0.385-3.295-0.904L476.672,337.66l18.252-298.536
		c0.301-5.083,4.667-8.96,9.75-8.658C505.928,30.54,507.151,30.868,508.27,31.432z"/>
	<path fill="#FFFFFF" d="M524.338,55.916l333.35,141.092c5.648,2.841,9.045,8.791,8.619,15.1l-19.309,286.021
		c-0.289,4.291-4.004,7.535-8.293,7.244c-1.041-0.07-2.059-0.35-2.99-0.82L495.789,331.07l16.452-268.182
		c0.273-4.608,4.23-8.123,8.838-7.85C522.213,55.107,523.323,55.405,524.338,55.916z"/>
	<path fill="#D0CDE1" d="M182.404,498.604l376.352,189.537c7.104,3.57,15.48,3.561,22.574-0.029l278.414-141.334
		c3.266-3.264,2.809-8.102,1.766-11.734c-0.506-1.76-1.197-3.459-2.059-5.074l-37.939-19.953L502.524,350.859l-19.058-10.117
		c-10.243-5.423-22.494-5.473-32.778-0.132l-268.4,139.42c-5.113,2.646-7.115,8.932-4.471,14.045
		C178.829,496.032,180.435,497.616,182.404,498.604z"/>
	<path opacity="0.1" enable-background="new    " d="M182.404,498.604l376.352,189.537c7.104,3.57,15.48,3.561,22.574-0.029
		l278.414-141.334c3.266-3.264,2.809-8.102,1.766-11.734L583.926,679.325c-6.869,3.572-15.035,3.641-21.965,0.188L176.787,487.62
		C176.043,492.118,178.323,496.575,182.404,498.604z"/>
	<path opacity="0.1" enable-background="new    " d="M539.624,555.393l-121.883-61.592c-4.98-2.516-10.873-2.449-15.794,0.18
		l-70.705,37.773c-2.464,1.318-3.394,4.381-2.078,6.844c0.491,0.92,1.254,1.664,2.184,2.133l124.272,62.67
		c4.191,2.111,9.159,1.996,13.247-0.307l70.987-39.994c2.096-1.18,2.838-3.834,1.656-5.93
		C541.077,556.401,540.418,555.78,539.624,555.393z"/>
	<path opacity="0.1" enable-background="new    " d="M826.674,545.092l-131.156,69.676c-3.061,1.629-6.725,1.664-9.82,0.1
		l-370.572-187.4c-3.107-1.57-4.351-5.361-2.78-8.467c0.614-1.217,1.607-2.201,2.829-2.805l128.077-63.392
		c3.914-1.937,8.51-1.92,12.41,0.044l370.957,186.905c1.482,0.748,2.078,2.555,1.332,4.037
		C827.668,544.346,827.225,544.801,826.674,545.092z"/>
	
		<rect x="676.664" y="161.001" transform="matrix(-0.4475 0.8943 -0.8943 -0.4475 1184.7869 -275.178)" fill="#F2B400" width="1.471" height="134.815"/>
	
		<rect x="676.665" y="179.05" transform="matrix(-0.4546 0.8907 -0.8907 -0.4546 1205.1842 -244.3511)" fill="#F2B400" width="1.469" height="135.48"/>
	
		<rect x="672.989" y="228.575" transform="matrix(-0.4544 0.8908 -0.8908 -0.4544 1218.0295 -211.294)" fill="#F2B400" width="1.47" height="77.606"/>
	<path fill="#3F3D56" d="M261.958,322.689c0,0-29.406-12.813-43.217,0.722C204.93,336.947,255.72,332.491,261.958,322.689z"/>
	<path fill="#122335" d="M211.183,261.923c9.88-16.697,29.432-17.475,29.432-17.475s19.05-2.437,31.271,22.994
		c11.391,23.703,27.111,46.588,2.532,52.137l-4.44-13.819l-2.75,14.848c-3.5,0.252-7.011,0.312-10.517,0.18
		c-26.324-0.85-51.394,0.249-50.586-9.197C207.198,299.032,201.675,277.989,211.183,261.923z"/>
	<path fill="#FFB8B8" d="M197.355,564.614c0,0,12.476,23.168,20.494,23.168c8.02,0,7.129,15.148,5.346,18.713
		c-1.782,3.563-6.236,11.582,0.892,23.166c2.49,4.047,2.044,8.637,0.41,12.896c-4.578,11.936-22.388,8.32-21.819-4.451
		c0.006-0.141,0.015-0.281,0.022-0.426c0.891-14.256-6.237-36.533-13.365-41.879c-7.13-5.348-13.367-19.604-13.367-19.604
		L197.355,564.614z"/>
	<path fill="#FFB8B8" d="M282.897,559.268c0,0-12.475,23.166-20.494,23.166s-7.128,15.15-5.346,18.713
		c1.783,3.564,6.238,11.584-0.891,23.168c-2.49,4.047-2.044,8.637-0.411,12.896c4.578,11.936,22.387,8.318,21.819-4.453
		c-0.006-0.139-0.014-0.281-0.023-0.424c-0.891-14.258,6.238-36.533,13.366-41.881c7.128-5.346,13.366-19.602,13.366-19.602
		L282.897,559.268z"/>
	<path fill="#122335" d="M273.096,445.211l5.346,11.584c0,0,78.413,25.84,71.285,56.139c-7.128,30.295-41.88,77.52-47.226,75.738
		c-5.347-1.781-33.861-7.129-34.752-22.277c-0.892-15.146,20.495-41.879,20.495-41.879l-29.404-26.732l-42.791-0.891l-36.515,27.623
		c0,0,38.315,33.859,21.386,47.227c-16.93,13.365-41.88,22.275-45.444,16.93c-3.565-5.348-43.662-84.652-37.426-91.779
		c6.238-7.129,69.504-33.861,69.504-33.861l16.93-24.059l65.938-3.564L273.096,445.211z"/>
	<path fill="#FFB8B8" d="M257.057,298.185c0,0-4.456,29.405,4.456,32.97c8.91,3.564-17.822,18.712-17.822,18.712h-15.147
		l-9.802-20.495c0,0,8.911-16.04,3.565-31.188C216.959,283.038,257.057,298.185,257.057,298.185z"/>
	<path opacity="0.1" enable-background="new    " d="M257.057,298.185c0,0-4.456,29.405,4.456,32.97
		c8.91,3.564-17.822,18.712-17.822,18.712h-15.147l-9.802-20.495c0,0,8.911-16.04,3.565-31.188
		C216.959,283.038,257.057,298.185,257.057,298.185z"/>
	<path fill="#D0CDE1" d="M263.294,323.135c0,0-9.801,10.693-11.584,12.475c-1.782,1.783-9.802,11.584-26.732-2.673
		c-16.931-14.257-18.712,2.673-18.712,2.673v106.93c0,0,14.257-6.24,25.841,0c11.583,6.236,35.643-1.783,35.643-1.783l4.455-110.493
		L263.294,323.135z"/>
	<path fill="#283648" d="M256.749,323.135c0,0,8.328-3.564,15.455,0c7.13,3.564,32.079,21.386,30.298,29.406
		c-1.783,8.02-24.951,64.155-8.912,90.887c16.04,26.732,18.713,33.859,18.713,33.859l-39.207-20.492
		c0,0-30.296-18.713-27.623-30.297C248.146,414.915,256.749,323.135,256.749,323.135z"/>
	<path fill="#283648" d="M221.404,323.135c0,0-18.702,1.782-19.593,3.564c-0.891,1.782-28.068,9.356-26.287,17.376
		c1.783,8.02,26.287,79.751,15.594,93.117c-10.693,13.367-28.514,32.078-22.277,33.859c6.238,1.783,16.931-2.672,27.624,0
		c10.693,2.674,35.642-19.602,32.969-43.662C226.761,403.331,229.413,329.373,221.404,323.135z"/>
	<path fill="#FFB8B8" d="M265.968,493.329v8.912c0,0,4.455,20.492-9.802,19.602c-14.258-0.893-5.346-24.949-5.346-24.949l0.891-8.02
		L265.968,493.329z"/>
	<path fill="#FFB8B8" d="M225.869,494.219c0,0,9.802,20.494,0,22.277c-9.801,1.783-16.93-11.584-16.93-15.148
		S225.869,494.219,225.869,494.219z"/>
	<ellipse fill="#FFB8B8" cx="212.949" cy="286.156" rx="1.782" ry="3.565"/>
	<ellipse fill="#FFB8B8" cx="265.521" cy="286.156" rx="1.783" ry="3.565"/>
	<path fill="#283648" d="M197.355,334.719c0,0-22.276,0-21.385,8.91c0.891,8.912,30.296,162.174,30.296,162.174
		s12.475-11.584,23.167-8.91L197.355,334.719z"/>
	<path fill="#283648" d="M283.789,337.393c0,0,22.276,4.454,22.276,17.822c0,13.366-32.078,141.678-36.534,141.678
		c-4.455,0-21.385-2.674-21.385-7.129S283.789,337.393,283.789,337.393z"/>
	<path opacity="0.2" enable-background="new    " d="M278.888,363.68l-20.048,78.404C258.84,442.084,268.195,373.481,278.888,363.68
		z"/>
	<path opacity="0.2" enable-background="new    " d="M200.905,352.662l20.276,102.51C221.181,455.172,214.7,358.577,200.905,352.662
		z"/>
	<circle fill="#FFB8B8" cx="239.235" cy="286.601" r="25.841"/>
	<polygon fill="#122335" points="215.552,260.313 234.866,250.197 261.539,254.335 267.057,278.708 253.321,278.181 
		249.483,269.226 249.483,278.033 243.145,277.789 239.465,263.533 237.166,278.708 214.632,278.249 	"/>
	<polyline fill="#F2F2F2" points="505.186,110.292 494.536,135.625 584.436,182.814 614.725,94.18 	"/>
	<polygon fill="#F2B400" points="582.364,167.272 622.081,73.823 536.799,38.905 492.463,120.083 	"/>
	
		<rect x="562.126" y="44.148" transform="matrix(-0.4542 0.8909 -0.8909 -0.4542 892.4336 -380.8109)" fill="#FFFFFF" width="1.471" height="77.606"/>
	
		<rect x="556.943" y="56.582" transform="matrix(-0.4553 0.8903 -0.8903 -0.4553 896.5109 -357.7132)" fill="#FFFFFF" width="1.471" height="77.604"/>
</g>
</svg>
