<?xml version="1.0" encoding="utf-8"?>
<!-- Generator: Adobe Illustrator 16.0.0, SVG Export Plug-In . SVG Version: 6.00 Build 0)  -->
<!DOCTYPE svg PUBLIC "-//W3C//DTD SVG 1.1//EN" "http://www.w3.org/Graphics/SVG/1.1/DTD/svg11.dtd">
<svg version="1.1" id="e59edb86-a3bc-4694-8aac-31e565ca5cfc"
	 xmlns="http://www.w3.org/2000/svg" xmlns:xlink="http://www.w3.org/1999/xlink" x="0px" y="0px" width="676px" height="676px"
	 viewBox="0 0 676 676" enable-background="new 0 0 676 676" xml:space="preserve">
<title>male_avatar</title>
<path fill="#F2B400" d="M676,338c0.061,45.754-9.201,91.042-27.22,133.1l-1.12,2.58c-62.725,142.695-214.771,224.125-368.31,197.25
	c-2.03-0.359-4.057-0.734-6.08-1.121c-20.907-4.053-41.379-10.09-61.14-18.029c-3.21-1.289-6.396-2.627-9.56-4.01
	c-2.16-0.939-4.32-1.91-6.46-2.91C76.584,589.463,0.07,469.738,0,338C0,151.33,151.33,0,338,0S676,151.33,676,338z"/>
<path opacity="0.2" enable-background="new    " d="M221.714,241.521c-6.38,35.997,7.705,68.592,7.705,68.592
	s24.43-25.769,30.811-61.766c6.38-35.998-7.705-68.592-7.705-68.592S228.095,205.524,221.714,241.521z"/>
<path fill="#FFB8B8" d="M285.833,381.965c0,0,16.471,78.239,16.471,86.475s78.238,45.296,78.238,45.296l70.003-12.354l24.707-74.12
	c0,0-41.178-61.768-41.178-86.475L285.833,381.965z"/>
<path fill="#D0CDE1" d="M212.13,651.78c-3.21-1.29-6.396-2.627-9.56-4.01c-2.16-0.94-4.32-1.91-6.46-2.91
	c-32.081-14.877-61.635-34.683-87.59-58.7c9.19-12.521,16.72-18.89,16.72-18.89h61.77l9.26,31.14L212.13,651.78z"/>
<path fill="#D0CDE1" d="M594.67,464.32l52.99,9.359c-14.181,32.306-33.333,62.19-56.76,88.57L594.67,464.32z"/>
<path opacity="0.1" enable-background="new    " d="M284.657,379.41c0,0,16.471,78.239,16.471,86.475s78.238,45.296,78.238,45.296
	l70.003-12.354l24.707-74.12c0,0-41.178-61.768-41.178-86.475L284.657,379.41z"/>
<path fill="#D0CDE1" d="M648.78,471.1l-1.12,2.58c-62.725,142.696-214.771,224.125-368.31,197.25c-2.03-0.359-4.057-0.733-6.08-1.12
	c-20.907-4.053-41.379-10.09-61.14-18.029c-3.21-1.29-6.396-2.627-9.56-4.011c-2.16-0.939-4.32-1.909-6.46-2.909
	c-19.397-8.986-37.897-19.795-55.25-32.28l-15.62-45.311l8.78-6.699l18.06-13.79l19.27-14.71l5.01-3.83l75.61-57.72l5.58-4.261
	l39.3-30l0.01-0.01c0,0,42.5,69.25,104.27,48.66c61.771-20.59,60.42-79.631,60.42-79.631L648.78,471.1z"/>
<circle fill="#FFB8B8" cx="337.306" cy="281.079" r="131.771"/>
<path fill="#283648" d="M223.035,174.916c0,0,41.837-90.646,122.023-69.728c80.187,20.918,125.51,52.296,128.996,83.673
	c3.486,31.377-1.743,78.444-1.743,78.444s-8.716-64.498-64.498-50.553c-55.782,13.946-142.941,3.486-142.941,3.486l-13.946,125.509
	c0,0-15.688-22.661-33.121-8.715C200.374,350.979,167.253,202.807,223.035,174.916z"/>
</svg>
