<?xml version="1.0" encoding="utf-8"?>
<!-- Generator: Adobe Illustrator 16.0.0, SVG Export Plug-In . SVG Version: 6.00 Build 0)  -->
<!DOCTYPE svg PUBLIC "-//W3C//DTD SVG 1.1//EN" "http://www.w3.org/Graphics/SVG/1.1/DTD/svg11.dtd">
<svg version="1.1" id="Layer_1" xmlns="http://www.w3.org/2000/svg" xmlns:xlink="http://www.w3.org/1999/xlink" x="0px" y="0px"
	 width="1000px" height="715px" viewBox="0 0 1000 715" enable-background="new 0 0 1000 715" xml:space="preserve">
<g>
	<path fill="#F2F2F2" d="M56.815,704.921c-15.385-1.268-28.966-12.396-36.69-25.761c-2.59-4.481-4.365-10.362-1.432-14.626
		c2.519-3.663,7.529-4.589,11.192-2.071c1.392,0.957,2.447,2.328,3.018,3.919c-0.946-5.235-1.352-10.555-1.212-15.875
		c0.118-4.502,0.968-9.593,4.711-12.099c4.346-2.903,10.606-0.598,13.765,3.565c3.16,4.163,4.018,9.575,4.777,14.749
		c-2.044-7.229,2.157-14.747,9.386-16.792c1.863-0.526,3.816-0.648,5.73-0.359c6.364,0.962,11.348,6.47,13.292,12.603
		c1.943,6.135,1.337,12.783,0.086,19.098c-1.467,7.397-3.85,14.741-8.138,20.948c-4.288,6.208-10.658,11.213-18.049,12.732
		L56.815,704.921z"/>
	<path fill="#F2F2F2" d="M998.096,205.311c0.008,56.578-35.754,106.977-89.152,125.67c-0.828,0.289-1.672,0.578-2.512,0.841V196.571
		H732.176c0.053-0.842,0.115-1.684,0.189-2.511h174.066v-26.421c0-3.467-2.813-6.278-6.275-6.278H739.325
		c0.287-0.842,0.586-1.683,0.916-2.511c25.666-68.895,102.32-103.938,171.213-78.27C963.545,99.989,998.092,149.722,998.096,205.311
		z"/>
	<path fill="#3F3D56" d="M900.157,158.85H288.623c-4.85,0.004-8.783,3.938-8.789,8.789v414.383c0.006,4.852,3.939,8.785,8.789,8.79
		h611.534c4.852-0.005,8.779-3.938,8.787-8.79V167.639C908.936,162.788,905.008,158.854,900.157,158.85z M906.432,582.022
		c0,3.466-2.813,6.277-6.275,6.279H288.623c-3.465-0.002-6.277-2.813-6.279-6.279V167.639c0.002-3.467,2.814-6.278,6.279-6.278
		h611.534c3.463,0,6.275,2.812,6.275,6.278V582.022z"/>
	<rect x="281.087" y="194.06" fill="#3F3D56" width="626.601" height="2.511"/>
	<circle fill="#3F3D56" cx="302.436" cy="177.685" r="7.534"/>
	<path fill="#3F3D56" d="M324.096,170.151c4.164,0,7.537,3.373,7.537,7.533c0,4.161-3.373,7.534-7.537,7.534
		c-4.158,0-7.533-3.373-7.533-7.534C316.563,173.524,319.938,170.151,324.096,170.151z"/>
	<circle fill="#3F3D56" cx="345.758" cy="177.685" r="7.534"/>
	<path fill="#3F3D56" d="M451.866,245.493H341.362c-4.852,0.005-8.781,3.938-8.789,8.79v110.502c0.008,4.852,3.938,8.785,8.789,8.79
		h110.504c4.852-0.005,8.785-3.938,8.789-8.79V254.283C460.651,249.43,456.717,245.498,451.866,245.493z M458.145,364.785
		c-0.004,3.468-2.813,6.276-6.279,6.279H341.362c-3.465-0.003-6.273-2.812-6.279-6.279V254.283c0.006-3.466,2.814-6.277,6.279-6.279
		h110.504c3.467,0.002,6.275,2.813,6.279,6.279V364.785z"/>
	<path fill="#F2B400" d="M650.268,246.121h-110.5c-4.506,0.009-8.158,3.657-8.164,8.162v110.502
		c0.006,4.504,3.658,8.153,8.164,8.162h110.5c4.502-0.009,8.15-3.658,8.162-8.162V254.283
		C658.418,249.778,654.77,246.129,650.268,246.121z"/>
	<path fill="#E6E6E6" d="M848.668,246.121h-110.5c-4.504,0.009-8.152,3.657-8.164,8.162v110.502c0.012,4.504,3.66,8.153,8.164,8.162
		h110.5c4.504-0.009,8.158-3.658,8.162-8.162V254.283C856.827,249.778,853.172,246.129,848.668,246.121z"/>
	<path fill="#E6E6E6" d="M451.866,411.874H341.362c-4.504,0.007-8.152,3.657-8.162,8.161v110.503
		c0.01,4.504,3.658,8.153,8.162,8.163h110.504c4.504-0.01,8.152-3.659,8.162-8.163V420.035
		C460.018,415.531,456.37,411.88,451.866,411.874z"/>
	<path fill="#F2B400" d="M650.268,411.874h-110.5c-4.506,0.007-8.158,3.657-8.164,8.161v110.503
		c0.006,4.504,3.658,8.153,8.164,8.163h110.5c4.502-0.01,8.15-3.659,8.162-8.163V420.035
		C658.418,415.531,654.77,411.88,650.268,411.874z"/>
	<path fill="#E6E6E6" d="M848.668,411.874h-110.5c-4.504,0.007-8.152,3.657-8.164,8.161v110.503c0.012,4.504,3.66,8.153,8.164,8.163
		h110.5c4.504-0.01,8.158-3.659,8.162-8.163V420.035C856.827,415.531,853.172,411.88,848.668,411.874z"/>
	<path fill="#F2B400" d="M424.868,430.083H314.366c-4.506-0.005-8.156-3.658-8.16-8.162V311.417c0.004-4.506,3.654-8.157,8.16-8.161
		h110.502c4.506,0.004,8.156,3.655,8.162,8.161V421.92C433.024,426.424,429.374,430.078,424.868,430.083z"/>
	<polygon fill="#A0616A" points="255.503,690.124 270.22,685.607 259.802,626.692 238.083,633.357 	"/>
	<path fill="#2F2E41" d="M302.799,690.563l-46.257,14.196l0,0l-5.484-17.873l0,0l28.385-8.712
		C289.31,675.146,299.77,680.692,302.799,690.563L302.799,690.563L302.799,690.563z"/>
	<polygon fill="#A0616A" points="129.934,690.461 145.329,690.461 152.653,631.081 129.932,631.083 	"/>
	<path fill="#2F2E41" d="M175.018,704.756l-48.381,0.003l0,0l-0.003-18.694l0,0l29.69-0.002
		C166.649,686.063,175.018,694.43,175.018,704.756L175.018,704.756L175.018,704.756L175.018,704.756z"/>
	<path fill="#A0616A" d="M128.83,518.333c-4.777-4.187-5.256-11.457-1.067-16.233c0.447-0.511,0.938-0.979,1.467-1.404l11.935-150.3
		l24.273,6.066l-19.433,146.613c3.649,5.242,2.36,12.451-2.883,16.102C138.733,522.233,132.826,521.883,128.83,518.333
		L128.83,518.333z"/>
	<circle fill="#A0616A" cx="177.439" cy="261.258" r="30.841"/>
	<path fill="#CCCCCC" d="M150.621,345.772c-6.958-9.553-7.175-22.711,0.322-31.851c4.893-5.964,13.075-10.736,26.738-10.736
		c36.415,0,50.225,28.882,50.225,28.882s15.07,27.627,6.279,52.739c-8.789,25.116-8.789,27.627-8.789,27.627l-57.763-5.021
		C167.634,407.412,177.379,382.507,150.621,345.772z"/>
	<path fill="#CCCCCC" d="M132.809,370.772l12.443-40.71c3.143-10.282,14.025-16.067,24.307-12.926
		c1.115,0.342,2.196,0.782,3.23,1.314l0,0c9.121,4.723,13.016,15.713,8.902,25.129l-15.821,36.027L132.809,370.772z"/>
	<path fill="#2F2E41" d="M224.141,406.155l48.976,253.652l-26.372,7.534l-64.043-167.009L153.823,671.11l-27.626,3.766
		c0,0-12.118-225.959,41.438-267.464L224.141,406.155z"/>
	<path fill="#A0616A" d="M294.629,394.263c-0.449,0.534-0.852,1.101-1.211,1.695l-62.203,3.019l-11.978-36.566l-20.793,9.885
		l19.572,54.461l76.93-15.045c4.916,5.367,13.252,5.733,18.621,0.817c5.367-4.918,5.732-13.254,0.816-18.623
		c-4.918-5.365-13.254-5.731-18.621-0.815C295.36,393.458,294.983,393.85,294.629,394.263L294.629,394.263z"/>
	<path fill="#CCCCCC" d="M189.74,335.715c-1.258-10.678,6.38-20.352,17.055-21.606c1.16-0.137,2.328-0.168,3.491-0.096l0,0
		c10.249,0.658,18.232,9.156,18.251,19.429v39.348l-33.825,5.204L189.74,335.715z"/>
	<path fill="#2F2E41" d="M184.221,292.378c-4.628-0.019-8.199-4.892-7.993-9.516c0.207-4.626,3.314-8.693,7.057-11.42
		c3.74-2.725,8.128-4.384,12.302-6.388c4.174-2.002,8.31-4.504,10.887-8.347c3.159-5.108,3.637-11.435,1.285-16.959
		c-2.397-5.446-6.514-9.955-11.721-12.838c-16.034-9.386-36.589-4.877-47.222,10.357l-5.284,14.39
		c-5.386,6.475-6.239,16.089-2.929,23.832c3.31,7.744,10.358,13.569,18.311,16.34c8.067,2.594,16.704,2.853,24.913,0.746"/>
	<path fill="#2F2E41" d="M156.035,244.46c-2.271-3.639-6.208-5.954-10.28-7.313c-16.921-5.648-35.22,3.489-40.868,20.41
		c-0.914,2.74-1.457,5.59-1.615,8.474c-0.431,7.93,2.052,15.683,3.51,23.489c1.46,7.805,1.751,16.427-2.553,23.099
		c-3.28,5.083-8.746,8.285-14.143,11.017c-4.494,2.277-9.361,4.414-14.38,3.961c-5.021-0.454-10.068-4.429-9.933-9.47
		c-1.682,3.613-2.816,7.456-3.367,11.402c-0.352,3.963,0.624,8.238,3.486,11.003c4.159,4.016,10.752,3.722,16.469,2.856
		c12.377-1.876,24.91-5.395,34.688-13.212c9.781-7.816,16.268-20.687,13.694-32.938c-1.077-5.118-3.607-9.788-5.648-14.604
		c-2.042-4.813-3.638-10.08-2.7-15.223c1.126-5.367,4.57-9.956,9.41-12.534c4.834-2.514,10.363-3.353,15.725-2.387
		c3.514,0.579,7.903,1.475,9.988-1.415c1.125-1.866,1.082-4.215-0.117-6.036c-1.203-1.769-2.737-3.285-4.512-4.472"/>
	<path fill="#3F3D56" d="M388.282,706.769H2.408c-0.826,0.004-1.499-0.658-1.503-1.485c-0.004-0.828,0.661-1.498,1.488-1.505
		c0.005,0,0.011,0,0.016,0h385.874c0.826-0.005,1.498,0.662,1.502,1.49c0.006,0.823-0.664,1.497-1.488,1.5
		C388.292,706.769,388.286,706.769,388.282,706.769z"/>
</g>
</svg>
