<?xml version="1.0" encoding="utf-8"?>
<!-- Generator: Adobe Illustrator 16.0.0, SVG Export Plug-In . SVG Version: 6.00 Build 0)  -->
<!DOCTYPE svg PUBLIC "-//W3C//DTD SVG 1.1//EN" "http://www.w3.org/Graphics/SVG/1.1/DTD/svg11.dtd">
<svg version="1.1" id="Layer_1" xmlns="http://www.w3.org/2000/svg" xmlns:xlink="http://www.w3.org/1999/xlink" x="0px" y="0px"
	 width="1000px" height="715px" viewBox="0 0 1000 715" enable-background="new 0 0 1000 715" xml:space="preserve">
<g>
	<polygon fill="#FFB9B9" points="336.354,380.976 345.264,408.345 357.355,398.163 350.992,376.522 	"/>
	<path fill="#2F2E41" d="M221.787,264.501l3.182,42.645l77.014,1.908l33.732,77.016l18.457-7.638c0,0-21.002-72.559-30.549-95.472
		c-9.547-22.912-45.826-6.363-45.826-6.363l-3.184-6.367L221.787,264.501z"/>
	<path fill="#2F2E41" d="M341.443,403.254c0,0,1.273,20.367,3.182,21.64c1.91,1.272,16.549-1.272,16.549-1.272
		s4.4,0.979,22.277-3.819c20.098-5.394-2.545-13.365-2.545-13.365s-14.641-9.548-21.006-14.003
		c-6.363-4.456-10.818,5.091-10.818,5.091C350.354,401.343,341.443,403.254,341.443,403.254z"/>
	<path fill="#2F2E41" d="M850.674,485.721l2.025,70.915l21.611,83.073c0,0-4.729,14.183-1.35,17.559
		c3.375,3.378,18.91,9.457,18.91,9.457l-12.83-176.952L850.674,485.721z"/>
	<path fill="#2F2E41" d="M897.594,656.922c0,0,7.709,16.957-3.08,18.496c-10.791,1.542-60.633,5.653-57.549-3.081
		c3.082-8.734,40.592-16.956,40.592-16.956L897.594,656.922z"/>
	<path fill="#2F2E41" d="M926.317,422.912c0,0-8.105,43.899-13.508,51.328c-5.404,7.429,2.701,61.46,2.701,61.46
		s12.156,77.668,6.754,89.827c-5.402,12.155-4.053,8.103-3.375,14.857c0.674,6.754,2.023,12.157,0,18.234
		c-2.027,6.079-2.027,5.405-2.705,8.781c-0.674,3.376,0,21.61,0,21.61s-29.041,10.133-33.768-4.727c0,0,6.754-9.455,4.727-16.884
		c-2.113-7.478-3.246-15.196-3.375-22.964v-14.184L852.7,514.087l-7.43-41.873c0,0,2.025-42.549,9.457-46.602
		C862.155,421.561,926.317,422.912,926.317,422.912z"/>
	<path fill="#2F2E41" d="M914.159,685.635c0,0,10.131,22.289-4.051,24.313c-14.184,2.025-79.695,7.429-75.643-4.052
		c4.051-11.483,53.355-22.287,53.355-22.287L914.159,685.635z"/>
	<circle fill="#FFB9B9" cx="901.321" cy="201.413" r="27.015"/>
	<path fill="#FFB9B9" d="M920.303,213.351l-0.502,34.501l-33.121,0.112c0,0,8.404-27.008,4.641-32.654
		C887.555,209.662,920.303,213.351,920.303,213.351z"/>
	<path fill="#3F3D56" d="M870.934,266.898c0,0,23.641-30.393,41.875-17.561c18.234,12.833,24.988,43.225,24.988,43.225
		l-4.053,85.097c0,0-10.129,12.159-4.053,20.264c6.08,8.104,9.457,6.078,4.73,12.155c-4.73,6.08-10.131,10.807-8.105,12.834
		c2.025,2.025-2.025,3.376-2.025,3.376l-71.592,2.027c0,0,2.027-2.702-4.053-10.807c-6.078-8.104,1.352-18.911,0-22.964
		c-1.352-4.052-2.701,0.677-3.377-8.778C844.594,376.31,870.934,266.898,870.934,266.898z"/>
	<path fill="#FFB9B9" d="M877.69,441.146c0,0-1.354,16.886-11.482,19.586c-3.799,1.014-6.648-0.918-8.727-3.727
		c-3.969-5.511-4.18-12.883-0.531-18.609l2.504-4.004L877.69,441.146z"/>
	<path fill="#3F3D56" d="M940.163,232.791c0,0,0.674,13.508,0,15.535c-0.678,2.025-1.352,4.05,0,6.077
		c1.35,2.025,0.674,8.779-0.678,9.456c-1.35,0.676,2.703,6.754,1.352,10.807c-1.352,4.052-2.701,5.402-3.377,6.754
		c-0.676,1.351-1.764,3.77-1.764,3.77s-19.848-42.267-36.059-32.137c-16.207,10.13-29.041,13.508-29.041,13.508
		S879.377,219.283,940.163,232.791z"/>
	<path fill="#3F3D56" d="M910.782,264.196c0,0,21.613,2.027,20.262,30.392c-1.352,28.367,2.027,72.943,2.027,72.943
		s-37.146,56.731-43.227,60.784c-6.076,4.053-6.754,3.376-6.076,6.752c0.674,3.378,1.35,6.079-1.352,8.781
		c-1.594,1.605-3.414,2.971-5.402,4.053c0,0-21.613-7.431-19.586-14.185c2.025-6.753,11.48-17.559,11.48-17.559
		s16.209-26.34,16.885-30.392c0.676-4.053,0.676-3.379,2.701-5.404c2.027-2.024,7.43-10.129,7.43-14.184v-12.832l-5.662-68.577
		c-0.52-5.648,1.398-11.25,5.273-15.395C898.747,266.012,903.606,263.334,910.782,264.196z"/>
	<path fill="#2F2E41" d="M883.899,180.579c-3.578,0.992-7.414,0.113-10.201-2.335c-2.641-2.507-3.527-6.854-1.648-9.974
		c1.621-2.694,4.775-4.012,7.779-4.949c6.621-2.064,13.518-3.115,20.453-3.119c3.307-0.002,6.76,0.281,9.59,1.992
		c1.398,0.847,2.586,2.008,3.971,2.881c2.545,1.604,5.602,2.137,8.395,3.251c5.783,2.352,10.262,7.092,12.275,13
		c0.643,1.98,1.041,4.029,1.193,6.104c0.457,5.688-0.547,11.396-2.918,16.584c-3.768,8.218-10.941,15.126-11.953,24.109
		c-3.861-3.241-4.994-8.678-7.984-12.735c-2.227-3.002-5.406-5.158-9.016-6.119c-1.008-0.135-1.957-0.558-2.73-1.22
		c-0.52-0.72-0.814-1.575-0.854-2.462l-1.854-13.347c-0.377-2.715-0.885-5.684-2.971-7.465c-1.307-0.973-2.822-1.632-4.428-1.92
		c-3.791-0.944-7.656-1.575-11.551-1.886"/>
	<path opacity="0.1" enable-background="new    " d="M929.784,377.177l-37.912,49.2
		C891.872,426.377,926.782,397.196,929.784,377.177z"/>
	<polygon opacity="0.1" enable-background="new    " points="893.393,322.703 893.75,369.17 871.733,402.2 889.75,365.167 	"/>
	<path fill="#3F3D56" d="M662.483,300.654H432.842v-4.734H328.717v4.734H98.129c-8.578,0-15.533,6.955-15.533,15.531v314.449
		c0,8.578,6.955,15.533,15.533,15.533h564.354c8.58,0,15.533-6.955,15.533-15.533l0,0V316.185
		C678.016,307.609,671.063,300.654,662.483,300.654L662.483,300.654z"/>
	<rect x="103.422" y="328.104" opacity="0.1" enable-background="new    " width="553.768" height="312.383"/>
	<circle fill="#F2B400" cx="379.832" cy="313.905" r="5.679"/>
	<rect x="104.352" y="327.949" fill="#E6E6E6" width="550.272" height="312.268"/>
	<rect x="120.086" y="349.287" fill="#FFFFFF" width="518.803" height="271.249"/>
	<rect x="167.227" y="377.431" fill="#E6E6E6" width="133.309" height="214.96"/>
	<rect x="323.545" y="377.431" fill="#F2B400" width="111.09" height="59.17"/>
	<rect x="323.545" y="453.08" fill="#E6E6E6" width="111.09" height="63.663"/>
	<rect x="323.545" y="533.221" fill="#E6E6E6" width="111.09" height="59.17"/>
	<rect x="458.439" y="377.431" fill="#E6E6E6" width="133.309" height="93.677"/>
	<rect x="458.439" y="498.712" fill="#F2B400" width="133.309" height="93.679"/>
	<path fill="#3F3D56" d="M693.565,634.807H639.52v-3.895c0-0.427-0.344-0.771-0.771-0.771l0,0h-18.529
		c-0.426,0-0.771,0.345-0.771,0.771l0,0l0,0v3.895h-11.582v-3.895c0-0.427-0.346-0.771-0.771-0.771l0,0h-18.529
		c-0.428,0-0.771,0.345-0.771,0.771l0,0l0,0v3.895h-11.58v-3.895c0-0.427-0.348-0.771-0.775-0.771l0,0h-18.527
		c-0.426,0-0.773,0.345-0.773,0.771l0,0l0,0v3.895h-11.58v-3.895c0-0.427-0.346-0.771-0.771-0.771l0,0h-18.531
		c-0.424,0-0.771,0.345-0.771,0.771l0,0l0,0v3.895h-11.58v-3.895c0-0.427-0.346-0.771-0.771-0.771l0,0h-18.53
		c-0.428,0-0.771,0.345-0.771,0.771l0,0l0,0v3.895h-11.584v-3.895c0-0.427-0.344-0.771-0.771-0.771l0,0h-18.529
		c-0.426,0-0.771,0.345-0.771,0.771l0,0l0,0v3.895h-11.58v-3.895c0-0.427-0.348-0.771-0.773-0.771l0,0H303.674
		c-0.426,0-0.771,0.345-0.771,0.771l0,0l0,0v3.895H291.32v-3.895c0-0.427-0.344-0.771-0.771-0.771l0,0H272.02
		c-0.428,0-0.771,0.345-0.771,0.771v3.895h-11.58v-3.895c0-0.427-0.348-0.771-0.773-0.771l0,0h-18.529
		c-0.428,0-0.773,0.345-0.773,0.771l0,0l0,0v3.895h-11.58v-3.895c0-0.427-0.346-0.771-0.771-0.771l0,0h-18.529
		c-0.426,0-0.773,0.345-0.773,0.771l0,0l0,0v3.895h-11.58v-3.895c0-0.427-0.346-0.771-0.771-0.771l0,0h-18.529
		c-0.428,0-0.771,0.345-0.771,0.771l0,0l0,0v3.895h-11.582v-3.895c0-0.427-0.346-0.771-0.773-0.771l0,0h-18.527
		c-0.428,0-0.773,0.345-0.773,0.771l0,0v3.895h-11.58v-3.895c0-0.427-0.346-0.771-0.773-0.771l0,0h-18.529
		c-0.424,0-0.771,0.345-0.771,0.771l0,0l0,0v3.895H77.461c-10.234,0-18.529,8.296-18.529,18.529l0,0v8.38
		c0,10.233,8.295,18.528,18.529,18.528h616.104c10.232,0,18.529-8.295,18.529-18.528v-8.38
		C712.094,643.103,703.797,634.807,693.565,634.807z"/>
	<path fill="#2F2E41" d="M197.398,93.487c-3.373,4.507-5.414,9.868-5.895,15.477c-0.686,6.826-2.686,17.745-8.502,23.485
		c-8.861,8.744-11.814,15.302-11.814,15.302l2.953,3.278c0-6.557,3.939-7.65,3.939-7.65l-0.986,7.65
		c26.586,25.141,85.666,2.188,85.666,2.188l-1.971-19.676c4.924,2.188,6.895,17.488,6.895,17.488l7.875-2.185
		c0,0-13.785-24.048-22.646-45.908s-22.646-16.395-22.646-16.395C214.018,77.858,203.287,85.91,197.398,93.487z"/>
	<path fill="#FFB9B9" d="M289.891,104.748l9.545-62.375c0,0-10.184-24.823,7.002-27.369s5.729,29.915,5.729,29.915l-5.729,59.829
		H289.891z"/>
	<path fill="#FFB9B9" d="M282.25,398.163c3.184,5.092,3.822,31.188,3.822,31.188l22.275-14.004l-6.365-22.912L282.25,398.163z"/>
	<path fill="#2F2E41" d="M251.064,261.321c0,0-28.006,0-43.281,8.909c-4.91,2.866-6.334,8.031-6.008,13.723
		c0.855,14.869,13,26.611,27.865,27.531l43.064,2.664c-6.365,17.821,8.273,87.195,8.273,87.195l22.912-3.181
		c0,0-3.182-23.551-2.545-24.823s6.363-50.917,2.545-77.013c-3.818-26.097-56.008-15.276-56.008-15.276L251.064,261.321z"/>
	<path fill="#2F2E41" d="M284.799,423.622c0,0-1.91,18.457-1.275,21.004c0.639,2.546,26.734,3.818,50.281-3.183
		c23.551-7.002-3.182-14.639-3.182-14.639s-15.912-10.82-20.365-14.641c-4.457-3.818-10.822,5.093-10.822,5.093
		C298.164,422.984,284.799,423.622,284.799,423.622z"/>
	<circle fill="#FFB9B9" cx="223.059" cy="126.385" r="22.913"/>
	<path fill="#FFB9B9" d="M213.512,143.572c8.275,12.093-1.91,19.094-1.91,19.094l-4.453,33.098c0,0,47.734,4.456,56.008-1.91
		c8.275-6.364-9.545-27.369-15.91-29.277c-6.365-1.91-7.639-28.006-7.639-28.006L213.512,143.572z"/>
	<path fill="#F2B400" d="M214.758,159.276l-25.113-3.93l-2.863,27.052c0,0,1.273,60.464,0,71.284
		c-1.275,10.819,21.641,22.913,21.641,22.913s33.094-2.546,39.461-5.728c6.363-3.183,26.73,3.182,26.73,3.182
		c2.27,0.126,4.541-0.199,6.682-0.953c3.822-1.275-9.863-91.972-9.863-91.972l-12.094-28.006l-14.639,5.729l-4.455,21.003
		L214.758,159.276z"/>
	<polygon fill="#F2B400" points="268.885,180.488 294.346,148.027 312.166,104.11 287.344,94.564 277.16,130.843 259.338,152.483 
		258.703,156.302 	"/>
	<path fill="#FFB9B9" d="M188.662,229.9l63.057,2.372c0,0,23.5-12.946,27.988,3.836s-29.066,9.101-29.066,9.101l-60.092,1.131
		L188.662,229.9z"/>
	<path fill="#F2B400" d="M194.1,225.36l29.277,1.908L227.195,247c0,0-35.643-0.637-49.645-1.272c-14.002-0.638,0-59.829,1.908-77.65
		c1.91-17.821,11.459-12.73,11.459-12.73l5.729,4.456L194.1,225.36z"/>
	<polygon opacity="0.15" enable-background="new    " points="199.191,218.994 224.65,229.178 196.646,223.45 194.736,187.171 	"/>
	<polygon fill="#2F2E41" points="247.256,118.76 205.217,119.76 200.213,98.742 247.256,98.742 	"/>
</g>
</svg>
