<?xml version="1.0" encoding="utf-8"?>
<!-- Generator: Adobe Illustrator 16.0.0, SVG Export Plug-In . SVG Version: 6.00 Build 0)  -->
<!DOCTYPE svg PUBLIC "-//W3C//DTD SVG 1.1//EN" "http://www.w3.org/Graphics/SVG/1.1/DTD/svg11.dtd">
<svg version="1.1" id="Layer_1" xmlns="http://www.w3.org/2000/svg" xmlns:xlink="http://www.w3.org/1999/xlink" x="0px" y="0px"
	 width="1000px" height="715px" viewBox="0 0 1000 715" enable-background="new 0 0 1000 715" xml:space="preserve">
<g>
	<ellipse fill="#283648" cx="499.67" cy="594.881" rx="264.909" ry="13.547"/>
	<path fill="#283648" d="M654.443,177.763h-3.01V95.32c0-26.352-21.363-47.715-47.715-47.715H429.053
		c-26.352,0-47.716,21.362-47.716,47.715v452.286c0,26.352,21.362,47.715,47.715,47.715h174.665
		c26.354,0,47.717-21.363,47.717-47.715v-311.16h3.01V177.763z"/>
	<path fill="#FFFFFF" d="M641.277,95.653v451.621c0,19.68-15.955,35.634-35.635,35.634H430.139
		c-19.68,0-35.635-15.954-35.635-35.634V95.653c0-19.68,15.955-35.635,35.635-35.635h21.291c-3.525,8.665,0.64,18.547,9.305,22.073
		c2.023,0.823,4.188,1.248,6.371,1.249h100.064c9.355-0.006,16.934-7.596,16.926-16.95c0-2.185-0.426-4.349-1.25-6.372h22.797
		C625.322,60.019,641.277,75.973,641.277,95.653z"/>
	<path fill="#F2B400" d="M584.738,290.39c-1.166,0.609-2.354,1.187-3.559,1.731c-1.102,0.497-2.217,0.963-3.35,1.399
		c-0.414,0.158-0.836,0.316-1.256,0.475c-3.334,1.208-6.756,2.151-10.236,2.821c-1.723,0.339-3.469,0.605-5.238,0.798
		c-1.459,0.166-2.934,0.284-4.426,0.354c-1.061,0.052-2.121,0.075-3.191,0.075c-4.23,0.001-8.455-0.394-12.611-1.182
		c-1.084-0.196-2.146-0.429-3.207-0.685c-5.133-1.23-10.102-3.064-14.803-5.464c-0.422-0.21-0.844-0.437-1.266-0.655
		c-0.623-0.331-1.234-0.677-1.844-1.038c0.295-0.407,0.609-0.805,0.934-1.197c13.842-17.155,38.971-19.84,56.125-5.997
		c1.131,0.911,2.209,1.883,3.23,2.911c1.375,1.378,2.646,2.852,3.811,4.41C584.158,289.554,584.453,289.969,584.738,290.39z"/>
	<circle fill="#283648" cx="554.984" cy="224.285" r="33.046"/>
	<circle fill="#A0616A" cx="551.977" cy="235.796" r="24.595"/>
	<path fill="#283648" d="M577.82,220.326c-5.619,3.874-12.291,5.936-19.115,5.908c2.434,1.688,5.205,2.829,8.125,3.342
		c-9.076,1.947-18.455,2-27.553,0.155c-2.021-0.324-3.973-0.994-5.768-1.981c-1.809-1.01-3.104-2.74-3.561-4.761
		c-0.604-3.453,2.086-6.591,4.883-8.706c8.67-6.456,19.781-8.676,30.266-6.048c3.381,0.874,6.77,2.351,8.965,5.066
		c2.195,2.715,2.846,6.901,0.754,9.697L577.82,220.326z"/>
	<path fill="#3F3D56" d="M553.482,162.578c-37.4-0.005-67.726,30.311-67.732,67.713c-0.002,23.626,12.307,45.546,32.482,57.841
		l0.438,0.256c0.361,0.218,0.723,0.429,1.082,0.632c0.609,0.361,1.221,0.707,1.846,1.038c0.42,0.218,0.842,0.444,1.264,0.655
		c4.701,2.4,9.67,4.234,14.803,5.464c1.061,0.255,2.123,0.489,3.207,0.685c4.156,0.788,8.381,1.183,12.611,1.182
		c1.07,0,2.131-0.023,3.191-0.075c1.492-0.068,2.967-0.186,4.426-0.354c1.77-0.195,3.516-0.461,5.238-0.798
		c3.48-0.67,6.902-1.613,10.236-2.821c0.42-0.159,0.842-0.317,1.256-0.475c1.137-0.437,2.252-0.903,3.35-1.399
		c1.203-0.542,2.391-1.119,3.559-1.731c11.717-6.136,21.4-15.54,27.877-27.07c0.029-0.061,0.068-0.121,0.098-0.181
		c3.455-6.201,5.906-12.908,7.262-19.876c7.131-36.743-16.873-72.311-53.615-79.443c-4.242-0.824-8.555-1.24-12.875-1.242H553.482z
		 M611.478,262.258c-0.061,0.105-0.115,0.211-0.174,0.309c-6.346,11.361-15.895,20.604-27.453,26.581
		c-1.152,0.603-2.324,1.167-3.516,1.693c-0.986,0.444-1.994,0.866-3.01,1.257c-0.43,0.166-0.865,0.332-1.303,0.482
		c-2.879,1.051-5.828,1.896-8.828,2.528c-2.225,0.474-4.473,0.829-6.736,1.062c-1.391,0.15-2.807,0.256-4.229,0.309
		c-0.91,0.038-1.828,0.06-2.748,0.06c-4.094,0.005-8.182-0.375-12.205-1.137c-2.449-0.451-4.867-1.044-7.248-1.775
		c-3.625-1.12-7.146-2.548-10.529-4.268c-0.391-0.203-0.781-0.406-1.166-0.617c-0.549-0.293-1.105-0.594-1.648-0.918
		c-0.406-0.226-0.813-0.466-1.211-0.708c-0.234-0.136-0.467-0.278-0.699-0.421c-31.193-19.156-40.951-59.971-21.796-91.164
		c19.157-31.192,59.972-40.95,91.165-21.794C618.322,192.27,628.599,231.255,611.478,262.258z"/>
	<path fill="#283648" d="M538.25,191.695c-0.355-3.739-4.936-6.041-8.516-4.911c-3.582,1.129-5.936,4.735-6.646,8.423
		c-0.689,3.137-0.104,6.419,1.631,9.124c1.811,2.605,5.137,4.231,8.24,3.569c3.543-0.754,5.998-4.214,6.699-7.767
		c0.703-3.554,0.004-7.217-0.691-10.771L538.25,191.695z"/>
	<path fill="#283648" d="M588.66,197.036c-0.355-3.738-4.936-6.041-8.516-4.911c-3.584,1.13-5.936,4.736-6.646,8.424
		c-0.689,3.137-0.104,6.419,1.631,9.123c1.811,2.605,5.137,4.231,8.24,3.57c3.543-0.755,5.996-4.214,6.699-7.768
		c0.703-3.553,0.006-7.217-0.691-10.771L588.66,197.036z"/>
	<path fill="#FFFFFF" d="M436.408,257.38c-0.947-0.001-1.851-0.401-2.488-1.102l-37.345-40.74c-0.856-0.933-2.065-1.464-3.331-1.466
		H195.901c-6.235-0.007-11.288-5.06-11.296-11.296V131.61c0.008-6.235,5.061-11.289,11.296-11.296h255.672
		c6.235,0.007,11.289,5.061,11.296,11.296v71.166c-0.007,6.236-5.061,11.289-11.296,11.296h-7.248
		c-2.495,0.003-4.517,2.024-4.52,4.52v35.396c0.007,1.399-0.853,2.656-2.159,3.157C437.252,257.3,436.832,257.38,436.408,257.38z"/>
	<path fill="#3F3D56" d="M436.408,257.38c-0.947-0.001-1.851-0.401-2.488-1.102l-37.345-40.74c-0.856-0.933-2.065-1.464-3.331-1.466
		H195.901c-6.235-0.007-11.288-5.06-11.296-11.296V131.61c0.008-6.235,5.061-11.289,11.296-11.296h255.672
		c6.235,0.007,11.289,5.061,11.296,11.296v71.166c-0.007,6.236-5.061,11.289-11.296,11.296h-7.248
		c-2.495,0.003-4.517,2.024-4.52,4.52v35.396c0.007,1.399-0.853,2.656-2.159,3.157C437.252,257.3,436.832,257.38,436.408,257.38z
		 M195.901,121.82c-5.405,0.006-9.784,4.386-9.79,9.791v71.166c0.006,5.405,4.385,9.785,9.79,9.791h197.343
		c1.688,0.002,3.298,0.71,4.439,1.954l37.346,40.74c0.703,0.767,1.895,0.818,2.661,0.116c0.39-0.357,0.61-0.86,0.61-1.388v-35.396
		c0.004-3.326,2.698-6.021,6.024-6.024h7.248c5.405-0.006,9.785-4.386,9.79-9.791V131.61c-0.005-5.405-4.385-9.784-9.79-9.791
		H195.901z"/>
	<circle fill="#F2B400" cx="212.313" cy="141.824" r="9.885"/>
	<path fill="#E6E6E6" d="M440.041,196.517H207.434c-2.912,0.005-5.276-2.351-5.281-5.262c-0.006-2.911,2.35-5.276,5.262-5.281
		c0.006,0,0.013,0,0.02,0h232.607c2.912,0.005,5.269,2.37,5.264,5.281C445.299,194.159,442.945,196.511,440.041,196.517z"/>
	<path fill="#E6E6E6" d="M364.263,174.112H207.434c-2.912,0.003-5.275-2.354-5.277-5.266c-0.004-2.912,2.354-5.274,5.266-5.277
		c0.004,0,0.008,0,0.012,0h156.829c2.911,0,5.272,2.36,5.272,5.271C369.535,171.752,367.174,174.112,364.263,174.112z"/>
	<path fill="#FFFFFF" d="M602.339,498.725c-1.305-0.5-2.166-1.758-2.158-3.157v-35.396c-0.004-2.495-2.025-4.515-4.52-4.519h-7.248
		c-6.236-0.007-11.289-5.061-11.297-11.295V373.19c0.008-6.234,5.061-11.288,11.297-11.295h255.672
		c6.234,0.007,11.289,5.061,11.295,11.295v71.168c-0.006,6.234-5.061,11.288-11.295,11.295H646.742
		c-1.266,0.002-2.475,0.533-3.33,1.467l-37.346,40.738c-0.637,0.701-1.541,1.102-2.488,1.104
		C603.154,498.959,602.734,498.879,602.339,498.725z"/>
	<path fill="#3F3D56" d="M602.339,498.725c-1.305-0.5-2.166-1.758-2.158-3.157v-35.396c-0.004-2.495-2.025-4.515-4.52-4.519h-7.248
		c-6.236-0.007-11.289-5.061-11.297-11.295V373.19c0.008-6.234,5.061-11.288,11.297-11.295h255.672
		c6.234,0.007,11.289,5.061,11.295,11.295v71.168c-0.006,6.234-5.061,11.288-11.295,11.295H646.742
		c-1.266,0.002-2.475,0.533-3.33,1.467l-37.346,40.738c-0.637,0.701-1.541,1.102-2.488,1.104
		C603.154,498.959,602.734,498.879,602.339,498.725z M588.414,363.4c-5.404,0.006-9.785,4.386-9.791,9.79v71.168
		c0.006,5.404,4.387,9.783,9.791,9.79h7.248c3.326,0.003,6.02,2.698,6.023,6.023v35.396c0,1.04,0.844,1.884,1.885,1.884
		c0.527,0,1.029-0.223,1.387-0.611l37.346-40.738c1.143-1.244,2.752-1.953,4.439-1.954h197.344c5.404-0.007,9.783-4.386,9.791-9.79
		V373.19c-0.008-5.404-4.387-9.784-9.791-9.79H588.414z"/>
	<path fill="#F2B400" d="M522.65,520.764c-21.384,13.693-48.67,14.127-70.48,1.121c1.882-3.502,4.265-6.709,7.074-9.521
		c15.667-15.74,41.129-15.801,56.869-0.135c2.432,2.418,4.541,5.137,6.281,8.09C522.476,520.461,522.566,520.614,522.65,520.764z"/>
	<circle fill="#283648" cx="484.469" cy="451.509" r="33.265"/>
	<circle fill="#FFB8B8" cx="487.495" cy="463.097" r="24.759"/>
	<path fill="#283648" d="M461.48,447.523c5.658,3.899,12.373,5.976,19.243,5.948c-2.45,1.699-5.241,2.848-8.179,3.365
		c9.137,1.959,18.579,2.012,27.737,0.156c2.033-0.326,3.998-1.002,5.807-1.996c1.818-1.016,3.122-2.758,3.581-4.793
		c0.609-3.476-2.099-6.633-4.913-8.762c-8.729-6.498-19.914-8.734-30.469-6.088c-3.403,0.879-6.813,2.365-9.023,5.099
		c-2.21,2.733-2.865,6.946-0.758,9.762L461.48,447.523z"/>
	<path fill="#3F3D56" d="M486.503,532.098c-37.396-0.012-67.702-30.338-67.69-67.732c0.012-37.398,30.337-67.703,67.732-67.692
		c37.396,0.013,67.703,30.337,67.691,67.733c-0.008,23.068-11.758,44.545-31.18,56.99
		C512.15,528.391,499.461,532.106,486.503,532.098z M486.503,398.137c-36.579-0.004-66.235,29.648-66.239,66.229
		c-0.004,36.579,29.646,66.236,66.227,66.238c36.58,0.005,66.238-29.647,66.24-66.227c0-0.006,0-0.008,0-0.012
		C552.689,427.806,523.062,398.178,486.503,398.137z"/>
	<circle fill="#F2B400" cx="608.925" cy="382.652" r="9.884"/>
	<path fill="#E6E6E6" d="M836.654,437.344H604.044c-2.91,0.006-5.275-2.35-5.279-5.262c-0.008-2.912,2.35-5.275,5.262-5.281
		c0.006,0,0.012,0,0.018,0h232.609c2.912,0.002,5.27,2.363,5.268,5.275C841.919,434.985,839.562,437.342,836.654,437.344z"/>
	<path fill="#E6E6E6" d="M760.875,414.94h-156.83c-2.91,0.004-5.275-2.35-5.279-5.262c-0.008-2.912,2.35-5.275,5.262-5.281
		c0.006,0,0.012,0,0.018,0h156.83c2.912,0.006,5.268,2.369,5.264,5.281C766.132,412.583,763.779,414.934,760.875,414.94z"/>
	<ellipse fill="#F2F2F2" cx="602.021" cy="503.417" rx="18.443" ry="2.047"/>
	<ellipse fill="#F2F2F2" cx="437.206" cy="262.589" rx="18.442" ry="2.046"/>
	<g>
		<ellipse fill="#283648" cx="299.333" cy="664.833" rx="140.015" ry="8.166"/>
		<g>
			<polygon fill="#FFB8B8" points="335.408,654.473 365.66,649.728 353.203,636.678 335.408,636.678 			"/>
			<path fill="#FFB8B8" d="M435.003,447.367L435.003,447.367c5.154-3.41,6.568-10.352,3.158-15.506
				c-0.325-0.491-0.688-0.956-1.087-1.391l-14.875-16.214l-14.288,7.233l10.937,21.6c2.791,5.513,9.523,7.719,15.036,4.928
				C434.27,447.822,434.643,447.605,435.003,447.367z"/>
			<path fill="#FFB8B8" d="M242.714,495.521L242.714,495.521c6.138-0.713,10.535-6.268,9.822-12.406
				c-0.068-0.585-0.183-1.164-0.342-1.731l-5.947-21.186h-16.015v24.21c0,6.18,5.01,11.188,11.189,11.188
				C241.854,495.596,242.285,495.572,242.714,495.521z"/>
			<path fill="#FFB8B8" d="M237.943,656.528l31.437,8.305c-5.79-12.012-9.355-22.639-7.117-29.657l-14.829-1.779L237.943,656.528z"
				/>
			<polygon fill="#283648" points="244.468,636.361 262.855,639.92 313.272,477.399 334.626,639.328 354.199,639.328 
				352.42,410.374 276.498,410.374 			"/>
			<path fill="#283648" d="M341.01,662.544l29.923-9.843c3.053-1.004,4.714-4.293,3.71-7.347c-0.089-0.269-0.197-0.53-0.323-0.783
				l0,0c-1.05-2.099-3.257-3.362-5.598-3.204l-6.787,0.459l-2.66-1.497c-0.745-0.419-1.688-0.155-2.107,0.589
				c-0.232,0.413-0.263,0.91-0.082,1.349l2.453,5.957l-24.912-1.779l-1.229,9.833c-0.399,3.198,1.869,6.114,5.066,6.514
				C339.32,662.899,340.189,662.815,341.01,662.544z"/>
			<path fill="#283648" d="M239.876,667.07l32.526,2.108c3.319,0.216,6.184-2.301,6.399-5.619c0.019-0.292,0.017-0.586-0.008-0.878
				l0,0c-0.196-2.42-1.827-4.484-4.136-5.237l-6.692-2.182l-1.976-2.464c-0.553-0.69-1.561-0.802-2.251-0.248
				c-0.383,0.307-0.604,0.771-0.6,1.262l0.054,6.667l-23.228-11.331l-4.979,8.965c-1.618,2.915-0.567,6.591,2.348,8.21
				C238.116,666.756,238.984,667.012,239.876,667.07z"/>
			<circle fill="#FFB8B8" cx="309.12" cy="260.309" r="21.946"/>
			<path fill="#FFB8B8" d="M294.885,300.643h30.251v-29.064h-30.251C297.385,280.555,297.062,290.334,294.885,300.643z"/>
			<path fill="#F2B400" d="M272.346,413.34l83.04,1.186l8.304-87.729c0-11.735-7.475-22.168-18.587-25.942l-12.85-4.364
				l-7.117-8.304c-8.987-1.942-18.765-1.471-29.064,0.593l-7.711,11.27l-8.304,2.65c-11.592,3.699-19.339,14.622-18.997,26.786
				C267.238,361.4,272.043,391.061,272.346,413.34z"/>
			<path fill="#F2B400" d="M227.267,460.198l20.76,2.372l23.727-95.495l2.372-61.687l-0.7,0.339
				c-11.134,5.387-19.081,15.703-21.45,27.843L227.267,460.198z"/>
			<path fill="#F2B400" d="M408.769,424.61l16.015-7.711l-46.974-87.652c-6.821-12.729-17.911-22.647-31.321-28.011l0,0
				l8.897,55.756L408.769,424.61z"/>
			<path fill="#283648" d="M295.557,280.062c0,0,21.52-1.276,21.985-4.999c0.467-3.722,3.608-12.213,7.331-11.748
				c3.722,0.466,14.038-11.943,11.829-16.945c-2.21-5.002-12.638-23.419-33.926-14.931c-21.289,8.488-18.85,29.776-16.641,34.778
				C288.346,271.22,295.557,280.062,295.557,280.062z"/>
		</g>
	</g>
</g>
</svg>
